<svg xmlns="http://www.w3.org/2000/svg" xmlns:xlink="http://www.w3.org/1999/xlink" viewBox="0 0 391.44 239.95"><defs><style>.cls-1,.cls-14,.cls-15,.cls-19,.cls-24,.cls-25,.cls-28{fill:none;}.cls-2{clip-path:url(#clip-path);}.cls-3{clip-path:url(#clip-path-2);}.cls-4{fill:#fafbff;}.cls-5{fill:#fd8569;}.cls-6{fill:#f7c845;}.cls-7{fill:#ec5739;}.cls-8{fill:#aad8d6;}.cls-9{fill:#ff9bbd;}.cls-10{fill:#d1d217;}.cls-11{fill:#3d3a39;}.cls-12{fill:#98d1ec;}.cls-13{fill:#8ed9ce;}.cls-14,.cls-15{stroke:#3d3a39;}.cls-14,.cls-15,.cls-19,.cls-24,.cls-28{stroke-linecap:round;}.cls-14{stroke-linejoin:round;}.cls-14,.cls-15,.cls-28{stroke-width:1.46px;}.cls-15,.cls-19,.cls-24,.cls-25,.cls-28{stroke-miterlimit:10;}.cls-16{fill:#4d4848;}.cls-17{fill:#f5dcc8;}.cls-18{fill:#edbc9a;}.cls-19{stroke:#e8984d;stroke-width:1.63px;}.cls-20{fill:#fe876b;}.cls-21{fill:#14547c;}.cls-22{fill:#f3dac6;}.cls-23{fill:#ebba98;}.cls-24{stroke:#e6964d;stroke-width:1.62px;}.cls-25{stroke:#14547c;stroke-width:0.69px;}.cls-26{fill:#3e3a39;}.cls-27{fill:#0071bc;}.cls-28{stroke:#f7c845;}.cls-29{fill:#f7f7f7;}</style><clipPath id="clip-path" transform="translate(16.45 30.12)"><rect class="cls-1" width="349.94" height="196.84"/></clipPath><clipPath id="clip-path-2" transform="translate(16.45 30.12)"><rect class="cls-1" x="-1.91" y="-1.73" width="353.22" height="199.57"/></clipPath></defs><g id="レイヤー_2" data-name="レイヤー 2"><g id="レイヤー_1-2" data-name="レイヤー 1"><g class="cls-2"><g class="cls-3"><rect class="cls-4" x="14.66" y="28.2" width="353.46" height="200.08"/><circle class="cls-5" cx="145.22" cy="143.88" r="1.22"/><circle class="cls-5" cx="139.44" cy="144.66" r="1.22"/><circle class="cls-5" cx="134.24" cy="146.85" r="1.22"/><circle class="cls-5" cx="129.84" cy="150.25" r="1.22"/><circle class="cls-5" cx="126.44" cy="154.66" r="1.22"/><circle class="cls-5" cx="124.24" cy="159.85" r="1.22"/><circle class="cls-5" cx="123.47" cy="165.64" r="1.22"/><circle class="cls-5" cx="124.24" cy="171.42" r="1.22"/><circle class="cls-5" cx="126.44" cy="176.62" r="1.22"/><circle class="cls-5" cx="129.84" cy="181.02" r="1.22"/><circle class="cls-5" cx="134.24" cy="184.42" r="1.22"/><circle class="cls-5" cx="139.44" cy="186.62" r="1.22"/><circle class="cls-5" cx="145.22" cy="187.39" r="1.22"/><circle class="cls-5" cx="151.01" cy="186.62" r="1.22"/><circle class="cls-5" cx="156.21" cy="184.42" r="1.22"/><circle class="cls-5" cx="160.61" cy="181.02" r="1.22"/><circle class="cls-5" cx="164.01" cy="176.62" r="1.22"/><circle class="cls-5" cx="166.2" cy="171.42" r="1.22"/><circle class="cls-5" cx="166.98" cy="165.64" r="1.22"/><circle class="cls-5" cx="166.2" cy="159.85" r="1.22"/><circle class="cls-5" cx="164.01" cy="154.66" r="1.22"/><circle class="cls-5" cx="160.61" cy="150.25" r="1.22"/><circle class="cls-5" cx="156.21" cy="146.85" r="1.22"/><circle class="cls-5" cx="151.01" cy="144.66" r="1.22"/><circle class="cls-5" cx="145.22" cy="143.88" r="1.22"/><rect class="cls-6" x="122.56" y="121.85" width="1.77" height="7.9" rx="0.89" transform="translate(-30.21 109.77) rotate(-30.36)"/><rect class="cls-6" x="118.78" y="125.63" width="1.77" height="7.9" rx="0.89" transform="translate(-36.19 197.45) rotate(-59.64)"/><rect class="cls-6" x="130.72" y="164.14" width="7.9" height="1.77" rx="0.89"/><rect class="cls-6" x="115.71" y="139.35" width="7.9" height="1.77" rx="0.89" transform="translate(-38.03 109.83) rotate(-30.36)"/><rect class="cls-6" x="119.5" y="143.14" width="7.9" height="1.77" rx="0.89" transform="translate(-46.77 207.86) rotate(-59.64)"/><rect class="cls-6" x="144.34" y="171.63" width="1.77" height="7.9" rx="0.89"/><rect class="cls-6" x="133.22" y="140.08" width="1.77" height="7.9" rx="0.89" transform="matrix(0.86, -0.51, 0.51, 0.86, -37.96, 117.65)"/><rect class="cls-6" x="137.01" y="136.29" width="1.77" height="7.9" rx="0.89" transform="translate(-36.36 218.45) rotate(-59.64)"/><rect class="cls-6" x="151.83" y="164.14" width="7.9" height="1.77" rx="0.89"/><rect class="cls-6" x="133.94" y="128.7" width="7.9" height="1.77" rx="0.89" transform="translate(-30.14 117.59) rotate(-30.36)"/><rect class="cls-6" x="130.15" y="124.91" width="7.9" height="1.77" rx="0.89" transform="translate(-25.78 208.04) rotate(-59.64)"/><rect class="cls-6" x="124.83" y="123.47" width="7.9" height="1.77" rx="0.89" transform="translate(19.53 281.95) rotate(-89.4)"/><rect class="cls-7" x="123.86" y="117.49" width="1.5" height="6.68" rx="0.75" transform="translate(-12.74 70.49) rotate(-16.5)"/><rect class="cls-7" x="117.32" y="121.51" width="1.5" height="6.68" rx="0.75" transform="translate(-37.32 155.76) rotate(-46.86)"/><rect class="cls-7" x="113.76" y="128.06" width="1.5" height="6.68" rx="0.75" transform="translate(-24.05 241.22) rotate(-76.14)"/><rect class="cls-7" x="111.35" y="138.33" width="6.68" height="1.5" rx="0.75" transform="matrix(0.96, -0.28, 0.28, 0.96, -18.34, 68.42)"/><rect class="cls-7" x="115.38" y="144.87" width="6.68" height="1.5" rx="0.75" transform="translate(-52.27 162.8) rotate(-46.86)"/><rect class="cls-7" x="121.93" y="148.43" width="6.68" height="1.5" rx="0.75" transform="translate(-33.12 265.18) rotate(-76.14)"/><rect class="cls-7" x="132.2" y="145.65" width="1.5" height="6.68" rx="0.75" transform="translate(-20.4 74.02) rotate(-16.5)"/><rect class="cls-7" x="138.74" y="141.63" width="1.5" height="6.68" rx="0.75" transform="translate(-45.22 177.75) rotate(-46.86)"/><rect class="cls-7" x="142.29" y="135.08" width="1.5" height="6.68" rx="0.75" transform="translate(-9.16 274.26) rotate(-76.14)"/><rect class="cls-7" x="139.52" y="129.99" width="6.68" height="1.5" rx="0.75" transform="translate(-14.8 76.08) rotate(-16.5)"/><rect class="cls-7" x="135.49" y="123.45" width="6.68" height="1.5" rx="0.75" transform="translate(-30.28 170.71) rotate(-46.86)"/><rect class="cls-7" x="128.94" y="119.9" width="6.68" height="1.5" rx="0.75" transform="translate(-0.09 250.29) rotate(-76.14)"/><rect class="cls-7" x="123.86" y="117.49" width="1.5" height="6.68" rx="0.75" transform="translate(-12.74 70.49) rotate(-16.5)"/><circle class="cls-8" cx="242.19" cy="158.26" r="1.18"/><circle class="cls-8" cx="236.14" cy="159.66" r="1.18"/><circle class="cls-8" cx="231.46" cy="163.41" r="1.18"/><circle class="cls-8" cx="228.8" cy="168.85" r="1.18"/><circle class="cls-8" cx="228.8" cy="175.16" r="1.18"/><circle class="cls-8" cx="231.46" cy="180.6" r="1.18"/><circle class="cls-8" cx="236.14" cy="184.36" r="1.18"/><circle class="cls-8" cx="242.19" cy="185.75" r="1.18"/><circle class="cls-8" cx="248.23" cy="184.36" r="1.18"/><circle class="cls-8" cx="252.91" cy="180.6" r="1.18"/><circle class="cls-8" cx="255.57" cy="175.16" r="1.18"/><circle class="cls-8" cx="255.57" cy="168.85" r="1.18"/><circle class="cls-8" cx="252.91" cy="163.41" r="1.18"/><circle class="cls-8" cx="248.23" cy="159.66" r="1.18"/><circle class="cls-8" cx="242.19" cy="158.26" r="1.18"/><rect class="cls-9" x="221.7" y="132.81" width="1.15" height="5.14" rx="0.58" transform="translate(-21.49 161.03) rotate(-30.36)"/><rect class="cls-9" x="219.24" y="135.27" width="1.15" height="5.14" rx="0.58" transform="translate(6.23 287.95) rotate(-59.64)"/><rect class="cls-9" x="232.76" y="170.84" width="5.14" height="1.15" rx="0.58"/><rect class="cls-9" x="217.25" y="144.19" width="5.14" height="1.15" rx="0.58" transform="translate(-26.58 161.08) rotate(-30.36)"/><rect class="cls-9" x="219.71" y="146.65" width="5.14" height="1.15" rx="0.58" transform="translate(-0.66 294.72) rotate(-59.64)"/><rect class="cls-9" x="241.61" y="175.71" width="1.15" height="5.14" rx="0.58"/><rect class="cls-9" x="228.63" y="144.65" width="1.15" height="5.14" rx="0.58" transform="translate(-26.53 166.16) rotate(-30.36)"/><rect class="cls-9" x="231.09" y="142.19" width="1.15" height="5.14" rx="0.58" transform="translate(6.11 301.6) rotate(-59.64)"/><rect class="cls-9" x="246.48" y="170.84" width="5.14" height="1.15" rx="0.58"/><rect class="cls-9" x="229.1" y="137.26" width="5.14" height="1.15" rx="0.58" transform="translate(-21.45 166.11) rotate(-30.36)"/><rect class="cls-9" x="226.64" y="134.8" width="5.14" height="1.15" rx="0.58" transform="translate(12.99 294.84) rotate(-59.64)"/><rect class="cls-9" x="223.17" y="133.86" width="5.14" height="1.15" rx="0.58" transform="translate(105.41 388.88) rotate(-89.4)"/><path class="cls-4" d="M218.31,148a.75.75,0,0,0-.56-.25H132.37a.73.73,0,0,0-.56.25.72.72,0,0,0-.17.58L138,193.45h74.1l6.37-44.92A.76.76,0,0,0,218.31,148Z" transform="translate(16.45 30.12)"/><path class="cls-10" d="M60.5,87.93a3.68,3.68,0,0,0-.54-.16l-3.41-.19c-.45,0-.9-.09-1.36-.13a20.41,20.41,0,0,0-3.9.26,12,12,0,0,0-3.6.94,3,3,0,0,0-1.85,2,2.11,2.11,0,0,0,.42,1.61,5,5,0,0,0,2.92,2.09,16.51,16.51,0,0,0,4.25.71c1.71.07,3.43.16,5.15.19,2.64.06,5.28.15,7.91.08a23,23,0,0,0,6.39-1,14.81,14.81,0,0,0,2.48-1.09,4.51,4.51,0,0,0,2.07-2.78q.12-.37.21-.75c.37-1.44-.41-2.53-1.3-3.56A8.37,8.37,0,0,0,72,83.9c-1.16-.31-2.34-.55-3.51-.8a11.64,11.64,0,0,0-1.3-.19c-1.1-.09-2.22-.1-3.31-.25a42.24,42.24,0,0,0-5.51-.35c-2.54,0-5.08-.1-7.62-.16a8.13,8.13,0,0,1-.84-.13v-.14c.32-.07.63-.16,1-.22a16.56,16.56,0,0,0,5.68-2.14A11.92,11.92,0,0,0,61,75.3a5.56,5.56,0,0,0-1-6.8,13.11,13.11,0,0,0-5.8-3.32,54.28,54.28,0,0,0-5.35-1.33,49.22,49.22,0,0,0-5.15-.61c-1.88-.16-3.78-.24-5.67-.34a5.88,5.88,0,0,0-.71.07l0,.19a5.08,5.08,0,0,0,.84.19c1.39.09,2.78.13,4.16.26,1.13.1,2.24.29,3.36.44,1,.13,1.91.25,2.85.41s2.12.38,3.16.66a34.77,34.77,0,0,1,3.64,1.11,9.9,9.9,0,0,1,5.22,3.87A4.57,4.57,0,0,1,61,73.76a8.14,8.14,0,0,1-3.56,4.55,21.61,21.61,0,0,1-3.55,2,15.68,15.68,0,0,1-3.39,1c-1.68.31-3.39.48-5.09.68a5.45,5.45,0,0,1-1.39,0c.31-.09.61-.19.93-.25a26.63,26.63,0,0,0,6.31-2.18,13.73,13.73,0,0,0,4.44-3.32A5.82,5.82,0,0,0,57.2,73a3.79,3.79,0,0,0-1.75-3.57,16.86,16.86,0,0,0-6.57-3.2c-1.33-.34-2.67-.64-4-.87-1.76-.28-3.54-.5-5.32-.7s-3.63-.35-5.45-.53c-.39,0-.78-.1-1.17-.12a1.11,1.11,0,0,0-.57.15c1.47.5,3,.43,4.54.82l-1,.07,0,.12a1.46,1.46,0,0,0,.35.18c.73.12,1.46.2,2.19.33,1.32.22,2.65.46,4,.7a19.14,19.14,0,0,1,4.41,1.44A15.45,15.45,0,0,1,48.9,69a3.52,3.52,0,0,1,1.63,2.81,6.72,6.72,0,0,1-1.37,5.09,10.23,10.23,0,0,1-2.79,2.26,22.82,22.82,0,0,1-6.12,2.46c-1,.24-1.94.32-2.9.54a12.85,12.85,0,0,1-2.63,0l-8.71.2c-1.77,0-3.54.07-5.31.16-1.56.07-3.12.18-4.67.35s-3.05.37-4.56.67a31.83,31.83,0,0,0-9.53,3.16A12.9,12.9,0,0,0-1.67,89.6a4.18,4.18,0,0,0,.21,5.14A7.53,7.53,0,0,0,2.41,97Q4.69,97.7,7,98.19c1.27.27,2.57.4,3.85.6l3.9.62,1.4.18c.71.08,1.41.14,2.12.2,5.88.51,11.78.4,17.67.39,1.57,0,3.13,0,4.7,0s3.38.07,5.06.19c1.87.12,3.74.3,5.6.51,1.6.19,3.2.41,4.79.71A20.33,20.33,0,0,1,61.34,103a8.07,8.07,0,0,1,1.34.83,1.66,1.66,0,0,1,.23,2.54,9,9,0,0,1-3.43,2.54,23.68,23.68,0,0,1-4.86,1.75,20.89,20.89,0,0,1-4.32.43c-2.64,0-5.27.15-7.91.17-2.45,0-4.9-.05-7.35-.07-2.23,0-4.46-.12-6.68-.07a25.85,25.85,0,0,0-5.48.61c-1.65.4-3.33.73-4.92,1.27a10.84,10.84,0,0,0-4.69,2.76,5.32,5.32,0,0,0-1.45,4.68,4.06,4.06,0,0,0,.83,1.59,7.36,7.36,0,0,0,3.89,2.48,41.1,41.1,0,0,0,5.75,1.1,74,74,0,0,0,12,.44c.78,0,1.56,0,2.33,0,1.71-.12,3.41-.28,5.12-.43a11.41,11.41,0,0,0,3.61-.91,9.38,9.38,0,0,0,3.19-2.16,2.22,2.22,0,0,0,.38-2.71,6.49,6.49,0,0,0-3-2.64,13,13,0,0,0-5.47-1.41c-2.41-.14-4.82-.24-7.23-.35-.46,0-.91-.08-1.37-.09a12.6,12.6,0,0,0-4.24.46A2.87,2.87,0,0,0,25.94,117a1.54,1.54,0,0,0,1,2.44c1.17.28,2.38.41,3.57.58a7.17,7.17,0,0,0,1.46.1c1.15-.06,2.29-.17,3.43-.29a.66.66,0,0,0,.4-1c-.12-.11-.4-.06-.6-.08l0,.62a8.23,8.23,0,0,1-1.25.17,34.05,34.05,0,0,1-3.5,0,22.37,22.37,0,0,1-3.34-.55,1,1,0,0,1-.49-1.84,4.18,4.18,0,0,1,1.79-.88,16.15,16.15,0,0,1,3.19-.23c2,0,4,0,6,.22A10.07,10.07,0,0,1,42,117.36,4.4,4.4,0,0,1,43.65,119a3.65,3.65,0,0,1-.44,3.77,6.06,6.06,0,0,1-3.86,2.47,18.23,18.23,0,0,1-3.22.34c-2.12,0-4.24.08-6.36,0s-4.53-.27-6.78-.53c-1.78-.2-3.55-.5-5.29-.87A8.36,8.36,0,0,1,13.41,122a3.67,3.67,0,0,1-.79-4.12c.74-2.09,2.52-3.21,4.57-4a38.42,38.42,0,0,1,4.92-1.54,24.26,24.26,0,0,1,4.57-.61c3.61-.11,7.23-.1,10.85-.1s7.46.06,11.18.06c1.31,0,2.63-.08,3.93-.18,1.76-.13,3.52-.25,5.26-.5s3.15-.64,4.72-1a17.07,17.07,0,0,0,5.17-2,4.51,4.51,0,0,0,1.6-1.43,2.26,2.26,0,0,0-.17-2.32,3.89,3.89,0,0,0-2.74-2c-1.64-.43-3.3-.8-5-1.08-1.88-.31-3.79-.51-5.69-.71s-3.76-.4-5.65-.51c-2.69-.17-5.39-.31-8.09-.37-3.72-.09-7.45-.08-11.18-.14a36.1,36.1,0,0,1-4.3-.24c-1.5-.21-3-.64-4.44-1A25.67,25.67,0,0,1,17,96.5a5.7,5.7,0,0,1-3.21-2.9,4.22,4.22,0,0,1,0-3.27c1-2.43,3-4,5.37-5.19a15.25,15.25,0,0,1,4.51-1.44c1.57-.26,3.15-.53,4.74-.72,1.14-.13,2.29-.16,3.44-.19l9.53-.18c2,0,4.07-.13,6.1-.09,3.35.06,6.69.21,10,.32,1.5.06,3,.06,4.49.21a26.8,26.8,0,0,1,5.89,1.14,8.57,8.57,0,0,1,3.73,2.13,3.77,3.77,0,0,1,.42,5,9.24,9.24,0,0,1-5,3.48,6.62,6.62,0,0,1-1.89.24c-2.64,0-5.29,0-7.92-.09a15,15,0,0,1-4.36-.67A5.1,5.1,0,0,1,50,92.18a2.1,2.1,0,0,1,.74-3,9.65,9.65,0,0,1,1.91-1A3.51,3.51,0,0,1,54,88.06c1.54,0,3.09.12,4.63.18.44,0,.89,0,1.33,0a2.78,2.78,0,0,0,.55-.14ZM22.23,99.11l-.34,0c-.92-.07-1.84-.09-2.74-.22-1.66-.23-3.33-.47-5-.82s-3.2-.8-4.77-1.29a10.89,10.89,0,0,1-5-3.32A2.44,2.44,0,0,1,4,92.43a3.06,3.06,0,0,1,.85-2.57,11.52,11.52,0,0,1,3.88-3,31.18,31.18,0,0,1,7.62-2.6c1.62-.37,3.27-.6,4.91-.87a5.56,5.56,0,0,1,1,0,24.28,24.28,0,0,0-4.4,1.88,10.14,10.14,0,0,0-4.67,5.1,4.63,4.63,0,0,0,.06,3.49,6,6,0,0,0,3.08,3A42.54,42.54,0,0,0,22.23,99.11ZM11.12,98l0,.12-1.56-.25c-1.1-.18-2.21-.32-3.29-.58C4.79,97,3.39,96.57,2,96.16a5.36,5.36,0,0,1-3-1.92,3.33,3.33,0,0,1-.41-3.91,7,7,0,0,1,2.11-2,24.42,24.42,0,0,1,8.77-3.67c1.24-.29,2.51-.55,3.77-.74,1.45-.22,2.91-.37,4.36-.53a3,3,0,0,1,.55,0c-.13.09-.16.13-.2.14-1.34.3-2.71.54-4,.92A33.51,33.51,0,0,0,9.49,86,19,19,0,0,0,5.8,88.17c-1.47,1.13-2.69,2.5-2.36,4.48A2.75,2.75,0,0,0,4,93.87a11.76,11.76,0,0,0,5.7,3.69ZM42.86,65.8v-.1a2.27,2.27,0,0,1,.45,0,37.78,37.78,0,0,1,5.78,1.2A18.67,18.67,0,0,1,55.31,70a3.31,3.31,0,0,1,.91,4.42,7.92,7.92,0,0,1-2.35,2.78,17.87,17.87,0,0,1-6.07,3.16c-1.92.59-3.92,1-5.88,1.48-.07,0-.15-.06-.24-.09a.64.64,0,0,1,.13-.12c1.2-.48,2.43-.92,3.6-1.45a11.58,11.58,0,0,0,4.27-3.14,6.92,6.92,0,0,0,1.46-4.16,4.58,4.58,0,0,0-1.41-4,13.14,13.14,0,0,0-4.41-2.36C44.5,66.3,43.68,66.05,42.86,65.8Zm17.11,36v-.07a2.94,2.94,0,0,1,.42,0,33.59,33.59,0,0,1,6.2,1.26A3.38,3.38,0,0,1,69,105.18a1.31,1.31,0,0,1-.23,1.31,3.4,3.4,0,0,1-.87.82,14.63,14.63,0,0,1-4.67,2L58,110.48a6.9,6.9,0,0,1-1,.07v-.12c.77-.32,1.56-.62,2.32-1a10.17,10.17,0,0,0,4-2.81,2.11,2.11,0,0,0,.28-2.63,4.47,4.47,0,0,0-1.44-1.2A23.14,23.14,0,0,0,60,101.82Zm8.52-7.06c.84-.58,1.74-1.11,2.52-1.76a5.7,5.7,0,0,0,2-2.89,4.17,4.17,0,0,0-1.5-4.45A19.23,19.23,0,0,0,69,84.09l-.24-.15.13-.09c1.19.26,2.42.43,3.56.8A11.64,11.64,0,0,1,75.28,86a4.33,4.33,0,0,1,1.81,2.64,4,4,0,0,1-.49,2.49,4.78,4.78,0,0,1-3.2,2.52c-1.12.37-2.29.61-3.45.87C69.46,94.67,68.94,94.7,68.49,94.76Zm-26.28,21.9v-.11c.6.15,1.2.27,1.79.45a9.24,9.24,0,0,1,3.91,2.27,2,2,0,0,1,0,3.19c-2,1.89-4.5,2.58-7.35,2.87l.5-.28c2.22-1.16,3.55-2.8,3.36-5.28a2.51,2.51,0,0,0-.71-1.7C43.25,117.59,42.72,117.13,42.21,116.66ZM52.37,94.49l0,.15c-.74-.14-1.48-.25-2.21-.42A5.38,5.38,0,0,1,47,92.48c-.5-.65-.92-1.36-.45-2.18A3,3,0,0,1,48.19,89c.51-.18,1-.34,1.56-.47s.86-.18,1.3-.26l0,.14-.63.43a2.59,2.59,0,0,0-.75,3.72A5.69,5.69,0,0,0,52.37,94.49Z" transform="translate(16.45 30.12)"/><path class="cls-10" d="M306.65,58.21a3.19,3.19,0,0,0,.59.15c.48,0,1,0,1.45,0,1.67-.07,3.35-.16,5-.2a3.92,3.92,0,0,1,1.45.19,11.31,11.31,0,0,1,2.07,1.08,2.29,2.29,0,0,1,.81,3.21A5.55,5.55,0,0,1,315,64.86a15.82,15.82,0,0,1-4.72.73c-2.86.13-5.73.1-8.6.1a7.46,7.46,0,0,1-2.06-.26,10,10,0,0,1-5.47-3.77,4.1,4.1,0,0,1,.45-5.4,9.52,9.52,0,0,1,4-2.31,29.67,29.67,0,0,1,6.4-1.23c1.61-.16,3.25-.17,4.88-.23,3.63-.12,7.26-.28,10.89-.35,2.21,0,4.42.06,6.63.1l10.34.19c1.25,0,2.5.06,3.74.21,1.72.2,3.44.5,5.15.78A16.54,16.54,0,0,1,351.56,55c2.58,1.31,4.77,3,5.83,5.64a4.67,4.67,0,0,1,0,3.56,6.15,6.15,0,0,1-3.49,3.14,27.74,27.74,0,0,1-5.6,2c-1.61.35-3.19.82-4.82,1a36.2,36.2,0,0,1-4.66.26c-4.05.07-8.1.06-12.15.16-2.93.07-5.86.22-8.78.39-2.05.13-4.09.34-6.13.56s-4.14.44-6.18.78c-1.82.29-3.63.7-5.41,1.16a4.25,4.25,0,0,0-3,2.12,2.44,2.44,0,0,0-.18,2.52,4.74,4.74,0,0,0,1.74,1.55,18.42,18.42,0,0,0,5.6,2.17c1.71.37,3.4.8,5.13,1.06,1.89.27,3.8.4,5.71.54,1.42.11,2.84.2,4.26.2,4.05,0,8.1-.07,12.15-.07s7.85,0,11.78.11a25.73,25.73,0,0,1,4.95.66,40.82,40.82,0,0,1,5.34,1.67c2.23.85,4.17,2.07,5,4.34a4,4,0,0,1-.86,4.47,9,9,0,0,1-4.66,2.36c-1.89.41-3.81.74-5.74,1-2.44.27-4.9.47-7.36.57-2.3.09-4.6.06-6.9,0a18.64,18.64,0,0,1-3.5-.36,6.59,6.59,0,0,1-4.19-2.68,4,4,0,0,1-.48-4.1A4.92,4.92,0,0,1,326.77,90a10.94,10.94,0,0,1,4.81-1.31c2.14-.2,4.31-.22,6.47-.24a18.25,18.25,0,0,1,3.47.25,4.54,4.54,0,0,1,1.94,1,1.12,1.12,0,0,1-.53,2,24.83,24.83,0,0,1-3.62.59,37.24,37.24,0,0,1-3.81,0,10.06,10.06,0,0,1-1.36-.18l-.05-.68c-.22,0-.52,0-.65.09a.71.71,0,0,0,.43,1.14c1.24.13,2.48.25,3.73.32a7.64,7.64,0,0,0,1.58-.11c1.3-.18,2.61-.33,3.88-.63a1.67,1.67,0,0,0,1.1-2.65,3,3,0,0,0-1.76-1.26,13.76,13.76,0,0,0-4.61-.5c-.49,0-1,.07-1.48.1-2.62.12-5.24.22-7.85.37a14.35,14.35,0,0,0-5.95,1.54,7,7,0,0,0-3.29,2.87,2.41,2.41,0,0,0,.41,2.94,10.27,10.27,0,0,0,3.47,2.34,12.23,12.23,0,0,0,3.92,1c1.85.16,3.7.33,5.55.46.84.06,1.69,0,2.53,0a78.82,78.82,0,0,0,13-.48,45.62,45.62,0,0,0,6.25-1.19A8.06,8.06,0,0,0,358.6,95a4.17,4.17,0,0,0,.89-1.72,5.75,5.75,0,0,0-1.57-5.08,11.81,11.81,0,0,0-5.08-3c-1.74-.58-3.56-.94-5.35-1.38a28.32,28.32,0,0,0-5.95-.66c-2.41,0-4.83,0-7.25.07-2.66,0-5.32.1-8,.08-2.87,0-5.73-.12-8.59-.18a22.18,22.18,0,0,1-4.68-.47,24.8,24.8,0,0,1-5.28-1.9A9.58,9.58,0,0,1,304,78a1.79,1.79,0,0,1,.24-2.75,8.72,8.72,0,0,1,1.46-.91,22.32,22.32,0,0,1,5.66-1.51c1.72-.32,3.46-.56,5.21-.76q3-.36,6.07-.56c1.83-.13,3.67-.17,5.5-.21s3.4,0,5.1,0c6.4,0,12.8.13,19.18-.42.77-.06,1.53-.13,2.3-.21l1.52-.2,4.23-.67c1.4-.22,2.81-.37,4.19-.66q2.54-.53,5-1.27a8.17,8.17,0,0,0,4.2-2.47,4.54,4.54,0,0,0,.24-5.58,14.11,14.11,0,0,0-3.92-3.1,34.8,34.8,0,0,0-10.36-3.43c-1.63-.32-3.29-.55-4.95-.73s-3.37-.29-5.06-.38c-1.92-.09-3.84-.12-5.76-.17l-9.47-.22a13.58,13.58,0,0,1-2.85,0c-1-.23-2.12-.33-3.15-.58A25,25,0,0,1,322,48.51a11.06,11.06,0,0,1-3-2.45,7.3,7.3,0,0,1-1.49-5.53,3.81,3.81,0,0,1,1.77-3,17.07,17.07,0,0,1,2.31-1.33,20.82,20.82,0,0,1,4.79-1.56c1.44-.27,2.87-.52,4.31-.77.79-.13,1.59-.22,2.38-.35a1.69,1.69,0,0,0,.38-.19l0-.14-1.08-.08c1.64-.41,3.34-.34,4.93-.88a1.24,1.24,0,0,0-.62-.17c-.43,0-.85.1-1.27.14-2,.19-3.95.35-5.92.57s-3.86.45-5.78.76c-1.47.25-2.92.58-4.37.95a18.39,18.39,0,0,0-7.13,3.47c-1.26,1-2.12,2.15-1.9,3.87a6.35,6.35,0,0,0,1.62,3.43,14.89,14.89,0,0,0,4.81,3.61,28.85,28.85,0,0,0,6.86,2.36c.34.08.67.18,1,.27a6,6,0,0,1-1.51.07c-1.84-.22-3.7-.41-5.52-.74a17.17,17.17,0,0,1-3.69-1.06A22.3,22.3,0,0,1,310,47.57a8.8,8.8,0,0,1-3.87-4.94,5,5,0,0,1,.61-4,10.79,10.79,0,0,1,5.67-4.2,38.34,38.34,0,0,1,3.95-1.21c1.13-.3,2.28-.51,3.43-.71s2.06-.31,3.09-.45c1.22-.17,2.43-.37,3.65-.48,1.5-.13,3-.18,4.51-.28a7.62,7.62,0,0,0,.92-.21l0-.2a4.08,4.08,0,0,0-.77-.07c-2.05.1-4.11.18-6.16.36a55,55,0,0,0-5.59.66c-2,.36-3.89.89-5.8,1.44a14.38,14.38,0,0,0-6.31,3.61,6,6,0,0,0-1.14,7.38A13.13,13.13,0,0,0,311,48.89a18.35,18.35,0,0,0,6.17,2.32c.35.06.7.16,1,.24v.14a7.06,7.06,0,0,1-.92.15c-2.76.07-5.51.16-8.27.18a45.83,45.83,0,0,0-6,.37c-1.19.16-2.39.18-3.59.28a11.13,11.13,0,0,0-1.41.2c-1.28.28-2.56.53-3.82.87a9.08,9.08,0,0,0-4.75,2.49c-1,1.11-1.81,2.3-1.41,3.86.07.27.14.55.23.82a4.88,4.88,0,0,0,2.25,3A16.07,16.07,0,0,0,293.2,65a25.46,25.46,0,0,0,6.94,1.09c2.86.08,5.73,0,8.59-.08,1.86,0,3.73-.13,5.6-.21a18,18,0,0,0,4.61-.77,5.36,5.36,0,0,0,3.17-2.28,2.29,2.29,0,0,0,.45-1.74,3.19,3.19,0,0,0-2-2.22,12.68,12.68,0,0,0-3.91-1,22.18,22.18,0,0,0-4.23-.29c-.49,0-1,.11-1.48.14-1.23.08-2.46.13-3.69.22a2.48,2.48,0,0,0-.59.17Zm48,9.5A6.5,6.5,0,0,0,358,64.47a5.1,5.1,0,0,0,.06-3.8,11,11,0,0,0-5.07-5.53,26.75,26.75,0,0,0-4.78-2,7.93,7.93,0,0,1,1.09,0c1.78.3,3.57.55,5.32.95a33.62,33.62,0,0,1,8.28,2.83,12.52,12.52,0,0,1,4.21,3.22,3.3,3.3,0,0,1,.92,2.8,2.55,2.55,0,0,1-.47,1.15,11.89,11.89,0,0,1-5.41,3.61c-1.7.53-3.43,1-5.18,1.39s-3.58.64-5.38.9c-1,.14-2,.16-3,.23a2.31,2.31,0,0,1-.37,0A46.73,46.73,0,0,0,354.6,67.71Zm7.26.76a12.8,12.8,0,0,0,6.18-4,2.88,2.88,0,0,0,.56-1.32c.35-2.15-1-3.64-2.57-4.87a20.31,20.31,0,0,0-4-2.36,37.18,37.18,0,0,0-4.79-1.68c-1.43-.42-2.91-.67-4.36-1-.05,0-.08,0-.22-.15a2.78,2.78,0,0,1,.59,0c1.58.18,3.16.33,4.73.57,1.38.22,2.75.5,4.1.81a26.58,26.58,0,0,1,9.52,4,7.4,7.4,0,0,1,2.29,2.23,3.64,3.64,0,0,1-.44,4.25A5.83,5.83,0,0,1,370.17,67c-1.52.44-3.05.9-4.59,1.27-1.17.28-2.38.43-3.57.63l-1.7.27-.05-.13ZM323.13,34.83a14.18,14.18,0,0,0-4.79,2.55,5,5,0,0,0-1.53,4.33,7.42,7.42,0,0,0,1.59,4.51A12.34,12.34,0,0,0,323,49.63c1.27.58,2.6,1,3.91,1.58a.72.72,0,0,1,.14.13c-.1,0-.19.11-.26.09-2.13-.52-4.3-1-6.39-1.6a19.66,19.66,0,0,1-6.59-3.43,8.58,8.58,0,0,1-2.55-3c-.78-1.7-.79-3.42,1-4.8A20.28,20.28,0,0,1,319,35.15a40.7,40.7,0,0,1,6.28-1.3,2.69,2.69,0,0,1,.49,0V34C324.91,34.26,324,34.53,323.13,34.83ZM304.91,74.18a4.76,4.76,0,0,0-1.56,1.3,2.3,2.3,0,0,0,.3,2.86,11,11,0,0,0,4.34,3c.83.37,1.68.7,2.52,1v.13a6.63,6.63,0,0,1-1.1-.08c-1.91-.4-3.81-.83-5.71-1.25a15.9,15.9,0,0,1-5.06-2.19,3.66,3.66,0,0,1-.95-.89,1.41,1.41,0,0,1-.25-1.42,3.67,3.67,0,0,1,2.6-2.36A36.5,36.5,0,0,1,306.77,73a3.38,3.38,0,0,1,.45,0v.07A24.48,24.48,0,0,0,304.91,74.18Zm-8.53-9c-1.25-.28-2.52-.54-3.74-.94a5.21,5.21,0,0,1-3.47-2.74,4.34,4.34,0,0,1-.54-2.7,4.75,4.75,0,0,1,2-2.87,12.93,12.93,0,0,1,3.08-1.5,37.7,37.7,0,0,1,3.85-.87s.05,0,.14.09l-.25.17a20.83,20.83,0,0,0-2.78,1.7A4.52,4.52,0,0,0,293,60.38a6.18,6.18,0,0,0,2.23,3.14c.85.7,1.82,1.28,2.73,1.91A14,14,0,0,1,296.38,65.21Zm28.46,25.53a2.71,2.71,0,0,0-.77,1.84c-.2,2.69,1.24,4.47,3.66,5.74l.53.3c-3.09-.31-5.82-1.07-8-3.12a2.21,2.21,0,0,1,0-3.46,10,10,0,0,1,4.24-2.46c.64-.2,1.29-.34,1.94-.5v.13C326,89.72,325.38,90.21,324.84,90.74ZM318.36,63a2.81,2.81,0,0,0-.81-4l-.68-.47,0-.15c.47.09.95.16,1.41.28s1.14.32,1.7.52a3.23,3.23,0,0,1,1.8,1.43c.51.89.06,1.65-.48,2.36a5.75,5.75,0,0,1-3.42,1.89c-.78.19-1.59.31-2.39.46l-.06-.16A6.18,6.18,0,0,0,318.36,63Z" transform="translate(16.45 30.12)"/><path class="cls-11" d="M191.75,193.45a.74.74,0,0,1-.74-.74V151.49H158.58v41.22a.73.73,0,1,1-1.46,0v-42a.73.73,0,0,1,.73-.73h33.9a.73.73,0,0,1,.73.73v42A.74.74,0,0,1,191.75,193.45Z" transform="translate(16.45 30.12)"/><path class="cls-11" d="M192,151.54H157.56a.73.73,0,0,1-.66-.42l-3-6.54a.76.76,0,0,1,0-.7.73.73,0,0,1,.62-.34h4.65l2.07-4.77a.72.72,0,0,1,.67-.44h25.74a.72.72,0,0,1,.67.44l2.06,4.77h4.66a.75.75,0,0,1,.62.34.76.76,0,0,1,0,.7l-3,6.54A.73.73,0,0,1,192,151.54Zm-34-1.46h33.54l2.35-5.07h-4a.75.75,0,0,1-.67-.44l-2.06-4.78H162.41l-2.06,4.78a.75.75,0,0,1-.68.44h-4Z" transform="translate(16.45 30.12)"/><path class="cls-11" d="M185,182.2H164.48a.74.74,0,0,1-.73-.74v-3a.74.74,0,0,1,.73-.74H185a.74.74,0,0,1,.73.74v3A.74.74,0,0,1,185,182.2Zm-19.75-1.47h19v-1.56h-19Z" transform="translate(16.45 30.12)"/><path class="cls-11" d="M166.44,193a.73.73,0,0,1-.74-.73V181.9a.74.74,0,0,1,1.47,0v10.38A.73.73,0,0,1,166.44,193Z" transform="translate(16.45 30.12)"/><path class="cls-11" d="M183,193a.73.73,0,0,1-.73-.73V181.9a.73.73,0,0,1,1.46,0v10.38A.73.73,0,0,1,183,193Z" transform="translate(16.45 30.12)"/><path class="cls-11" d="M166.51,173.11a.73.73,0,0,1-.73-.73v-16a.73.73,0,0,1,1.46,0v16A.73.73,0,0,1,166.51,173.11Z" transform="translate(16.45 30.12)"/><path class="cls-11" d="M183.09,173.11a.73.73,0,0,1-.73-.73v-16a.73.73,0,0,1,1.46,0v16A.73.73,0,0,1,183.09,173.11Z" transform="translate(16.45 30.12)"/><path class="cls-11" d="M174.87,173.11a.73.73,0,0,1-.73-.73v-16a.73.73,0,0,1,1.46,0v16A.73.73,0,0,1,174.87,173.11Z" transform="translate(16.45 30.12)"/><polygon class="cls-12" points="171.88 185.39 151.5 185.39 152.72 194.04 171.88 194.04 171.88 185.39"/><polygon class="cls-12" points="214.81 185.39 214.81 194.04 233.96 194.04 235.19 185.39 214.81 185.39"/><polygon class="cls-12" points="171.88 197.5 153.22 197.5 154.44 206.16 171.88 206.16 171.88 197.5"/><polygon class="cls-12" points="214.81 206.16 232.25 206.16 233.47 197.5 214.81 197.5 214.81 206.16"/><polygon class="cls-12" points="171.88 209.19 154.87 209.19 156.1 217.84 171.88 217.84 171.88 209.19"/><polygon class="cls-12" points="214.81 217.84 230.59 217.84 231.82 209.19 214.81 209.19 214.81 217.84"/><path class="cls-11" d="M153.34,162.94H134.18a.73.73,0,0,1-.72-.63l-1.23-8.65a.72.72,0,0,1,.17-.58.74.74,0,0,1,.55-.26h20.39a.74.74,0,0,1,.73.74v8.65A.73.73,0,0,1,153.34,162.94Zm-18.52-1.46h17.79v-7.19H133.8Z" transform="translate(16.45 30.12)"/><path class="cls-11" d="M215.42,162.94H196.26a.73.73,0,0,1-.73-.73v-8.65a.74.74,0,0,1,.73-.74h20.39a.74.74,0,0,1,.55.26.72.72,0,0,1,.17.58l-1.23,8.65A.73.73,0,0,1,215.42,162.94ZM197,161.48h17.79l1-7.19H197Z" transform="translate(16.45 30.12)"/><path class="cls-11" d="M153.34,175.06H135.9a.73.73,0,0,1-.73-.63L134,165.77a.72.72,0,0,1,.17-.58.73.73,0,0,1,.55-.25h18.67a.73.73,0,0,1,.73.73v8.66A.73.73,0,0,1,153.34,175.06Zm-16.81-1.47h16.08V166.4h-17.1Z" transform="translate(16.45 30.12)"/><path class="cls-11" d="M213.7,175.06H196.26a.73.73,0,0,1-.73-.73v-8.66a.73.73,0,0,1,.73-.73h18.67a.73.73,0,0,1,.55.25.72.72,0,0,1,.17.58l-1.22,8.66A.74.74,0,0,1,213.7,175.06ZM197,173.59h16.08l1-7.19H197Z" transform="translate(16.45 30.12)"/><path class="cls-11" d="M153.34,186.74H137.55a.73.73,0,0,1-.72-.63l-1.23-8.65a.78.78,0,0,1,.17-.59.73.73,0,0,1,.56-.25h17a.73.73,0,0,1,.73.73V186A.73.73,0,0,1,153.34,186.74Zm-15.15-1.46h14.42v-7.19H137.17Z" transform="translate(16.45 30.12)"/><path class="cls-11" d="M212.05,186.74H196.26a.73.73,0,0,1-.73-.73v-8.66a.73.73,0,0,1,.73-.73h17a.71.71,0,0,1,.55.25.75.75,0,0,1,.18.59l-1.23,8.65A.73.73,0,0,1,212.05,186.74ZM197,185.28h14.42l1-7.19H197Z" transform="translate(16.45 30.12)"/><path class="cls-11" d="M211.1,193.45H211a.73.73,0,0,1-.62-.83l6.28-44.3H193.57a.74.74,0,0,1,0-1.47h23.92a.74.74,0,0,1,.73.84l-6.4,45.14A.74.74,0,0,1,211.1,193.45Z" transform="translate(16.45 30.12)"/><path class="cls-11" d="M138.5,193.45a.73.73,0,0,1-.72-.63l-6.4-45.14a.72.72,0,0,1,.17-.58.74.74,0,0,1,.56-.26H156a.74.74,0,0,1,0,1.47H133l6.28,44.3a.73.73,0,0,1-.62.83Z" transform="translate(16.45 30.12)"/><path class="cls-13" d="M117.89,174.8c0-.22,0-.43,0-.65a6.73,6.73,0,0,0-4.62-6.4A5.2,5.2,0,0,0,103,168a6.76,6.76,0,0,0-4.41,6.33,6.63,6.63,0,0,0,.08,1,6.74,6.74,0,0,0,4.06,11.93,6.74,6.74,0,0,0,11.34-.76,6.74,6.74,0,0,0,3.81-11.7Z" transform="translate(16.45 30.12)"/><path class="cls-14" d="M115.88,172.79c0-.21,0-.43,0-.65a6.75,6.75,0,0,0-4.63-6.4A5.2,5.2,0,0,0,101,166a6.74,6.74,0,0,0-4.4,6.33,6.63,6.63,0,0,0,.07,1,6.74,6.74,0,0,0,4.07,11.93,6.74,6.74,0,0,0,11.34-.76,6.75,6.75,0,0,0,3.8-11.71Z" transform="translate(16.45 30.12)"/><line class="cls-15" x1="122.61" y1="223.56" x2="122.61" y2="210.1"/><path class="cls-13" d="M255,174.8c0-.22,0-.43,0-.65a6.73,6.73,0,0,0-4.63-6.4,5.2,5.2,0,0,0-10.29.25,6.75,6.75,0,0,0-4.4,6.33,6.63,6.63,0,0,0,.07,1,6.74,6.74,0,0,0,4.07,11.93,6.74,6.74,0,0,0,11.34-.76,6.74,6.74,0,0,0,3.8-11.7Z" transform="translate(16.45 30.12)"/><path class="cls-14" d="M253,172.79c0-.21,0-.43,0-.65a6.75,6.75,0,0,0-4.62-6.4,5.2,5.2,0,0,0-10.29.26,6.75,6.75,0,0,0-4.41,6.33,6.63,6.63,0,0,0,.08,1,6.74,6.74,0,0,0,4.06,11.93,6.74,6.74,0,0,0,11.34-.76A6.75,6.75,0,0,0,253,172.79Z" transform="translate(16.45 30.12)"/><line class="cls-15" x1="259.71" y1="223.56" x2="259.71" y2="210.1"/><path class="cls-16" d="M31.11,132.74A26,26,0,0,0,34,138.47c3,4.42,5.88,5.7,10.46,10.55a55.06,55.06,0,0,1,5,6.09H57c2.29-2.53,4.18-4.54,5.44-5.86,5.29-5.54,7.53-7.46,10.09-11.4A40.09,40.09,0,0,0,75.19,133Z" transform="translate(16.45 30.12)"/><path class="cls-17" d="M59.3,159.9q-.88-6-1.75-11.92H48.91q-.88,6-1.75,11.92a5.59,5.59,0,0,0,1.23,3.44c2.25,2.66,7.42,2.66,9.68,0A5.65,5.65,0,0,0,59.3,159.9Z" transform="translate(16.45 30.12)"/><path class="cls-17" d="M71.68,126.05a2.44,2.44,0,0,0-1.32.41,21.25,21.25,0,0,0-3.4-8l-.27-.39c-.82-1.12-5.44-7.45-13-7.65-8.14-.21-13.23,6.76-13.88,7.65,0,0-.13.18-.27.39a21.42,21.42,0,0,0-3.4,8,2.44,2.44,0,0,0-1.32-.41c-1.83,0-3.31,2.21-3.31,4.92s1.48,4.92,3.31,4.92a2.31,2.31,0,0,0,.94-.21,25,25,0,0,0,6.35,13c2.19,2.31,6.37,6.71,12,6.35,4.47-.28,7.48-3.4,9.81-5.81a27,27,0,0,0,6.87-13.53,2.34,2.34,0,0,0,.94.21c1.83,0,3.31-2.2,3.31-4.92S73.51,126.05,71.68,126.05Z" transform="translate(16.45 30.12)"/><path class="cls-16" d="M49,120.2a20.54,20.54,0,0,1-1.94,5.55c-2,3.81-4.87,6.31-5.2,6.06s1.66-2.32,1.86-5.75a10.08,10.08,0,0,0-.4-3.42,32.3,32.3,0,0,1-2.84,5.93,33.26,33.26,0,0,1-6.59,7.78c-.4-.43-.8-.89-1.21-1.4-.61-.77-1.13-1.51-1.58-2.21a42.91,42.91,0,0,1,3.68-13.29c1.83-4,3.27-7,6.65-9.6A19.66,19.66,0,0,1,54,106.17a19.32,19.32,0,0,1,11.16,3.5c3.08,2.26,4.4,4.94,7,10.3,2.49,5,3,13.06,3,13.06-.71,1.29-1.41,2.58-2.11,3.87a39.52,39.52,0,0,1-9.21-9.66,38.84,38.84,0,0,1-3.12-5.58,11.75,11.75,0,0,0,1,6.23c.78,1.59,1.83,2.7,1.57,3s-2.27-.81-3.45-1.71c-1.64-1.27-4.32-4-5.62-10.12a17.87,17.87,0,0,1-1.4,4.29,19.43,19.43,0,0,1-3,4.4c-1,1.12-2.57,2.7-2.85,2.49s2-2.68,2.27-6.32A10.17,10.17,0,0,0,49,120.2Z" transform="translate(16.45 30.12)"/><path class="cls-18" d="M53.15,134.33l-3.84,4.74,2.93,2.48" transform="translate(16.45 30.12)"/><path class="cls-19" d="M49.4,147a4.9,4.9,0,0,0,7.52,0" transform="translate(16.45 30.12)"/><path class="cls-20" d="M53.38,209.83l31.39-.17q-4.36-21-8.72-41.92a5.76,5.76,0,0,0-3.06-4l-14.15-7.1c-.13.44-1.57,5.28-5,5.84a4.19,4.19,0,0,1-1.29,0c-3.4-.56-4.84-5.4-5-5.84l-14.16,7.1a5.79,5.79,0,0,0-3.06,4q-4.35,21-8.71,41.92l31.39.17h.3Z" transform="translate(16.45 30.12)"/><path class="cls-16" d="M53.88,106.73c0-.17-3.54-1.06-7.54-.24-.78.16-8.36,1.82-10.82,8.18-1,2.49-.87,4.93-.59,5s.63-4.72,4.17-8.28a16.33,16.33,0,0,1,7.9-4A29.84,29.84,0,0,1,53.88,106.73Z" transform="translate(16.45 30.12)"/><path class="cls-16" d="M55.49,106.22c.06-.2,6.85.48,11.85,5.07a20.49,20.49,0,0,1,3.77,4.94c4,6.41,5,12.94,4.84,13a16.63,16.63,0,0,1-.8-1.94c-1.46-3.54-6.11-14.86-16-19.65C56.94,106.58,55.46,106.31,55.49,106.22Z" transform="translate(16.45 30.12)"/><path class="cls-16" d="M50.73,108.41c-.06-.2-6.85.48-11.85,5.07a21,21,0,0,0-3.77,4.94c-4,6.41-5,12.94-4.84,13a15.51,15.51,0,0,0,.81-1.94c1.45-3.54,6.1-14.86,16-19.64C49.28,108.77,50.76,108.51,50.73,108.41Z" transform="translate(16.45 30.12)"/><path class="cls-17" d="M28.5,182.26A3.8,3.8,0,0,0,31,183.79a3.78,3.78,0,0,0,2.66-1.13c2.88-2.56,2.49-9.24,2.79-21.2.09-3.5.2-5.84-1.5-7.55s-4.68-2.37-6.28-1.2c-1.76,1.28-.69,4-.52,9.7C28.4,172,25.82,179,28.5,182.26Z" transform="translate(16.45 30.12)"/><ellipse class="cls-17" cx="32.06" cy="153.43" rx="5.07" ry="6.63" transform="translate(-107.7 170.67) rotate(-73.48)"/><path class="cls-21" d="M276.39,121.18a18.24,18.24,0,0,0,.1,7.27c2.05,9.25,11.91,17.62,22.3,16.81,11.36-.88,21.16-12.58,19.78-26.54a30,30,0,0,0-42.18,2.46Z" transform="translate(16.45 30.12)"/><path class="cls-22" d="M303,160q-.87-5.94-1.75-11.89h-8.62L290.92,160a5.63,5.63,0,0,0,1.23,3.43c2.25,2.65,7.4,2.65,9.65,0A5.63,5.63,0,0,0,303,160Z" transform="translate(16.45 30.12)"/><path class="cls-22" d="M315.38,126.68a2.37,2.37,0,0,0-1.31.4,21.51,21.51,0,0,0-3.4-8l-.27-.38c-.82-1.13-5.42-7.44-13-7.64-8.12-.2-13.19,6.74-13.84,7.64l-.27.38a21.31,21.31,0,0,0-3.39,8,2.4,2.4,0,0,0-1.31-.4c-1.83,0-3.3,2.19-3.3,4.9s1.47,4.9,3.3,4.9a2.37,2.37,0,0,0,.94-.2c.1,1.77.73,9.45,7,14.81,1.45,1.24,5.49,4.71,11.31,4.48a15.83,15.83,0,0,0,9.7-4.13c6.4-5.4,6.87-13.44,6.94-15.16a2.33,2.33,0,0,0,.94.2c1.82,0,3.3-2.19,3.3-4.9S317.2,126.68,315.38,126.68Z" transform="translate(16.45 30.12)"/><path class="cls-23" d="M296.89,134.52q-1.9,2.37-3.83,4.73l2.93,2.48" transform="translate(16.45 30.12)"/><path class="cls-24" d="M293.15,149.21a4.89,4.89,0,0,0,7.5,0" transform="translate(16.45 30.12)"/><path class="cls-8" d="M297.12,209.83l31.31-.17q-4.35-20.91-8.69-41.82a5.76,5.76,0,0,0-3.05-4l-14.12-7.08c-.13.44-1.56,5.26-5,5.82a3.83,3.83,0,0,1-1.28,0c-3.39-.56-4.83-5.38-4.95-5.82l-14.12,7.08a5.73,5.73,0,0,0-3.05,4l-8.7,41.82,31.31.17h.3Z" transform="translate(16.45 30.12)"/><circle class="cls-25" cx="305.87" cy="163.4" r="4.77"/><circle class="cls-25" cx="320.97" cy="163.4" r="4.77"/><path class="cls-25" d="M294.29,133.29A12.44,12.44,0,0,1,297,133a12.3,12.3,0,0,1,2.58.32" transform="translate(16.45 30.12)"/><path class="cls-17" d="M323.21,180.63a3.13,3.13,0,0,1-5.12.4c-2.89-2.55-2.5-9.23-2.8-21.19-.09-3.51-.2-5.85,1.5-7.55s4.68-2.37,6.28-1.2c1.76,1.28.69,4,.53,9.7C323.31,170.36,325.89,177.39,323.21,180.63Z" transform="translate(16.45 30.12)"/><ellipse class="cls-17" cx="319.65" cy="151.81" rx="6.63" ry="5.07" transform="matrix(0.96, -0.28, 0.28, 0.96, -13.52, 127.25)"/><path class="cls-21" d="M318.41,113a6.89,6.89,0,0,0-2.28-2.48,11.37,11.37,0,0,0-2.31-1.2,34.1,34.1,0,0,0-6.2-1.66,20.81,20.81,0,0,0-5.47-3.46,22.11,22.11,0,0,0-14.2-.82c-2.95.73-10.28,2.57-12,7.65a19,19,0,0,0-.48,6.33,31.31,31.31,0,0,0,.81,6.17l.77.32a30.06,30.06,0,0,0,11.6-1.24,76.3,76.3,0,0,0,14.75-6.86,23.49,23.49,0,0,1,13.47,8.1l1.61-.88a23.63,23.63,0,0,0,.65-5.1C319.18,115.76,319.19,114.41,318.41,113Z" transform="translate(16.45 30.12)"/><path class="cls-10" d="M314.32-2.94a2.48,2.48,0,0,0-.59-.17c-1.23-.09-2.46-.14-3.69-.22-.5,0-1-.1-1.48-.14a22.18,22.18,0,0,0-4.23.29,12.6,12.6,0,0,0-3.91,1,3.21,3.21,0,0,0-2,2.22,2.34,2.34,0,0,0,.46,1.74A5.36,5.36,0,0,0,302,4.08a17.94,17.94,0,0,0,4.61.77c1.87.08,3.73.17,5.6.21,2.86.06,5.73.16,8.59.08a25.46,25.46,0,0,0,6.94-1.09,16.07,16.07,0,0,0,2.68-1.19,4.88,4.88,0,0,0,2.25-3c.09-.27.16-.55.23-.82.4-1.56-.45-2.75-1.42-3.86a9,9,0,0,0-4.74-2.49c-1.26-.34-2.54-.59-3.82-.87a11.13,11.13,0,0,0-1.41-.2c-1.2-.1-2.4-.12-3.59-.28A45.94,45.94,0,0,0,312-9c-2.76,0-5.52-.11-8.27-.19a5.68,5.68,0,0,1-.92-.14v-.14c.34-.08.69-.18,1-.24A18.15,18.15,0,0,0,310-12.08a12.93,12.93,0,0,0,4.84-4.58A6,6,0,0,0,313.7-24a14.38,14.38,0,0,0-6.31-3.61c-1.91-.55-3.84-1.08-5.8-1.44a55,55,0,0,0-5.59-.66c-2.05-.18-4.11-.26-6.16-.36a4.08,4.08,0,0,0-.77.07l0,.2a7.47,7.47,0,0,0,.91.21c1.51.1,3,.15,4.52.28,1.22.11,2.43.31,3.65.48,1,.14,2.06.27,3.09.45s2.3.41,3.42.71a37.77,37.77,0,0,1,4,1.21,10.83,10.83,0,0,1,5.67,4.2,5,5,0,0,1,.6,4A8.82,8.82,0,0,1,311-13.39a22.3,22.3,0,0,1-3.85,2.15,17.17,17.17,0,0,1-3.69,1.06c-1.82.33-3.68.52-5.52.74a6.45,6.45,0,0,1-1.51-.07c.33-.09.67-.2,1-.27a29.06,29.06,0,0,0,6.85-2.36,14.93,14.93,0,0,0,4.82-3.61,6.35,6.35,0,0,0,1.62-3.43c.22-1.72-.64-2.85-1.9-3.87a18.36,18.36,0,0,0-7.14-3.47c-1.44-.37-2.89-.7-4.36-.95-1.92-.31-3.85-.54-5.78-.76s-3.95-.38-5.92-.57c-.42,0-.85-.12-1.27-.14a1.24,1.24,0,0,0-.62.17c1.59.54,3.29.47,4.92.88l-1.07.08,0,.14a1.69,1.69,0,0,0,.38.19c.79.13,1.59.22,2.37.35,1.44.25,2.88.5,4.32.77a20.82,20.82,0,0,1,4.79,1.56,17.07,17.07,0,0,1,2.31,1.33,3.81,3.81,0,0,1,1.77,3A7.3,7.3,0,0,1,302-14.9a11.06,11.06,0,0,1-3,2.45,25,25,0,0,1-6.65,2.68c-1,.25-2.11.35-3.15.58a13.58,13.58,0,0,1-2.85,0l-9.47.22c-1.92,0-3.84.08-5.76.17-1.69.09-3.38.2-5.06.38s-3.32.41-5,.73a34.84,34.84,0,0,0-10.35,3.43,14.11,14.11,0,0,0-3.92,3.1,4.54,4.54,0,0,0,.24,5.58,8.17,8.17,0,0,0,4.2,2.47c1.64.5,3.32.91,5,1.27,1.38.29,2.79.44,4.19.66l4.23.67,1.52.2c.76.08,1.53.15,2.3.21,6.38.55,12.78.44,19.18.42,1.7,0,3.4,0,5.1,0s3.67.08,5.5.21q3,.2,6.07.56c1.74.2,3.48.44,5.21.76a22.43,22.43,0,0,1,5.66,1.51,9.15,9.15,0,0,1,1.46.91,1.79,1.79,0,0,1,.24,2.75,9.75,9.75,0,0,1-3.72,2.76,25,25,0,0,1-5.28,1.9,22.18,22.18,0,0,1-4.68.47c-2.86.06-5.73.16-8.59.18-2.66,0-5.32-.05-8-.08-2.42,0-4.84-.12-7.25-.07a28.32,28.32,0,0,0-5.95.66c-1.79.44-3.61.8-5.35,1.38a11.83,11.83,0,0,0-5.08,3,5.79,5.79,0,0,0-1.58,5.09,4.32,4.32,0,0,0,.9,1.72,8,8,0,0,0,4.22,2.7A45.34,45.34,0,0,0,272.84,38a78.82,78.82,0,0,0,13,.48c.84,0,1.69,0,2.52,0,1.86-.13,3.71-.3,5.56-.46a12.49,12.49,0,0,0,3.92-1,10.27,10.27,0,0,0,3.47-2.34,2.41,2.41,0,0,0,.41-2.94,7,7,0,0,0-3.3-2.87,14.3,14.3,0,0,0-5.94-1.54c-2.62-.15-5.23-.25-7.85-.37-.5,0-1-.09-1.49-.1a13.73,13.73,0,0,0-4.6.5,3,3,0,0,0-1.76,1.26,1.67,1.67,0,0,0,1.1,2.65c1.27.3,2.58.45,3.87.63a7.78,7.78,0,0,0,1.59.11c1.24-.07,2.49-.19,3.72-.32a.71.71,0,0,0,.43-1.14c-.12-.11-.42-.06-.65-.09l0,.68a10.06,10.06,0,0,1-1.36.18,37.24,37.24,0,0,1-3.81,0,26,26,0,0,1-3.62-.59,1.12,1.12,0,0,1-.53-2,4.54,4.54,0,0,1,1.94-1,18.25,18.25,0,0,1,3.47-.25c2.16,0,4.33,0,6.47.24a10.86,10.86,0,0,1,4.8,1.31A4.88,4.88,0,0,1,296,30.76a4,4,0,0,1-.48,4.1,6.59,6.59,0,0,1-4.19,2.68,18.64,18.64,0,0,1-3.5.36c-2.3.06-4.6.09-6.9,0-2.46-.1-4.92-.3-7.36-.57-1.93-.22-3.85-.55-5.74-1A8.9,8.9,0,0,1,263.2,34a3.94,3.94,0,0,1-.86-4.46c.8-2.27,2.73-3.49,5-4.34a41.16,41.16,0,0,1,5.33-1.67,25.94,25.94,0,0,1,5-.66c3.93-.11,7.86-.11,11.78-.11s8.1.07,12.15.07c1.42,0,2.84-.09,4.26-.2,1.91-.14,3.82-.27,5.71-.54,1.73-.26,3.42-.69,5.12-1.06a18.38,18.38,0,0,0,5.61-2.17A4.74,4.74,0,0,0,324,17.31a2.42,2.42,0,0,0-.19-2.52,4.21,4.21,0,0,0-3-2.12c-1.78-.46-3.59-.87-5.41-1.16-2.05-.34-4.12-.56-6.18-.78s-4.09-.43-6.13-.56c-2.93-.18-5.85-.32-8.78-.39-4.05-.1-8.1-.09-12.15-.16a36.1,36.1,0,0,1-4.66-.26c-1.63-.23-3.22-.69-4.82-1a27.74,27.74,0,0,1-5.6-2,6.13,6.13,0,0,1-3.49-3.15,4.56,4.56,0,0,1,0-3.55C264.64-3,266.83-4.67,269.41-6a16.54,16.54,0,0,1,4.89-1.56c1.71-.28,3.43-.58,5.15-.78,1.24-.15,2.49-.18,3.74-.21,3.44-.08,6.89-.13,10.34-.19,2.21,0,4.42-.14,6.63-.1,3.63.07,7.26.22,10.89.35,1.63.06,3.26.06,4.88.23A29.47,29.47,0,0,1,322.32-7a9.55,9.55,0,0,1,4.05,2.31,4.09,4.09,0,0,1,.45,5.39,10,10,0,0,1-5.47,3.78,7.46,7.46,0,0,1-2.06.26c-2.87,0-5.74,0-8.6-.1A15.77,15.77,0,0,1,306,3.9a5.55,5.55,0,0,1-3.05-2.23,2.29,2.29,0,0,1,.81-3.21,11,11,0,0,1,2.07-1.08,3.89,3.89,0,0,1,1.45-.19c1.68,0,3.36.13,5,.2.48,0,1,0,1.44,0a3.29,3.29,0,0,0,.6-.15ZM272.77,9.19a2.31,2.31,0,0,1-.37,0c-1-.07-2-.09-3-.23-1.8-.26-3.61-.52-5.39-.9s-3.47-.86-5.17-1.39a11.89,11.89,0,0,1-5.41-3.61A2.45,2.45,0,0,1,253,1.94a3.32,3.32,0,0,1,.91-2.8,12.71,12.71,0,0,1,4.22-3.23,34.09,34.09,0,0,1,8.27-2.82c1.76-.4,3.55-.65,5.33-1a7.93,7.93,0,0,1,1.09,0,26.44,26.44,0,0,0-4.78,2c-2.29,1.39-4.2,3.07-5.08,5.53a5.1,5.1,0,0,0,.07,3.8,6.52,6.52,0,0,0,3.34,3.24A47.36,47.36,0,0,0,272.77,9.19ZM260.71,8l0,.13L259,7.89c-1.19-.2-2.4-.35-3.57-.63-1.55-.37-3.07-.83-4.59-1.27a5.83,5.83,0,0,1-3.27-2.08,3.62,3.62,0,0,1-.44-4.25,7.29,7.29,0,0,1,2.29-2.23,26.61,26.61,0,0,1,9.51-4c1.36-.31,2.73-.59,4.11-.81,1.56-.24,3.15-.39,4.73-.57a2.78,2.78,0,0,1,.59,0c-.14.1-.17.14-.22.15-1.45.33-2.93.58-4.36,1A35.24,35.24,0,0,0,259-5a20.31,20.31,0,0,0-4,2.36C253.34-1.46,252,0,252.37,2.18a2.88,2.88,0,0,0,.56,1.32,12.75,12.75,0,0,0,6.18,4Zm34.46-35v-.1a2.69,2.69,0,0,1,.49,0,40.7,40.7,0,0,1,6.28,1.3,20.28,20.28,0,0,1,6.74,3.43c1.79,1.37,1.78,3.1,1,4.8a8.71,8.71,0,0,1-2.56,3,19.47,19.47,0,0,1-6.59,3.43c-2.09.64-4.25,1.08-6.38,1.6-.07,0-.17-.06-.26-.09a.72.72,0,0,1,.14-.13c1.3-.53,2.64-1,3.91-1.58a12.34,12.34,0,0,0,4.63-3.41,7.37,7.37,0,0,0,1.58-4.51,5,5,0,0,0-1.52-4.33,14.18,14.18,0,0,0-4.79-2.55C297-26.43,296.06-26.7,295.17-27Zm18.58,39.11v-.07a3.38,3.38,0,0,1,.45,0,36.67,36.67,0,0,1,6.73,1.36,3.71,3.71,0,0,1,2.6,2.36,1.44,1.44,0,0,1-.25,1.42,3.66,3.66,0,0,1-.95.89,16,16,0,0,1-5.06,2.19c-1.91.42-3.81.85-5.71,1.25a6.71,6.71,0,0,1-1.1.08v-.13c.84-.35,1.7-.68,2.52-1.05a11,11,0,0,0,4.35-3.05,2.3,2.3,0,0,0,.3-2.86,4.76,4.76,0,0,0-1.56-1.3C315.34,12.79,314.52,12.49,313.75,12.13ZM323,4.47c.92-.63,1.89-1.21,2.74-1.91A6.18,6.18,0,0,0,328-.58a4.54,4.54,0,0,0-1.63-4.83,21.48,21.48,0,0,0-2.78-1.7c-.08,0-.15-.11-.26-.17.09-.06.12-.09.14-.09a37.89,37.89,0,0,1,3.86.87A13.12,13.12,0,0,1,330.37-5a4.69,4.69,0,0,1,2,2.87,4.33,4.33,0,0,1-.53,2.7,5.21,5.21,0,0,1-3.47,2.74c-1.22.4-2.49.66-3.75.94C324,4.37,323.48,4.41,323,4.47ZM294.47,28.25v-.13c.64.16,1.3.3,1.94.49a10.1,10.1,0,0,1,4.24,2.47,2.21,2.21,0,0,1,0,3.46c-2.16,2.05-4.89,2.81-8,3.12l.54-.3c2.42-1.27,3.86-3,3.66-5.74a2.71,2.71,0,0,0-.77-1.84C295.59,29.25,295,28.76,294.47,28.25Zm11-24.07-.05.16c-.8-.15-1.61-.27-2.4-.46A5.75,5.75,0,0,1,299.63,2c-.54-.71-1-1.47-.49-2.36A3.29,3.29,0,0,1,301-1.8c.56-.2,1.12-.37,1.7-.52s.94-.19,1.41-.28l0,.15-.68.47a2.82,2.82,0,0,0-.82,4A6.29,6.29,0,0,0,305.49,4.18Z" transform="translate(16.45 30.12)"/><path class="cls-10" d="M.79,20.92a2.61,2.61,0,0,0,.55.14c.44,0,.88,0,1.32,0,1.55-.06,3.09-.14,4.64-.18A3.51,3.51,0,0,1,8.64,21a11.1,11.1,0,0,1,1.9,1,2.11,2.11,0,0,1,.75,3,5.12,5.12,0,0,1-2.81,2.05,15,15,0,0,1-4.35.67c-2.64.12-5.28.09-7.92.09a7.12,7.12,0,0,1-1.9-.23,9.3,9.3,0,0,1-5-3.48,3.77,3.77,0,0,1,.42-5A8.79,8.79,0,0,1-6.59,17,27,27,0,0,1-.7,15.87c1.49-.15,3-.16,4.5-.21,3.34-.12,6.69-.26,10-.32,2,0,4.07.05,6.11.09,3.17.06,6.35.1,9.52.17,1.15,0,2.31.06,3.45.19,1.58.19,3.16.46,4.74.72A15.19,15.19,0,0,1,42.15,18c2.38,1.21,4.4,2.76,5.37,5.2a4.26,4.26,0,0,1,0,3.27,5.72,5.72,0,0,1-3.22,2.9,26.05,26.05,0,0,1-5.16,1.8c-1.47.33-2.94.75-4.43,1a34.33,34.33,0,0,1-4.3.24c-3.73.07-7.46.06-11.19.14-2.7.07-5.39.2-8.09.37-1.88.12-3.76.31-5.64.51s-3.81.41-5.7.72c-1.67.27-3.34.64-5,1.07a3.9,3.9,0,0,0-2.73,1.95A2.23,2.23,0,0,0-8.1,39.4a4.33,4.33,0,0,0,1.6,1.43,17,17,0,0,0,5.17,2c1.57.34,3.13.74,4.71,1,1.74.26,3.51.37,5.26.51,1.31.09,2.62.17,3.93.17,3.73,0,7.46-.06,11.19-.06s7.23,0,10.85.11a23.25,23.25,0,0,1,4.56.6,39.54,39.54,0,0,1,4.92,1.54c2.06.78,3.84,1.9,4.58,4a3.64,3.64,0,0,1-.8,4.11A8.24,8.24,0,0,1,43.58,57a52.37,52.37,0,0,1-5.28.88c-2.25.25-4.52.43-6.78.52s-4.24.06-6.36,0A17.24,17.24,0,0,1,21.94,58a6.06,6.06,0,0,1-3.86-2.47,3.64,3.64,0,0,1-.44-3.78,4.4,4.4,0,0,1,1.69-1.62A9.93,9.93,0,0,1,23.75,49c2-.19,4-.21,6-.23a17.05,17.05,0,0,1,3.2.23,4.3,4.3,0,0,1,1.79.88,1,1,0,0,1-.5,1.85,23.34,23.34,0,0,1-3.33.54,34.24,34.24,0,0,1-3.51,0,10.49,10.49,0,0,1-1.25-.16l0-.63c-.21,0-.48,0-.6.08a.66.66,0,0,0,.4,1.06c1.14.11,2.28.22,3.42.29a8.08,8.08,0,0,0,1.47-.1c1.19-.17,2.4-.31,3.56-.58a1.54,1.54,0,0,0,1-2.44,2.83,2.83,0,0,0-1.62-1.17,12.63,12.63,0,0,0-4.24-.46c-.46,0-.92.07-1.37.09-2.41.12-4.82.21-7.23.35A13.1,13.1,0,0,0,15.4,50a6.42,6.42,0,0,0-3,2.64,2.22,2.22,0,0,0,.38,2.71,9.26,9.26,0,0,0,3.19,2.15,11.7,11.7,0,0,0,3.61.92c1.7.14,3.41.3,5.12.42.77,0,1.55,0,2.32,0a72.88,72.88,0,0,0,12-.45,41.21,41.21,0,0,0,5.76-1.09,7.41,7.41,0,0,0,3.89-2.49,3.87,3.87,0,0,0,.82-1.58A5.28,5.28,0,0,0,48,48.57a10.73,10.73,0,0,0-4.68-2.75c-1.6-.54-3.28-.88-4.93-1.28a25.75,25.75,0,0,0-5.47-.6c-2.23,0-4.46,0-6.68.06-2.45,0-4.91.09-7.36.07-2.63,0-5.27-.11-7.91-.17a20.72,20.72,0,0,1-4.31-.42,23.5,23.5,0,0,1-4.86-1.76,9,9,0,0,1-3.43-2.54,1.66,1.66,0,0,1,.22-2.54A8.43,8.43,0,0,1,0,35.81a20.63,20.63,0,0,1,5.22-1.39c1.58-.29,3.19-.52,4.79-.7,1.86-.22,3.73-.4,5.6-.52,1.68-.11,3.37-.15,5.06-.19s3.13,0,4.69,0c5.9,0,11.8.11,17.68-.39l2.11-.2c.47,0,.94-.12,1.4-.19l3.9-.61c1.29-.2,2.59-.34,3.86-.61,1.55-.33,3.1-.71,4.61-1.17a7.45,7.45,0,0,0,3.87-2.28A4.18,4.18,0,0,0,63,22.41a13.23,13.23,0,0,0-3.61-2.85,32.17,32.17,0,0,0-9.54-3.16c-1.5-.29-3-.5-4.56-.67s-3.11-.27-4.66-.35c-1.77-.08-3.54-.11-5.31-.16L26.56,15a12.86,12.86,0,0,1-2.63,0c-.95-.21-1.94-.3-2.89-.53A22.91,22.91,0,0,1,14.91,12a10.18,10.18,0,0,1-2.78-2.26,6.68,6.68,0,0,1-1.38-5.09,3.5,3.5,0,0,1,1.64-2.8A14,14,0,0,1,14.52.62a19.09,19.09,0,0,1,4.4-1.45c1.33-.24,2.65-.48,4-.7.73-.12,1.46-.21,2.19-.33A1.2,1.2,0,0,0,25.43-2l0-.13-1-.07c1.5-.38,3.07-.31,4.54-.81a1.06,1.06,0,0,0-.58-.16c-.39,0-.78.09-1.17.13-1.81.17-3.63.32-5.45.52s-3.56.42-5.32.71c-1.35.22-2.69.53-4,.87A16.85,16.85,0,0,0,5.84,2.22,3.82,3.82,0,0,0,4.08,5.79,5.86,5.86,0,0,0,5.57,9,14,14,0,0,0,10,12.28a26.68,26.68,0,0,0,6.32,2.17c.31.07.62.17.93.25a5.46,5.46,0,0,1-1.39.06c-1.7-.2-3.41-.38-5.09-.68a15.52,15.52,0,0,1-3.39-1,20.82,20.82,0,0,1-3.55-2A8.09,8.09,0,0,1,.28,6.57,4.55,4.55,0,0,1,.83,2.92,10,10,0,0,1,6.06-1,37.34,37.34,0,0,1,9.7-2.07c1-.27,2.1-.47,3.16-.65S14.75-3,15.7-3.13c1.12-.16,2.24-.35,3.36-.45,1.39-.12,2.78-.16,4.16-.26A4.86,4.86,0,0,0,24.06-4l0-.19a5.51,5.51,0,0,0-.7-.06c-1.9.1-3.79.17-5.67.33s-3.46.3-5.16.61S8.93-2.52,7.17-2A13.11,13.11,0,0,0,1.36,1.32a5.57,5.57,0,0,0-1,6.8,12,12,0,0,0,4.47,4.22,16.67,16.67,0,0,0,5.68,2.13c.32.06.64.15,1,.23v.13a6,6,0,0,1-.85.13C8,15,5.49,15.11,3,15.13a42.24,42.24,0,0,0-5.51.34c-1.09.15-2.2.17-3.3.26a8,8,0,0,0-1.3.19c-1.18.25-2.36.49-3.52.79A8.39,8.39,0,0,0-15,19c-.89,1-1.67,2.12-1.3,3.55a7.17,7.17,0,0,0,.21.76,4.52,4.52,0,0,0,2.07,2.77,14,14,0,0,0,2.47,1.1,23.48,23.48,0,0,0,6.39,1c2.64.08,5.28,0,7.91-.07,1.72,0,3.44-.13,5.16-.2a16.5,16.5,0,0,0,4.25-.7A5,5,0,0,0,15,25.12a2.2,2.2,0,0,0,.42-1.61,3,3,0,0,0-1.86-2,11.82,11.82,0,0,0-3.6-.95,21.19,21.19,0,0,0-3.9-.26c-.45,0-.9.1-1.36.13-1.13.07-2.27.12-3.4.2a2.21,2.21,0,0,0-.54.16ZM45,29.68a6,6,0,0,0,3.08-3,4.71,4.71,0,0,0,.06-3.5,10.18,10.18,0,0,0-4.67-5.1A25.78,25.78,0,0,0,39,16.21a6.68,6.68,0,0,1,1,0c1.64.27,3.29.5,4.9.88a31,31,0,0,1,7.62,2.59,11.82,11.82,0,0,1,3.89,3,3,3,0,0,1,.84,2.57,2.37,2.37,0,0,1-.44,1.07,10.92,10.92,0,0,1-5,3.32c-1.56.48-3.15.93-4.76,1.28s-3.3.59-5,.83c-.91.12-1.83.15-2.74.21a2,2,0,0,1-.34,0A43.49,43.49,0,0,0,45,29.68Zm6.68.69a11.66,11.66,0,0,0,5.69-3.69,2.57,2.57,0,0,0,.52-1.22c.32-2-.89-3.35-2.37-4.48a18.34,18.34,0,0,0-3.69-2.17,32.87,32.87,0,0,0-4.41-1.55c-1.32-.39-2.68-.62-4-.92,0,0-.07-.05-.2-.14a2.41,2.41,0,0,1,.55-.05c1.45.17,2.91.31,4.35.53,1.27.2,2.53.45,3.78.74a24.5,24.5,0,0,1,8.77,3.67,6.86,6.86,0,0,1,2.1,2.05,3.36,3.36,0,0,1-.4,3.92,5.4,5.4,0,0,1-3,1.91c-1.4.41-2.81.83-4.23,1.17-1.08.26-2.19.4-3.29.59-.52.09-1,.16-1.57.24l0-.12ZM16-.61a12.93,12.93,0,0,0-4.41,2.35,4.6,4.6,0,0,0-1.41,4,6.83,6.83,0,0,0,1.46,4.15A11.33,11.33,0,0,0,15.87,13c1.18.54,2.4,1,3.61,1.46,0,0,.06.06.12.11s-.17.11-.23.09c-2-.48-4-.88-5.88-1.48a18,18,0,0,1-6.08-3.15A8,8,0,0,1,5.06,7.27C4.35,5.7,4.33,4.11,6,2.84A18.78,18.78,0,0,1,12.19-.31,36.74,36.74,0,0,1,18-1.51a2.3,2.3,0,0,1,.45,0v.1C17.61-1.13,16.78-.89,16-.61ZM-.82,35.64a4.3,4.3,0,0,0-1.43,1.19A2.14,2.14,0,0,0-2,39.47a10.34,10.34,0,0,0,4,2.81c.76.34,1.54.64,2.32,1v.12a6.86,6.86,0,0,1-1-.07c-1.75-.37-3.5-.77-5.26-1.15a14.59,14.59,0,0,1-4.66-2,3.44,3.44,0,0,1-.88-.82A1.33,1.33,0,0,1-7.69,38,3.38,3.38,0,0,1-5.3,35.82,34.26,34.26,0,0,1,.9,34.56c.14,0,.28,0,.42,0v.07A23.06,23.06,0,0,0-.82,35.64Zm-7.85-8.27c-1.15-.26-2.33-.49-3.44-.86A4.79,4.79,0,0,1-15.31,24a4,4,0,0,1-.5-2.48A4.37,4.37,0,0,1-14,18.85a12,12,0,0,1,2.83-1.38,32.06,32.06,0,0,1,3.55-.8s.05,0,.13.08a2.29,2.29,0,0,1-.24.15,18.9,18.9,0,0,0-2.56,1.58,4.19,4.19,0,0,0-1.5,4.44,5.78,5.78,0,0,0,2.06,2.9C-8.94,26.46-8,27-7.2,27.57A11.72,11.72,0,0,1-8.67,27.37ZM17.55,50.88a2.52,2.52,0,0,0-.72,1.7c-.18,2.48,1.15,4.12,3.37,5.29l.5.28c-2.85-.29-5.36-1-7.35-2.88a2,2,0,0,1,0-3.18,9.16,9.16,0,0,1,3.91-2.28c.58-.18,1.19-.3,1.78-.45v.12C18.56,49.94,18,50.4,17.55,50.88Zm-6-25.52a2.6,2.6,0,0,0-.75-3.72l-.63-.44,0-.14c.43.09.87.15,1.3.26s1.05.29,1.56.48a3,3,0,0,1,1.67,1.32c.46.82.05,1.52-.45,2.17A5.32,5.32,0,0,1,11.17,27c-.72.18-1.47.29-2.2.42l-.05-.14A5.81,5.81,0,0,0,11.58,25.36Z" transform="translate(16.45 30.12)"/><path class="cls-26" d="M117.77,87.89l3.53-3.11c1.49-1.33,2-2.08,2-3a1.86,1.86,0,0,0-2-1.86,3.11,3.11,0,0,0-2.61,1.67L118,81a3.85,3.85,0,0,1,3.49-2.07,2.81,2.81,0,0,1,3,2.75v0c0,1.42-.75,2.29-2.46,3.78l-2.6,2.3h5.15v1h-6.79Z" transform="translate(16.45 30.12)"/><path class="cls-26" d="M127.67,83.91v0c0-2.72,1.63-5,4.13-5s4.08,2.27,4.08,5v0c0,2.72-1.61,5-4.11,5S127.67,86.63,127.67,83.91Zm7.07,0v0c0-2.12-1.17-4-3-4s-3,1.86-3,4v0c0,2.13,1.17,4,3,4S134.74,86,134.74,83.91Z" transform="translate(16.45 30.12)"/><path class="cls-26" d="M138.79,87.89l3.53-3.11c1.48-1.33,2-2.08,2-3a1.85,1.85,0,0,0-2-1.86,3.1,3.1,0,0,0-2.61,1.67L139,81a3.86,3.86,0,0,1,3.5-2.07,2.8,2.8,0,0,1,3,2.75v0c0,1.42-.75,2.29-2.45,3.78l-2.6,2.3h5.15v1h-6.79Z" transform="translate(16.45 30.12)"/><path class="cls-26" d="M148.69,83.91v0c0-2.72,1.62-5,4.12-5s4.08,2.27,4.08,5v0c0,2.72-1.61,5-4.11,5S148.69,86.63,148.69,83.91Zm7.07,0v0c0-2.12-1.17-4-3-4s-2.95,1.86-2.95,4v0c0,2.13,1.16,4,3,4S155.76,86,155.76,83.91Z" transform="translate(16.45 30.12)"/><path class="cls-26" d="M177.26,83.85v-.19a3.13,3.13,0,0,1-2.75,1.54,3.09,3.09,0,0,1-3.39-3v0a3.3,3.3,0,0,1,3.5-3.3,3.44,3.44,0,0,1,2.56,1,4.93,4.93,0,0,1,1.2,3.76v0c0,3.08-1.64,5.26-4,5.26a4.52,4.52,0,0,1-3-1.2l.64-.84a3.54,3.54,0,0,0,2.39,1C176.24,87.91,177.26,86,177.26,83.85Zm-.21-1.79v0a2.28,2.28,0,0,0-2.47-2.2,2.23,2.23,0,0,0-2.33,2.27v0a2.17,2.17,0,0,0,2.38,2.13A2.29,2.29,0,0,0,177.05,82.06Z" transform="translate(16.45 30.12)"/><path class="cls-26" d="M186.77,77.66h1l-6.44,12.86h-1Z" transform="translate(16.45 30.12)"/><path class="cls-26" d="M191.54,80.09l-1.83.57-.26-.89,2.37-.82h.81v9.79h-1.09Z" transform="translate(16.45 30.12)"/><path class="cls-26" d="M196.08,87.89l3.53-3.11c1.48-1.33,2-2.08,2-3a1.85,1.85,0,0,0-1.95-1.86,3.1,3.1,0,0,0-2.61,1.67l-.81-.59a3.86,3.86,0,0,1,3.5-2.07,2.8,2.8,0,0,1,3,2.75v0c0,1.42-.75,2.29-2.45,3.78l-2.6,2.3h5.15v1h-6.79Z" transform="translate(16.45 30.12)"/><path class="cls-26" d="M211.2,84.41a3.9,3.9,0,0,1,2.3-3.57l.44.68a3.27,3.27,0,0,0,0,5.78l-.44.67A3.9,3.9,0,0,1,211.2,84.41Z" transform="translate(16.45 30.12)"/><path class="cls-26" d="M221.82,86.42h3.34v.76h-7.45v-.76H221V83.27h-2.75v-.76H221v-2.6h.82v2.6h2.79v.76h-2.79Z" transform="translate(16.45 30.12)"/><path class="cls-26" d="M228.9,87.3a3.27,3.27,0,0,0,0-5.78l.44-.68a3.91,3.91,0,0,1,0,7.13Z" transform="translate(16.45 30.12)"/><path class="cls-26" d="M137.9,98.53v.72h-3.07v2.9h-.75v-2.9H131v-.72h3.06V96.75H132.6a5.81,5.81,0,0,1-.95,1.4,4,4,0,0,0-.66-.44,5.09,5.09,0,0,0,.87-1.18A7.45,7.45,0,0,0,132.5,95l.75.17c-.09.28-.19.56-.31.85h4.35v.71h-2.46v1.78Z" transform="translate(16.45 30.12)"/><path class="cls-26" d="M144.72,96.22h1.7v.66h-6.9v-.66h1.77a4,4,0,0,0-.64-1l.67-.24a3.76,3.76,0,0,1,.74,1l-.39.15h2.23a5.68,5.68,0,0,0,.68-1.21l.78.24C145.06,95.73,144.84,96.05,144.72,96.22Zm-1.85,1.27v3.9a1,1,0,0,1-.06.39.43.43,0,0,1-.23.21,2.84,2.84,0,0,1-1.08.13,2.66,2.66,0,0,0-.23-.62,7,7,0,0,0,.77,0c.1,0,.15-.05.15-.14v-.87h-1.54v1.61H140V97.49Zm-.68.61h-1.54v.64h1.54ZM140.65,100h1.54v-.66h-1.54Zm3.71-2.39v3.15h-.67V97.56Zm.87,3.74v-4h.71v4a1,1,0,0,1-.07.44.45.45,0,0,1-.28.24,3.28,3.28,0,0,1-1.23.13,2.6,2.6,0,0,0-.25-.68c.47,0,.79,0,1,0A.14.14,0,0,0,145.23,101.3Z" transform="translate(16.45 30.12)"/><path class="cls-26" d="M150.84,99.23a.9.9,0,0,1-.26-.64.88.88,0,0,1,.26-.63.85.85,0,0,1,.64-.27.9.9,0,0,1,.9.9.89.89,0,0,1-.9.9A.88.88,0,0,1,150.84,99.23Z" transform="translate(16.45 30.12)"/><path class="cls-26" d="M163.44,98.53v.72h-3.07v2.9h-.74v-2.9h-3.07v-.72h3.07V96.75h-1.48a6.11,6.11,0,0,1-1,1.4,3.69,3.69,0,0,0-.67-.44,5.11,5.11,0,0,0,.88-1.18,7.45,7.45,0,0,0,.64-1.51l.75.17c-.09.28-.19.56-.31.85h4.35v.71h-2.47v1.78Z" transform="translate(16.45 30.12)"/><path class="cls-26" d="M166.64,96.64l.64.23a9.94,9.94,0,0,1-.63,1v4.32H166V98.64a8.15,8.15,0,0,1-.76.72,3,3,0,0,0-.39-.66,6.18,6.18,0,0,0,1-.93A6.7,6.7,0,0,0,166.64,96.64Zm-.16-1.6.65.25a7.54,7.54,0,0,1-.85,1,6.15,6.15,0,0,1-1,.84,4.23,4.23,0,0,0-.38-.51,6.68,6.68,0,0,0,.89-.75A4.29,4.29,0,0,0,166.48,95ZM171,99l.43.21a4,4,0,0,1-1.25,1.66,6.74,6.74,0,0,0,2,.68,2.36,2.36,0,0,0-.43.62,6.54,6.54,0,0,1-2.18-.89,7.67,7.67,0,0,1-2.3.9,1.72,1.72,0,0,0-.35-.61,6.81,6.81,0,0,0,2.08-.71,5,5,0,0,1-.77-.85,6.47,6.47,0,0,1-.82.6,1.84,1.84,0,0,0-.48-.54,4.81,4.81,0,0,0,1.84-1.56l-1.67,0L167,97.9l1.19,0,.44-.38a7.4,7.4,0,0,0-1.42-1.15l.43-.47.21.13.24.16A8.05,8.05,0,0,0,169,95l.62.33c-.43.51-.79.9-1.07,1.17a4.62,4.62,0,0,1,.59.51,15,15,0,0,0,1.32-1.42l.64.35a23.24,23.24,0,0,1-2,1.91l1.76,0c-.17-.23-.33-.43-.49-.61l.57-.3a7.22,7.22,0,0,1,1.22,1.67l-.6.35c-.06-.13-.16-.31-.3-.55l-1.72.06a5.59,5.59,0,0,1-.38.56h1.66Zm-2.26.58,0,0a4.14,4.14,0,0,0,.88.9,3.37,3.37,0,0,0,.89-.92Z" transform="translate(16.45 30.12)"/><path class="cls-26" d="M177.32,101.79l-.46-.73a4.48,4.48,0,0,0,.69-.11,2.58,2.58,0,0,0,1.33-.74,2,2,0,0,0,.52-1.44,2.15,2.15,0,0,0-.49-1.44,2,2,0,0,0-1.35-.69,16.16,16.16,0,0,1-.46,2.16,5.58,5.58,0,0,1-.82,1.81,1.35,1.35,0,0,1-1,.62,1.25,1.25,0,0,1-1-.6,2.67,2.67,0,0,1-.43-1.54,3,3,0,0,1,1-2.23,3.38,3.38,0,0,1,2.43-.94,3,3,0,0,1,2.18.82,2.84,2.84,0,0,1,.83,2.07,2.8,2.8,0,0,1-.76,2A3.57,3.57,0,0,1,177.32,101.79Zm-2-1.48q.55,0,1-1.68a10,10,0,0,0,.42-2,2.49,2.49,0,0,0-1.58.88,2.29,2.29,0,0,0-.6,1.48,1.69,1.69,0,0,0,.22,1A.61.61,0,0,0,175.27,100.31Z" transform="translate(16.45 30.12)"/><path class="cls-26" d="M184,100.78l1.86-1.58c.75-.64,1-1,1-1.47a.81.81,0,0,0-.88-.84c-.49,0-.83.27-1.24.81l-.69-.53a2.23,2.23,0,0,1,2-1.13,1.62,1.62,0,0,1,1.79,1.61v0c0,.85-.45,1.32-1.41,2.1l-1.11.93h2.57v.83H184Z" transform="translate(16.45 30.12)"/><path class="cls-26" d="M191.71,95.33h6.46v6.82h-.77v-.42h-5v.42h-.74Zm.74,5.73h5v-5h-5Zm.93-3.93h3.06V100h-3.06Zm2.33,2.21V97.76h-1.65v1.58Z" transform="translate(16.45 30.12)"/><path class="cls-26" d="M203.14,98H201v4.16h-.71v-6.8h2.87Zm-.67-2.11H201v.52h1.49ZM201,97.46h1.49V96.9H201Zm4.5,2.88h-1V102h-.65v-1.66h-.93a3,3,0,0,1-.3,1,2,2,0,0,1-.72.81,1.89,1.89,0,0,0-.46-.42,1.79,1.79,0,0,0,.85-1.36h-.88v-.6h.91V99h-.77v-.58h3.75V99h-.8v.73h1Zm-2.53-.6h.92V99H203Zm3.72-4.39v5.91a1.19,1.19,0,0,1-.07.47.55.55,0,0,1-.26.26,3.22,3.22,0,0,1-1.22.13,1.84,1.84,0,0,0-.23-.71h.91c.11,0,.16-.06.16-.17V98h-2.22V95.35Zm-.71.53h-1.53v.52H206Zm-1.53,1.59H206V96.9h-1.53Z" transform="translate(16.45 30.12)"/><path class="cls-26" d="M210.08,95.07l.67.2a12.86,12.86,0,0,1-.77,1.64v5.22h-.68V98a8,8,0,0,1-.66.8,4,4,0,0,0-.4-.72,6.74,6.74,0,0,0,1-1.34A9.25,9.25,0,0,0,210.08,95.07Zm5.4,6.17v.57h-3.66v.31h-.69V98.86a3.77,3.77,0,0,1-.54.57,4.25,4.25,0,0,0-.54-.49,5.1,5.1,0,0,0,.83-.89,4.4,4.4,0,0,0,.63-1.11H211v-1.6h.65v1h1.1V95.09h.71v1.24h1.17v-1h.7v1.6h-3.74l.65.19a5.7,5.7,0,0,1-.35.7H213a5.17,5.17,0,0,0,.28-.85l.75.17c-.11.24-.23.46-.34.68h1.67v.56h-1.71V99h1.48v.54h-1.48v.59h1.48v.53h-1.48v.61ZM213,99v-.58h-1.18V99Zm0,1.13v-.59h-1.18v.59Zm-1.18.53v.61H213v-.61Z" transform="translate(16.45 30.12)"/><path class="cls-26" d="M79.84,57.8H67.21q-1.3,2.64-2.47,4.63l4.11-.2c2-.09,3.57-.17,4.69-.21a36.46,36.46,0,0,0-2.72-2.69l2.55-1.43A41.11,41.11,0,0,1,77,61.41a18.61,18.61,0,0,1,2.54,3.37l-2.78,1.55q-.22-.43-1-1.65-7,.46-17.13,1l-.27-3,3.15-.1a30,30,0,0,0,2-4.75H57.35V55.08H79.84ZM62.75,49.63v-2H57.59V45h5.16v-2h2.94v2h5.74v-2h3v2H79.6v2.69H74.39v2h-3v-2H65.69v2Zm-2.69,3.49V50.43H77.2v2.69Z" transform="translate(16.45 30.12)"/><path class="cls-26" d="M97.52,61.43h9.71v3H84.67v-3h9.45V48.59H86V45.51h19.85v3.08H97.52Z" transform="translate(16.45 30.12)"/><path class="cls-26" d="M113.64,61.38l9.46-10.73H114V47.58h13.9v2.57l-9.47,10.73h9.47V64H113.64Z" transform="translate(16.45 30.12)"/><path class="cls-26" d="M134,55.86V55.8a8.73,8.73,0,0,1,17.46-.07v.07a8.56,8.56,0,0,1-8.78,8.53A8.47,8.47,0,0,1,134,55.86Zm13.71,0V55.8a5.07,5.07,0,0,0-5-5.28,4.91,4.91,0,0,0-4.93,5.21v.07a5,5,0,0,0,5,5.24A4.92,4.92,0,0,0,147.67,55.86Z" transform="translate(16.45 30.12)"/><path class="cls-26" d="M157.44,55.86V55.8a8.73,8.73,0,0,1,17.46-.07v.07a8.56,8.56,0,0,1-8.78,8.53A8.47,8.47,0,0,1,157.44,55.86Zm13.71,0V55.8a5.07,5.07,0,0,0-5-5.28,4.92,4.92,0,0,0-4.93,5.21v.07a5.05,5.05,0,0,0,5,5.24A4.91,4.91,0,0,0,171.15,55.86Z" transform="translate(16.45 30.12)"/><path class="cls-26" d="M181.82,47.58h3.76v2.48a5.86,5.86,0,0,1,5-2.83,5.19,5.19,0,0,1,4.9,2.89A6.58,6.58,0,0,1,201,47.23c3.57,0,5.74,2.27,5.74,6.27V64H203v-9.3c0-2.61-1.21-4-3.32-4s-3.51,1.42-3.51,4.06V64H192.4V54.62c0-2.55-1.24-4-3.32-4s-3.5,1.55-3.5,4.06V64h-3.76Z" transform="translate(16.45 30.12)"/><path class="cls-26" d="M232.93,61.94h-4.29a71.85,71.85,0,0,1,7.07,2.91l-3.41,1.31a45.75,45.75,0,0,0-6.47-2.93l2.25-1.29h-7.27l2.28,1a28.33,28.33,0,0,1-7.76,3.24A23.69,23.69,0,0,0,213.15,64,26.27,26.27,0,0,0,220,61.94H216.3V51.81h8.24a5.24,5.24,0,0,0-.79-1,5.12,5.12,0,0,0-.93-.8,5.34,5.34,0,0,0,1.45-1.26h-2.22v2.59H219.4V48.76h-2.18a8.06,8.06,0,0,1-2.37,4.12,6.75,6.75,0,0,0-.9-1,5.4,5.4,0,0,0-1-.81A6.84,6.84,0,0,0,215,45.73V43.48l1.89.48a27.85,27.85,0,0,0,5.16-1l1.79,1.72a28.06,28.06,0,0,1-6.3,1.06v.15c0,.32,0,.57,0,.73h6.83v2a4.62,4.62,0,0,0,.87-2.89V43.5l2,.48a36.27,36.27,0,0,0,5.55-1l1.8,1.74a35.79,35.79,0,0,1-6.79,1.07v.14a6.24,6.24,0,0,1,0,.71h7.78v2.13h-3.12v2.62h-2.64V48.76h-2.5a6.56,6.56,0,0,1-2.45,3.05h8.1Zm-13.77-8.36v1.07h10.76V53.58Zm0,2.77v1.06h10.76V56.35Zm0,2.71v1.09h10.76V59.06Z" transform="translate(16.45 30.12)"/><path class="cls-26" d="M250.85,53.12H244.3v13h-2.93V43.89h9.48Zm-2.77-7H244.3v1.33h3.78Zm-3.78,4.73h3.78V49.46H244.3Zm12.17,11.75h-6.86V64h-2.76V54.82h9.62Zm-2.76-5.35h-4.1v2.9h4.1Zm8.58-13.38V62.6a5,5,0,0,1-.31,1.94,2,2,0,0,1-1.08,1,13.24,13.24,0,0,1-4.87.56,9.07,9.07,0,0,0-1-3,26,26,0,0,0,3.61.05.72.72,0,0,0,.49-.13.62.62,0,0,0,.14-.45v-9.4h-6.71V43.89Zm-3,2.23h-3.9v1.35h3.9Zm-3.9,4.77h3.9V49.46h-3.9Z" transform="translate(16.45 30.12)"/><path class="cls-26" d="M273.25,53.07V51.28a29.92,29.92,0,0,1-4.19,2.47,9.48,9.48,0,0,0-1.72-2.47,24,24,0,0,0,5.79-3.68A22.06,22.06,0,0,0,277.35,43h3.07a21.87,21.87,0,0,0,4.72,4.74,22.27,22.27,0,0,0,5.78,3.11A18.44,18.44,0,0,0,289,53.53a31,31,0,0,1-4.17-2.4v1.94Zm-4.39,4.8V55.13h20.53v2.74H278.27c-.83,1.63-1.59,3.1-2.28,4.39q2.61-.07,7.46-.27A28.31,28.31,0,0,0,281,59.47l2.59-1.38a38.33,38.33,0,0,1,3.25,3.25,24.94,24.94,0,0,1,2.45,3.15l-2.76,1.65a18.08,18.08,0,0,0-1-1.53l-16.16.75L269,62.5l3.76-.14a46.8,46.8,0,0,0,1.89-4.49Zm5.63-7.49h9.3a22.64,22.64,0,0,1-4.77-4.6A21.6,21.6,0,0,1,274.49,50.38Z" transform="translate(16.45 30.12)"/><path class="cls-26" d="M125.29,28.63a.75.75,0,0,1-.78-.73.77.77,0,0,1,.77-.77h5.41a.76.76,0,0,1,.77.76.75.75,0,0,1-.76.75h-1.48a.47.47,0,0,0-.47.47v5.94a.75.75,0,0,1-.76.75.76.76,0,0,1-.75-.77V29.1a.47.47,0,0,0-.47-.47Z" transform="translate(16.45 30.12)"/><path class="cls-26" d="M135.29,27.72a1,1,0,0,1,.92-.62,1,1,0,0,1,.9.62l2.73,7a.75.75,0,0,1-.7,1,.76.76,0,0,1-.71-.5l-.71-1.82a.48.48,0,0,0-.44-.3h-2.15a.49.49,0,0,0-.45.3L134,35.28a.75.75,0,1,1-1.41-.53Zm.17,3.73a.16.16,0,0,0,.15.21h1.16a.16.16,0,0,0,.15-.21L136.34,30a.13.13,0,0,0-.13-.1.15.15,0,0,0-.15.1Z" transform="translate(16.45 30.12)"/><path class="cls-26" d="M148.11,28.46l-2.83,2.68a.09.09,0,0,0,0,.15l3.42,3.21a.75.75,0,0,1-.52,1.31.72.72,0,0,1-.52-.21l-3.5-3.28s0,0-.06,0a.11.11,0,0,0-.11.1v2.66a.75.75,0,0,1-.76.75.77.77,0,0,1-.76-.77V27.87a.78.78,0,0,1,.77-.77.76.76,0,0,1,.77.76V30a.1.1,0,0,0,.11.11.12.12,0,0,0,.08,0l2.9-2.75a.77.77,0,1,1,1,1.15Z" transform="translate(16.45 30.12)"/><path class="cls-26" d="M156.35,27.89a.77.77,0,0,1,1.54,0v4.74a3.19,3.19,0,0,1-3.19,3.19h-.44a3.19,3.19,0,0,1-3.19-3.19V27.87a.78.78,0,0,1,.77-.77.77.77,0,0,1,.77.76V32.6a1.66,1.66,0,0,0,1.67,1.66h.43a1.66,1.66,0,0,0,1.66-1.66Z" transform="translate(16.45 30.12)"/><path class="cls-26" d="M161,28.63a.75.75,0,0,1-.78-.73.77.77,0,0,1,.77-.77h5.41a.75.75,0,0,1,.76.76.74.74,0,0,1-.75.75H165a.47.47,0,0,0-.47.47v5.94a.75.75,0,0,1-.76.75A.76.76,0,0,1,163,35V29.1a.48.48,0,0,0-.48-.47Z" transform="translate(16.45 30.12)"/><path class="cls-26" d="M170.18,35.79a.78.78,0,0,1-.8-.74V27.89a.76.76,0,0,1,.77-.77h3.59a.76.76,0,1,1,0,1.51h-2.37a.48.48,0,0,0-.48.47V30a.48.48,0,0,0,.48.48h1.7a.76.76,0,1,1,0,1.51h-1.7a.47.47,0,0,0-.47.47V33.8a.48.48,0,0,0,.47.48h2.37a.76.76,0,1,1,0,1.51Z" transform="translate(16.45 30.12)"/><path class="cls-26" d="M182.78,32.61a.16.16,0,0,0,.13.08c.07,0,.12,0,.12-.14V27.9a.77.77,0,0,1,.76-.77.76.76,0,0,1,.77.76v7.16a.74.74,0,0,1-.75.75.78.78,0,0,1-.59-.27l-4.41-5.24a.25.25,0,0,0-.13-.06.16.16,0,0,0-.16.16v4.66a.75.75,0,0,1-.76.75A.76.76,0,0,1,177,35V27.87a.77.77,0,0,1,.77-.77.75.75,0,0,1,.58.28Z" transform="translate(16.45 30.12)"/><path class="cls-26" d="M196.2,27.1a2.66,2.66,0,0,1,2.63,2.66V30a2.6,2.6,0,0,1-.57,1.65L196.34,34a.15.15,0,0,0,.11.25h1.6a.76.76,0,0,1,.77.76.75.75,0,0,1-.76.75h-3.5a.76.76,0,0,1-.59-1.23l3.1-3.91a1.08,1.08,0,0,0,.25-.69v-.21a1.12,1.12,0,0,0-1.12-1.12h-.13a1,1,0,0,0-1,.66.75.75,0,0,1-.71.5.91.91,0,0,1-.27-.05.76.76,0,0,1-.45-1,2.54,2.54,0,0,1,2.39-1.67Z" transform="translate(16.45 30.12)"/><path class="cls-26" d="M206.64,28.38a5.74,5.74,0,0,1,.76,3.07,5.7,5.7,0,0,1-.76,3.06,2.62,2.62,0,0,1-2.2,1.28,2.58,2.58,0,0,1-2.18-1.28,5.61,5.61,0,0,1-.76-3.06,5.65,5.65,0,0,1,.76-3.07,2.59,2.59,0,0,1,2.19-1.28A2.68,2.68,0,0,1,206.64,28.38Zm-.77,3.07c0-.83-.24-2.82-1.42-2.82s-1.41,2-1.41,2.82.24,2.81,1.41,2.81S205.87,32.28,205.87,31.45Z" transform="translate(16.45 30.12)"/><path class="cls-26" d="M212.63,27.1a2.66,2.66,0,0,1,2.63,2.66V30a2.66,2.66,0,0,1-.57,1.65L212.77,34a.15.15,0,0,0,.11.25h1.6a.76.76,0,0,1,.77.76.75.75,0,0,1-.76.75H211a.76.76,0,0,1-.59-1.23l3.1-3.91a1.08,1.08,0,0,0,.25-.69v-.21a1.12,1.12,0,0,0-1.12-1.12h-.13a1,1,0,0,0-1,.66.75.75,0,0,1-.71.5.91.91,0,0,1-.27-.05.76.76,0,0,1-.45-1,2.54,2.54,0,0,1,2.39-1.67Z" transform="translate(16.45 30.12)"/><path class="cls-26" d="M223.07,28.38a5.74,5.74,0,0,1,.75,3.07,5.7,5.7,0,0,1-.75,3.06,2.62,2.62,0,0,1-2.2,1.28,2.58,2.58,0,0,1-2.18-1.28,5.61,5.61,0,0,1-.76-3.06,5.65,5.65,0,0,1,.76-3.07,2.59,2.59,0,0,1,2.19-1.28A2.68,2.68,0,0,1,223.07,28.38Zm-.77,3.07c0-.83-.24-2.82-1.42-2.82s-1.41,2-1.41,2.82.23,2.81,1.41,2.81S222.3,32.28,222.3,31.45Z" transform="translate(16.45 30.12)"/><path class="cls-4" d="M199.13,131.75a1,1,0,0,1,.84-.33h5.85a2.25,2.25,0,0,0,2.49-2.49v-6.61a2.25,2.25,0,0,0-2.49-2.49H194.94a2.24,2.24,0,0,0-2.49,2.49v6.61a2.24,2.24,0,0,0,2.49,2.49h1c.35,0,.49.14.49.48v2.43Z" transform="translate(16.45 30.12)"/><path class="cls-11" d="M195.46,134.6v-2.23h-.53a3.18,3.18,0,0,1-3.5-3.49v-6.63a3.19,3.19,0,0,1,3.5-3.51h10.9a3.2,3.2,0,0,1,3.5,3.51v6.63a3.19,3.19,0,0,1-3.5,3.49H200l-2.9,2.55c-.37.32-.59.5-.91.5S195.46,135.09,195.46,134.6Zm3.67-2.91a1,1,0,0,1,.83-.33h5.86a2.25,2.25,0,0,0,2.49-2.49v-6.62a2.25,2.25,0,0,0-2.49-2.49H194.94a2.24,2.24,0,0,0-2.49,2.49v6.62a2.25,2.25,0,0,0,2.49,2.49h1c.35,0,.49.13.49.48v2.42Zm.61-2.7a.77.77,0,0,1,1.54,0,.77.77,0,0,1-1.54,0Zm.25-2.35-.09-4.41a.58.58,0,0,1,.6-.59.57.57,0,0,1,.6.6l-.09,4.4c0,.35-.2.55-.5.55A.5.5,0,0,1,200,126.64Z" transform="translate(16.45 30.12)"/><circle class="cls-8" cx="105.86" cy="165.95" r="1.18"/><circle class="cls-8" cx="99.81" cy="167.34" r="1.18"/><circle class="cls-8" cx="95.13" cy="171.09" r="1.18"/><circle class="cls-8" cx="92.47" cy="176.54" r="1.18"/><circle class="cls-8" cx="92.47" cy="182.84" r="1.18"/><circle class="cls-8" cx="95.13" cy="188.29" r="1.18"/><circle class="cls-8" cx="99.81" cy="192.04" r="1.18"/><circle class="cls-8" cx="105.86" cy="193.44" r="1.18"/><circle class="cls-8" cx="111.9" cy="192.04" r="1.18"/><circle class="cls-8" cx="116.59" cy="188.29" r="1.18"/><circle class="cls-8" cx="119.24" cy="182.84" r="1.18"/><circle class="cls-8" cx="119.24" cy="176.54" r="1.18"/><circle class="cls-8" cx="116.59" cy="171.09" r="1.18"/><circle class="cls-8" cx="111.9" cy="167.34" r="1.18"/><circle class="cls-8" cx="105.86" cy="165.95" r="1.18"/><rect class="cls-27" x="85.37" y="140.49" width="1.15" height="5.14" rx="0.58" transform="translate(-44.07 93.18) rotate(-30.36)"/><rect class="cls-27" x="82.91" y="142.95" width="1.15" height="5.14" rx="0.58" transform="translate(-67.83 174.12) rotate(-59.64)"/><rect class="cls-27" x="96.43" y="178.53" width="5.14" height="1.15" rx="0.58"/><rect class="cls-27" x="80.92" y="151.87" width="5.14" height="1.15" rx="0.58" transform="translate(-49.16 93.22) rotate(-30.36)"/><rect class="cls-27" x="83.38" y="154.33" width="5.14" height="1.15" rx="0.58" transform="translate(-74.71 180.89) rotate(-59.64)"/><rect class="cls-27" x="105.28" y="183.39" width="1.15" height="5.14" rx="0.58"/><rect class="cls-27" x="92.3" y="152.34" width="1.15" height="5.14" rx="0.58" transform="translate(-49.11 98.3) rotate(-30.36)"/><rect class="cls-27" x="94.76" y="149.88" width="1.15" height="5.14" rx="0.58" transform="translate(-67.94 187.77) rotate(-59.64)"/><rect class="cls-27" x="110.15" y="178.53" width="5.14" height="1.15" rx="0.58"/><rect class="cls-27" x="92.77" y="144.95" width="5.14" height="1.15" rx="0.58" transform="translate(-44.03 98.26) rotate(-30.36)"/><rect class="cls-27" x="90.31" y="142.48" width="5.14" height="1.15" rx="0.58" transform="translate(-61.06 181.01) rotate(-59.64)"/><rect class="cls-27" x="86.84" y="141.55" width="5.14" height="1.15" rx="0.58" transform="translate(-37.19 260.16) rotate(-89.4)"/><rect class="cls-6" x="257.32" y="146.41" width="0.75" height="3.36" rx="0.38" transform="translate(122.39 433.76) rotate(-89.18)"/><rect class="cls-6" x="250.69" y="142.27" width="3.36" height="0.75" rx="0.38" transform="translate(122.57 423.07) rotate(-89.18)"/><rect class="cls-6" x="246.56" y="146.3" width="0.75" height="3.36" rx="0.38" transform="translate(111.88 422.88) rotate(-89.18)"/><rect class="cls-6" x="250.58" y="153.04" width="3.36" height="0.75" rx="0.38" transform="translate(111.7 433.57) rotate(-89.18)"/><rect class="cls-6" x="255.81" y="150.22" width="0.75" height="3.36" rx="0.38" transform="translate(-11.06 272.71) rotate(-48.39)"/><rect class="cls-6" x="246.65" y="151.28" width="3.36" height="0.75" rx="0.38" transform="translate(-23.53 221.07) rotate(-39.18)"/><rect class="cls-6" x="254.74" y="143.89" width="3.36" height="0.75" rx="0.38" transform="matrix(0.78, -0.63, 0.63, 0.78, -17.05, 224.53)"/><rect class="cls-6" x="248.19" y="142.34" width="0.75" height="3.36" rx="0.38" transform="translate(-7.73 264.36) rotate(-48.39)"/><line class="cls-28" x1="123.33" y1="120.79" x2="128.25" y2="129.17"/><circle class="cls-6" cx="121.53" cy="117.65" r="0.96"/><path class="cls-28" d="M101.26,81.2l1.82,3.09" transform="translate(16.45 30.12)"/><line class="cls-28" x1="260.38" y1="119.7" x2="265.3" y2="111.31"/><circle class="cls-6" cx="258.77" cy="122.84" r="0.96"/><path class="cls-28" d="M238.31,99.06l1.82-2.92" transform="translate(16.45 30.12)"/><rect class="cls-26" x="322.46" y="203.37" width="16.56" height="16.56" rx="0.56"/><path class="cls-29" d="M320,182.11h-5.2v-1H320a2.48,2.48,0,0,0,0-4.95h-7.05a3.17,3.17,0,0,0-.28-.92h6.84a3.16,3.16,0,0,0,2.27-.94.48.48,0,0,0,0-.7.49.49,0,0,0-.69,0,2.26,2.26,0,0,1-1.58.66h-7.57a3.19,3.19,0,0,0-2.18-.85.49.49,0,0,0,0,1,2.23,2.23,0,0,1,2.18,1.77h-3.32a2.48,2.48,0,1,0,0,4.95h5.19v1h-5.19a2.48,2.48,0,1,0,0,4.95h3.67a.46.46,0,1,0,0-.92h-3.67a1.56,1.56,0,1,1,0-3.11H320a1.56,1.56,0,0,1,0,3.11h-3.68a.46.46,0,1,0,0,.92H320a2.48,2.48,0,0,0,0-4.95Zm-7.32-5H320a1.56,1.56,0,0,1,0,3.11H308.61a1.56,1.56,0,1,1,0-3.11h4.06" transform="translate(16.45 30.12)"/><path class="cls-29" d="M320.82,178.68a.38.38,0,0,0-.39-.39H308.17a.39.39,0,0,0-.4.39.4.4,0,0,0,.4.4h12.26A.39.39,0,0,0,320.82,178.68Z" transform="translate(16.45 30.12)"/><path class="cls-29" d="M320.43,185a.39.39,0,0,0,.39-.4.38.38,0,0,0-.39-.39H308.17a.39.39,0,0,0-.4.39.4.4,0,0,0,.4.4h5.63v4.13a.5.5,0,1,0,1,0V185Z" transform="translate(16.45 30.12)"/><rect class="cls-26" x="340.52" y="203.37" width="16.56" height="16.56" rx="0.56"/><path class="cls-29" d="M339.51,180a.5.5,0,0,0,0-1h-3v-.9a.49.49,0,1,0-1,0v.9h-4.35v-.9a.5.5,0,1,0-1,0v.9h-2.95a.5.5,0,1,0,0,1h2.95v1.33h-2.95a.49.49,0,1,0,0,1h12.26a.49.49,0,0,0,0-1h-3V180Zm-4,1.33h-4.35V180h4.35Z" transform="translate(16.45 30.12)"/><path class="cls-29" d="M339,177.16a1.44,1.44,0,0,0,1.46-1.43V174a.49.49,0,0,0-.49-.49.5.5,0,0,0-.5.49v.36H324.77a.49.49,0,0,0,0,1h14.67v.44a.45.45,0,0,1-.47.44l-10.68.05a3.22,3.22,0,0,0-3.22,3.22v7.76a2.22,2.22,0,0,1-.65,1.58.5.5,0,0,0,0,.7.51.51,0,0,0,.7,0,3.2,3.2,0,0,0,.94-2.28v-7.76a2.23,2.23,0,0,1,2.23-2.23Z" transform="translate(16.45 30.12)"/><path class="cls-29" d="M339,183.05h-3a.49.49,0,0,0-.49.49v1.79a.46.46,0,0,1-.48.43h-3.13v-2.22a.49.49,0,0,0-.49-.49h-1.7a3,3,0,0,0-3,3v2.83a.5.5,0,0,0,1,0V186a2,2,0,0,1,2-2h1.24v3.52a1.45,1.45,0,0,0,1.47,1.43h5.72a.5.5,0,0,0,0-1h-5.72a.46.46,0,0,1-.48-.44v-.8h3.13a1.44,1.44,0,0,0,1.46-1.42V184H339a.47.47,0,0,1,.44.48v4.36a.5.5,0,0,0,1,0v-4.36A1.44,1.44,0,0,0,339,183.05Z" transform="translate(16.45 30.12)"/></g></g></g></g></svg>