<svg xmlns="http://www.w3.org/2000/svg" viewBox="0 0 122.05 99.84"><defs><style>.cls-1{opacity:0.31;}.cls-2,.cls-4{fill:none;stroke-linecap:round;stroke-linejoin:round;}.cls-2{stroke:#3e3a39;stroke-width:2.04px;}.cls-3{fill:#3e3a39;}.cls-4{stroke:#3d3a39;stroke-width:2px;}</style></defs><g id="レイヤー_2" data-name="レイヤー 2"><g id="レイヤー_1-2" data-name="レイヤー 1"><g class="cls-1"><line class="cls-2" x1="10.12" y1="81.78" x2="110.98" y2="81.78"/><line class="cls-2" x1="27.16" y1="90.3" x2="93.95" y2="90.3"/><line class="cls-2" x1="48.28" y1="98.82" x2="74.18" y2="98.82"/><polygon class="cls-3" points="33.6 22.65 5.12 22.65 6.83 34.74 33.6 34.74 33.6 22.65"/><polygon class="cls-3" points="93.57 22.65 93.57 34.74 120.34 34.74 122.05 22.65 93.57 22.65"/><polygon class="cls-3" points="33.6 39.58 7.52 39.58 9.23 51.67 33.6 51.67 33.6 39.58"/><polygon class="cls-3" points="93.57 51.67 117.94 51.67 119.65 39.58 93.57 39.58 93.57 51.67"/><polygon class="cls-3" points="33.6 55.91 9.83 55.91 11.54 68 33.6 68 33.6 55.91"/><polygon class="cls-3" points="93.57 68 115.63 68 117.34 55.91 93.57 55.91 93.57 68"/></g><path class="cls-4" d="M37,76V17.35H84.33V76"/><path class="cls-4" d="M81.79,8.29,78.64,1h-36L39.52,8.29H32.34l4.23,9.13H84.73L89,8.29Z"/><rect class="cls-4" x="46.24" y="56.02" width="28.62" height="4.23"/><line class="cls-4" x1="48.97" y1="75.36" x2="48.97" y2="60.85"/><line class="cls-4" x1="72.14" y1="75.36" x2="72.14" y2="60.85"/><line class="cls-4" x1="49.07" y1="47.55" x2="49.07" y2="25.18"/><line class="cls-4" x1="72.24" y1="47.55" x2="72.24" y2="25.18"/><line class="cls-4" x1="60.75" y1="47.55" x2="60.75" y2="25.18"/><polygon class="cls-4" points="30.67 21.25 2.18 21.25 3.9 33.34 30.67 33.34 30.67 21.25"/><polygon class="cls-4" points="90.64 21.25 90.64 33.34 117.41 33.34 119.12 21.25 90.64 21.25"/><polygon class="cls-4" points="30.67 38.18 4.58 38.18 6.3 50.27 30.67 50.27 30.67 38.18"/><polygon class="cls-4" points="90.64 50.27 115.01 50.27 116.72 38.18 90.64 38.18 90.64 50.27"/><polygon class="cls-4" points="30.67 54.51 6.9 54.51 8.61 66.6 30.67 66.6 30.67 54.51"/><polygon class="cls-4" points="90.64 66.6 112.69 66.6 114.41 54.51 90.64 54.51 90.64 66.6"/><path class="cls-4" d="M111.37,76l8.94-63.07H86.88"/><path class="cls-4" d="M34.41,12.9H1L9.94,76"/></g></g></svg>