<svg xmlns="http://www.w3.org/2000/svg" viewBox="0 0 85.88 70.25"><defs><style>.cls-1,.cls-3{fill:none;stroke-linecap:round;stroke-linejoin:round;}.cls-1{stroke:#98d1ec;stroke-width:1.44px;}.cls-2{fill:#98d1ec;}.cls-3{stroke:#3d3a39;stroke-width:1.41px;}</style></defs><g id="レイヤー_2" data-name="レイヤー 2"><g id="レイヤー_1-2" data-name="レイヤー 1"><line class="cls-1" x1="7.12" y1="57.54" x2="78.09" y2="57.54"/><line class="cls-1" x1="19.11" y1="63.54" x2="66.1" y2="63.54"/><line class="cls-1" x1="33.97" y1="69.53" x2="52.2" y2="69.53"/><polygon class="cls-2" points="23.64 15.94 3.6 15.94 4.81 24.45 23.64 24.45 23.64 15.94"/><polygon class="cls-2" points="65.84 15.94 65.84 24.45 84.67 24.45 85.88 15.94 65.84 15.94"/><polygon class="cls-2" points="23.64 27.85 5.29 27.85 6.5 36.36 23.64 36.36 23.64 27.85"/><polygon class="cls-2" points="65.84 36.36 82.98 36.36 84.19 27.85 65.84 27.85 65.84 36.36"/><polygon class="cls-2" points="23.64 39.34 6.92 39.34 8.12 47.84 23.64 47.84 23.64 39.34"/><polygon class="cls-2" points="65.84 47.84 81.36 47.84 82.56 39.34 65.84 39.34 65.84 47.84"/><path class="cls-3" d="M26,53.45V12.21H59.34V53.45"/><path class="cls-3" d="M57.55,5.83,55.33.7H30L27.81,5.83h-5l3,6.43H59.62c1-2.14,2-4.29,3-6.43Z"/><rect class="cls-3" x="32.54" y="39.41" width="20.14" height="2.98"/><line class="cls-3" x1="34.45" y1="53.03" x2="34.45" y2="42.82"/><line class="cls-3" x1="50.76" y1="53.03" x2="50.76" y2="42.82"/><line class="cls-3" x1="34.52" y1="33.46" x2="34.52" y2="17.72"/><line class="cls-3" x1="50.83" y1="33.46" x2="50.83" y2="17.72"/><line class="cls-3" x1="42.75" y1="33.46" x2="42.75" y2="17.72"/><polygon class="cls-3" points="21.58 14.95 1.54 14.95 2.74 23.46 21.58 23.46 21.58 14.95"/><polygon class="cls-3" points="63.78 14.95 63.78 23.46 82.61 23.46 83.82 14.95 63.78 14.95"/><polygon class="cls-3" points="21.58 26.86 3.23 26.86 4.43 35.37 21.58 35.37 21.58 26.86"/><polygon class="cls-3" points="63.78 35.37 80.92 35.37 82.13 26.86 63.78 26.86 63.78 35.37"/><polygon class="cls-3" points="21.58 38.35 4.85 38.35 6.06 46.86 21.58 46.86 21.58 38.35"/><polygon class="cls-3" points="63.78 46.86 79.29 46.86 80.5 38.35 63.78 38.35 63.78 46.86"/><path class="cls-3" d="M78.36,53.45,84.65,9.08H61.13"/><path class="cls-3" d="M24.21,9.08H.7L7,53.45"/></g></g></svg>