<svg xmlns="http://www.w3.org/2000/svg" viewBox="0 0 159.09 88.13"><defs><style>.cls-1{fill:#3e3a39;}.cls-2{fill:#f7f8f8;}</style></defs><g id="レイヤー_2" data-name="レイヤー 2"><g id="top"><rect class="cls-1" width="76.11" height="76.11" rx="2.57"/><path class="cls-2" d="M64.2,40.66H40.32V36.32H64.2a11.39,11.39,0,0,0,0-22.78H31.81a14.8,14.8,0,0,0-1.27-4.18H62A14.68,14.68,0,0,0,72.41,5,2.27,2.27,0,1,0,69.2,1.82a10.19,10.19,0,0,1-7.24,3H27.19a14.72,14.72,0,0,0-10-3.91,2.27,2.27,0,0,0,0,4.54,10.25,10.25,0,0,1,10,8.09H11.92a11.39,11.39,0,0,0,0,22.78H35.79v4.34H11.92a11.39,11.39,0,1,0,0,22.77H28.79a2.12,2.12,0,0,0,0-4.24H11.92a7.15,7.15,0,1,1,0-14.3H64.2a7.15,7.15,0,0,1,0,14.3H47.33a2.12,2.12,0,0,0,0,4.24H64.2a11.39,11.39,0,0,0,0-22.77ZM30.59,17.78H64.2a7.15,7.15,0,0,1,0,14.3H11.92a7.15,7.15,0,1,1,0-14.3H30.59"/><path class="cls-2" d="M68.05,24.93a1.82,1.82,0,0,0-1.82-1.81H9.88a1.81,1.81,0,0,0,0,3.62H66.23A1.82,1.82,0,0,0,68.05,24.93Z"/><path class="cls-2" d="M66.23,53.86a1.82,1.82,0,1,0,0-3.63H9.88a1.82,1.82,0,0,0,0,3.63H35.79v19a2.27,2.27,0,1,0,4.53,0v-19Z"/><rect class="cls-1" x="82.97" width="76.11" height="76.11" rx="2.57"/><path class="cls-2" d="M153.9,30.92a2.27,2.27,0,0,0,0-4.54H140.18V22.24a2.27,2.27,0,1,0-4.53,0v4.14h-20V22.24a2.27,2.27,0,1,0-4.53,0v4.14H97.55a2.27,2.27,0,1,0,0,4.54h13.59V37H97.55a2.27,2.27,0,1,0,0,4.53H153.9a2.27,2.27,0,1,0,0-4.53H140.18V30.92ZM135.65,37h-20V30.92h20Z"/><path class="cls-2" d="M151.43,17.93a6.65,6.65,0,0,0,6.72-6.56V3.18a2.27,2.27,0,0,0-4.54,0V4.82H86.18a2.27,2.27,0,0,0,0,4.54h67.43v2a2.11,2.11,0,0,1-2.19,2l-49.06.22A14.8,14.8,0,0,0,87.58,28.39v35.7a10.16,10.16,0,0,1-3,7.24,2.27,2.27,0,0,0,1.61,3.87,2.26,2.26,0,0,0,1.6-.66,14.7,14.7,0,0,0,4.33-10.45V28.39a10.26,10.26,0,0,1,10.26-10.24Z"/><path class="cls-2" d="M151.76,45H137.92a2.26,2.26,0,0,0-2.27,2.26v8.2a2.11,2.11,0,0,1-2.18,2H119.09V47.25A2.27,2.27,0,0,0,116.82,45H109A13.76,13.76,0,0,0,95.28,58.72v13a2.27,2.27,0,0,0,4.54,0v-13a9.21,9.21,0,0,1,9-9.2h5.7V65.68a6.64,6.64,0,0,0,6.72,6.56h26.28a2.27,2.27,0,0,0,0-4.54H121.27a2.1,2.1,0,0,1-2.18-2V62h14.38a6.65,6.65,0,0,0,6.71-6.56V49.52h11.58a2.11,2.11,0,0,1,2,2.18v20a2.27,2.27,0,0,0,4.53,0v-20A6.64,6.64,0,0,0,151.76,45Z"/><path class="cls-1" d="M55.28,84.63a.36.36,0,0,1-.38-.36.37.37,0,0,1,.37-.37h2.64a.37.37,0,0,1,.37.36.36.36,0,0,1-.37.37h-.72a.24.24,0,0,0-.23.23v2.89a.36.36,0,0,1-.36.37.37.37,0,0,1-.37-.37V84.86a.23.23,0,0,0-.23-.23Z"/><path class="cls-1" d="M60.15,84.19a.5.5,0,0,1,.45-.31.47.47,0,0,1,.44.31l1.33,3.42a.36.36,0,0,1-.34.5.39.39,0,0,1-.35-.24L61.34,87a.24.24,0,0,0-.22-.15h-1a.23.23,0,0,0-.21.15l-.35.89a.37.37,0,0,1-.34.24.37.37,0,0,1-.35-.5ZM60.24,86a.07.07,0,0,0,.07.1h.56a.07.07,0,0,0,.07-.1l-.27-.72a.08.08,0,0,0-.07,0,.06.06,0,0,0-.07,0Z"/><path class="cls-1" d="M66.4,84.54,65,85.85a0,0,0,0,0,0,.07l1.67,1.56a.38.38,0,0,1-.25.65.36.36,0,0,1-.26-.11l-1.7-1.6h0a.06.06,0,0,0-.06,0v1.29a.36.36,0,0,1-.37.37.37.37,0,0,1-.36-.37V84.26a.38.38,0,1,1,.75,0v1s0,0,0,0h0L65.91,84a.36.36,0,0,1,.25-.11A.38.38,0,0,1,66.4,84.54Z"/><path class="cls-1" d="M70.42,84.26a.38.38,0,0,1,.37-.37.37.37,0,0,1,.38.37v2.31a1.56,1.56,0,0,1-1.56,1.55H69.4a1.55,1.55,0,0,1-1.55-1.55V84.26a.38.38,0,0,1,.75,0v2.31a.81.81,0,0,0,.81.81h.21a.81.81,0,0,0,.81-.81Z"/><path class="cls-1" d="M72.71,84.63a.37.37,0,1,1,0-.73h2.63a.37.37,0,0,1,.38.36.36.36,0,0,1-.37.37h-.72a.23.23,0,0,0-.23.23v2.89a.36.36,0,0,1-.37.37.38.38,0,0,1-.37-.37V84.86a.22.22,0,0,0-.22-.23Z"/><path class="cls-1" d="M77.16,88.11a.38.38,0,0,1-.39-.36V84.26a.38.38,0,0,1,.38-.37H78.9a.37.37,0,0,1,0,.74H77.75a.23.23,0,0,0-.23.23v.43a.23.23,0,0,0,.23.23h.83a.37.37,0,0,1,0,.74h-.82a.23.23,0,0,0-.23.23v.66a.23.23,0,0,0,.23.23h1.15a.36.36,0,0,1,.37.37.36.36,0,0,1-.36.36Z"/><path class="cls-1" d="M83.3,86.57a.09.09,0,0,0,.07,0s0,0,0-.06V84.27a.37.37,0,0,1,.38-.37.37.37,0,0,1,.37.36v3.49a.36.36,0,0,1-.37.37.37.37,0,0,1-.28-.13l-2.15-2.55-.06,0a.08.08,0,0,0-.08.07v2.27a.36.36,0,0,1-.37.37.37.37,0,0,1-.37-.37V84.26a.38.38,0,0,1,.38-.38.35.35,0,0,1,.28.14Z"/><path class="cls-1" d="M89.85,83.88a1.29,1.29,0,0,1,1.28,1.3v.1a1.3,1.3,0,0,1-.28.8l-.94,1.18a.07.07,0,0,0,.06.12h.78a.38.38,0,0,1,.37.37.36.36,0,0,1-.37.37h-1.7a.37.37,0,0,1-.29-.6l1.51-1.9a.54.54,0,0,0,.12-.34v-.1a.55.55,0,0,0-.54-.55h-.07a.5.5,0,0,0-.46.32.38.38,0,0,1-.35.24.3.3,0,0,1-.13,0,.37.37,0,0,1-.22-.48,1.24,1.24,0,0,1,1.16-.81Z"/><path class="cls-1" d="M94.93,84.51a3.19,3.19,0,0,1,0,3,1.22,1.22,0,0,1-2.13,0,3.19,3.19,0,0,1,0-3,1.27,1.27,0,0,1,1.07-.63A1.29,1.29,0,0,1,94.93,84.51ZM94.56,86c0-.41-.12-1.37-.69-1.37s-.69,1-.69,1.37.12,1.37.69,1.37S94.56,86.4,94.56,86Z"/><path class="cls-1" d="M97.86,83.88a1.3,1.3,0,0,1,1.28,1.3v.1a1.3,1.3,0,0,1-.28.8l-.94,1.18a.07.07,0,0,0,.06.12h.78a.38.38,0,0,1,.37.37.36.36,0,0,1-.37.37h-1.7a.37.37,0,0,1-.29-.6l1.51-1.9a.54.54,0,0,0,.12-.34v-.1a.55.55,0,0,0-.54-.55h-.07a.51.51,0,0,0-.47.32.35.35,0,0,1-.34.24.3.3,0,0,1-.13,0,.37.37,0,0,1-.22-.48,1.24,1.24,0,0,1,1.16-.81Z"/><path class="cls-1" d="M102.94,84.51a3.19,3.19,0,0,1,0,3,1.22,1.22,0,0,1-2.13,0,3.19,3.19,0,0,1,0-3,1.27,1.27,0,0,1,1.07-.63A1.29,1.29,0,0,1,102.94,84.51ZM102.57,86c0-.41-.12-1.37-.69-1.37s-.69,1-.69,1.37.12,1.37.69,1.37S102.57,86.4,102.57,86Z"/></g></g></svg>