<svg xmlns="http://www.w3.org/2000/svg" viewBox="0 0 1097.18 223"><defs><style>.cls-1{opacity:0.26;}.cls-2{fill:#c7c2bc;}</style></defs><g id="レイヤー_2" data-name="レイヤー 2"><g id="レイヤー_1-2" data-name="レイヤー 1"><g class="cls-1"><path class="cls-2" d="M0,112.9c3.61-1.83,7.17-3.74,10.84-5.47,7.18-3.4,14.32-6.89,21.69-10,5-2.11,10.48-3.56,15.7-5.37,5-1.73,9.93-3.6,14.94-5.31,4.61-1.56,9.28-3,14-4.46,4-1.23,7.92-2.45,11.92-3.57q8.07-2.25,16.22-4.34a62.15,62.15,0,0,1,9.31-2c5.13-.49,10.33-.68,15.5-.7,5.7,0,11.39.29,17.08.48a3.7,3.7,0,0,1,2.06.63l-21.54,3.69V77a20.27,20.27,0,0,0,2.34,0c7.38-.9,14.77-1.8,22.15-2.77a99.79,99.79,0,0,1,27,.38c2,.28,4,.45,6,.72a13.29,13.29,0,0,1,1.91.54c0,.16,0,.32,0,.48l-38.06,5.89,0,.55c1.84-.14,3.69-.21,5.52-.43,7.62-1,15.22-2,22.85-2.91,4.89-.58,9.8-1,14.71-1.44a47.57,47.57,0,0,1,5.46.17c.19,0,.43.1.56,0,2.53-1.29,4.94-.09,7.31.34,4.45.83,8.84,1.89,13.26,2.86l-.11.43-31.9,1.86,0,.82c1.78,0,3.56,0,5.35-.07,10.94-.29,21.89-.73,32.83-.82,2.88,0,5.79,1,8.65,1.59,2.19.49,4.33,1.16,6.48,1.78a6.34,6.34,0,0,1,1.1.68c-1,.13-1.57.25-2.14.26-7.73.08-15.47,0-23.18.26s-15.65,1-23.46,1.54c-5.93.44-11.85.94-17.76,1.54-4.2.42-8.38,1-12.56,1.57-3.37.45-6.76.86-10.1,1.45-6.66,1.19-13.31,2.43-19.93,3.78-4.59.94-9.15,2-13.67,3.21-4.22,1.08-8.38,2.32-12.54,3.55-1.86.54-3.67,1.21-5.51,1.82,0,.15.11.29.16.44,2-.42,3.94-.78,5.86-1.27,8.23-2.1,16.36-4.47,24.67-6.3,8.06-1.77,16.24-3.27,24.46-4.41,10.48-1.46,21-2.78,31.59-3.53,18.1-1.3,36.24-2.68,54.44-1.39a109.8,109.8,0,0,1,13.12,1.58c3.27.65,6.33,2,9.48,3.09,1.34.46,2.68.93,4,1.44a2.82,2.82,0,0,1,1.33,1c-10.9-1.06-21.75-.57-32.55,0s-21.57,1.69-32.36,2.57l.05.48c1.84,0,3.69,0,5.52-.08,3.59-.22,7.17-.7,10.76-.8,7.34-.21,14.72,0,22-.41,7.83-.47,15.57.09,23.33.5,3.38.18,6.72,1.39,10.07,1.39,5.91,0,10.58,2.53,15.62,4.37,1.9.7,3.76,1.49,5.62,2.26.51.22,1,.51,1.47.76l-.16.48c-1.44-.11-2.88-.15-4.31-.33-6.62-.82-13.21-1.87-19.86-2.46-7.4-.67-14.85-1.24-22.28-1.29-10.31-.07-20.63.25-30.94.66-7.07.28-14.12,1-21.18,1.51-5.36.37-10.75.56-16.09,1.1-6.15.62-12.3,1.35-18.36,2.39-8,1.37-16,3-24,4.71-7.51,1.66-14.92,3.6-22.33,5.54-3.49.91-6.88,2.09-10.31,3.17-8.15,2.55-16.39,4.94-24.43,7.72-7.17,2.47-14.16,5.32-21.18,8.09-5.93,2.35-12,4.57-17.64,7.31-9.81,4.73-20,8.93-29.25,14.49-3.86,2.32-8.2,4.1-12.28,6.18C3.2,168.17,2.1,169,.94,169.7L.67,153.61c.75-.38,1.52-.74,2.25-1.15C9.34,148.84,15.6,145,22.2,141.62c10.86-5.57,22-10.78,32.91-16.27s22.75-9.85,34.35-14.41c1.07-.42,2.13-.87,3.2-1.3a2.2,2.2,0,0,0-1.6-.14c-7.35,2.62-14.88,5-22,8-9,3.82-17.81,8.1-26.63,12.29-7.45,3.54-14.89,7.1-22.17,10.87C13.6,144.08,7.16,147.8.64,151.4ZM78.79,107c-4.72-.22-36.24,13.69-40.7,17.95C51.54,118.82,64.45,111.83,78.79,107ZM150,88l.13.65,32.47-4A173.93,173.93,0,0,0,150,88ZM12.86,137.47l-.28-.38L2.66,142.3l.45.57ZM119.47,78.62l-.15-.61-8.68,1.53.18.7ZM144.2,88.88l.09.61,4.19-.49-.11-.58Z"/><path class="cls-2" d="M1097.18,47.34c-11.87.64-23.76,1.16-35.61,2-7.62.54-15.23,1.37-22.78,2.36s-14.82,2.21-22.16,3.56-14.66,2.85-21.9,4.53c-6.38,1.49-12.72,3.16-19,5-7.72,2.33-15.41,4.75-22.92,7.52q-13.08,4.82-25.78,10.33C917.15,87,907.2,91.25,897.7,96.14c-12.47,6.42-24.61,13.29-36.68,20.22-5.85,3.37-11.17,7.36-16.81,11-3.5,2.26-7.13,4.37-10.77,6.49a225.69,225.69,0,0,1,39.61-30l-.46-.55-4.49,1.87-.42-.49a24.57,24.57,0,0,1,2-1.62c4.21-2.71,8.37-5.48,12.69-8.07,7.14-4.27,14.37-8.45,21.6-12.62,3.92-2.28,7.8-4.62,11.91-6.65,3.13-1.55,6.59-2.62,9.87-4,3.72-1.52,7.39-3.13,11.12-4.63,5.33-2.13,10.72-4.18,16.05-6.31,3.46-1.38,6.83-2.92,10.31-4.27,4.11-1.58,8.26-3.1,12.46-4.51,5.07-1.71,10.23-3.21,15.3-4.91,4.25-1.43,8.4-3.08,12.65-4.52,2.49-.84,5.1-1.44,7.64-2.2,3.73-1.12,7.42-2.34,11.16-3.42,5.42-1.55,10.85-3.07,16.33-4.48,6.2-1.59,12.43-3.15,18.72-4.51s12.65-2.5,19-3.67c5.36-1,10.75-1.87,16.13-2.8,1.36-.24,2.72-.44,4.08-.66l.17,10.41-13.15,2,.15.75,13-1.82ZM888.88,95.16l-.45-.59a70.93,70.93,0,0,0-11.75,6.28l.38.5Zm192.67-60.72-.12-.57-7.61,1.46.1.38ZM894.44,92.14l-.38-.51L890,93.8l.28.38Z"/><path class="cls-2" d="M1096.71,18.62c-3.86.58-7.72,1.13-11.57,1.76-4.83.8-9.68,1.57-14.47,2.53-9,1.81-17.94,3.59-26.81,5.67-6.67,1.57-13.19,3.6-19.77,5.44-4.73,1.33-9.49,2.59-14.16,4.06s-9,3.1-13.48,4.61c-2.34.78-4.8,1.33-7.12,2.14-5.31,1.83-10.6,3.7-15.83,5.67q-9.75,3.64-19.4,7.49c-4.21,1.67-8.33,3.51-12.52,5.23-4.58,1.88-9.24,3.62-13.76,5.58-3,1.28-5.71,2.88-8.59,4.27-4.52,2.18-9.21,4.14-13.57,6.5-7.92,4.3-15.66,8.83-23.47,13.26-.9.5-1.82,1-2.73,1.47l-.35-.36a17.51,17.51,0,0,1,1.72-1.61c4.26-3.08,8.41-6.3,12.88-9.16,4.63-3,9.57-5.59,14.4-8.33,5.61-3.2,11.16-6.49,16.92-9.5a221.56,221.56,0,0,1,22-10.48c4.72-1.84,9-4.41,13.78-6.21,8-3,16.12-5.76,24.22-8.57,6-2.09,11.93-4.35,18.07-6.13,9.31-2.69,18.8-5,28.16-7.54,4.74-1.31,9.36-2.89,14-4.35l2.11-.66c-1.52-.6-17,3.3-27.83,6.53-9.22,2.77-18.58,5.26-27.72,8.21s-18,6.28-26.94,9.46a219.93,219.93,0,0,0-25.78,11.52c-8.38,4.25-16.92,8.29-25.16,12.71s-16,9.11-24.26,13.56A14.7,14.7,0,0,1,891,82.12c5-3.67,9.82-7.43,14.94-10.93,3.72-2.54,7.79-4.74,11.72-7.08,2.8-1.66,5.56-3.38,8.45-4.93,9-4.84,18.07-9.71,27.24-14.38,6.5-3.31,13.15-6.43,19.86-9.44,5-2.26,10.23-4.28,15.41-6.29s10.36-4,15.63-5.78q9.68-3.32,19.49-6.32c7.46-2.29,14.94-4.53,22.51-6.54C1049.75,9.5,1053.05,8,1057,8c2.06,0,4.12-1,6.19-1.57,1.52-.4,3-.84,4.58-1.17,2-.43,4.1-.77,6.15-1.16,1.75-.33,3.5-.69,5.25-1,1.94-.38,3.87-.81,5.82-1.16,3.82-.67,7.64-1.29,11.46-1.93Z"/><path class="cls-2" d="M1,171.28c2.6-1.43,5.23-2.85,7.82-4.31a222.43,222.43,0,0,1,23.32-11.35c5.17-2.16,10.09-4.73,15.22-7,4.63-2,9.39-3.8,14.1-5.65,8.06-3.17,16.11-6.37,24.22-9.44,3.21-1.22,6.58-2.15,9.88-3.2,3.64-1.15,7.27-2.33,10.93-3.44,2.84-.85,5.74-1.57,8.59-2.41,4.09-1.21,8.1-2.65,12.26-3.68,6.64-1.66,13.38-3,20.07-4.57,3.34-.77,6.6-1.85,10-2.41,6.68-1.11,13.41-2,20.15-2.89,7.63-1,15.27-1.92,22.94-2.57s15.3-.6,22.88-1.41c8.73-.94,17.45-.67,26.17-.62a193.28,193.28,0,0,1,28.14,2c5.4.84,10.89,1.27,16.27,2.19,4.57.78,9,2,13.54,3,2.29.49,4.69.64,6.94,1.23a39.32,39.32,0,0,1,5.26,2.12,57.33,57.33,0,0,1,7.43,3.63c-1.3-.29-2.61-.56-3.91-.86-6.14-1.4-12.21-3-18.42-4.15-5.53-1-11.2-1.53-16.82-2.23-4.31-.53-8.62-1.1-12.95-1.5-4.9-.45-9.82-1-14.74-1q-24.31,0-48.63.37a82.19,82.19,0,0,0-11.29,1.2c-10.14,1.57-20.28,3.13-30.35,5s-19.86,3.75-29.64,6.08c-7,1.67-13.92,3.87-20.68,6.2-12.61,4.35-25.08,9-37.61,13.48-7.2,2.58-13.56,6.32-20.06,9.87-8.24,4.51-16.69,8.8-24.53,13.75-7.2,4.54-13.77,9.76-20.49,14.8-5.31,4-10.43,8.13-15.63,12.2Z"/><path class="cls-2" d="M236.23,64.84a10,10,0,0,1,1.88-.16c6.23.52,12.47,1,18.68,1.66,5,.54,10,1.19,14.93,2.07s10,2.13,15,3.19c1.83.38,3.75.51,5.51,1,4.31,1.28,8.61,2.62,12.82,4.11,5,1.77,9.91,3.67,14.81,5.61,8.78,3.46,17.58,6.87,26.26,10.5,13.88,5.82,27.28,12.33,40.3,19.39,5.39,2.92,11.16,5.36,16.76,8q13.5,6.39,27,12.76a121.39,121.39,0,0,0,17,6.23c5,1.51,9.95,3.34,14.87,5.13,9,3.28,18,6.67,27.42,9.1,6.21,1.6,12.31,3.49,18.51,5.13,11,2.89,21.92,5.78,33,8.46,4.11,1,8.44,1.35,12.64,2.09s8.25,1.59,12.38,2.32c7.72,1.37,15.28,3.21,23.31,3.34,9.11.15,18.2.92,27.3,1.32,4,.18,8,.12,12,.21,2.33.06,4.67.32,7,.28,4.1-.07,8.2-.36,12.31-.45,4.55-.1,9.12.07,13.67-.14,4.91-.24,9.8-.82,14.71-1.17,2.58-.19,5.18-.33,7.77-.3a76.17,76.17,0,0,0,14.47-1.43c5-.9,10.07-1.53,15.09-2.32,1.74-.27,3.43-.74,5.17-1,4.4-.71,8.88-1.15,13.2-2.1,3.57-.78,7-2.14,10.42-3.24,3.87-1.23,7.75-2.45,11.6-3.71,3.1-1,6.26-2,9.24-3.18,5.63-2.32,11.11-4.89,16.73-7.2,2.81-1.16,5.9-1.84,8.71-3,3.25-1.35,6.33-3,9.48-4.51s6-2.95,9-4.39a1.45,1.45,0,0,1,1.21.29c-1.28.67-2.64,1.26-3.84,2-3.68,2.37-7.28,4.85-11,7.22-2.25,1.44-4.58,2.79-6.92,4.13-4.48,2.56-8.91,5.2-13.52,7.59-6,3.09-12.28,5.72-18.07,9s-12.61,5.29-19,7.72a86.14,86.14,0,0,1-14,4.33,35.47,35.47,0,0,0-7.51,2.59,71.78,71.78,0,0,1-14.73,4.48c-6.3,1.34-12.53,3-18.86,4.2a172.67,172.67,0,0,1-17.68,2.87c-9,.81-18,1.17-27.08,1.54a173.45,173.45,0,0,1-17.66.12c-8.43-.52-16.82-1.52-25.22-2.41-5.69-.6-11.4-1.24-17-2.08-6.58-1-13.11-2.23-19.67-3.34-4.08-.69-8.23-1.16-12.25-2.05-4.26-.94-8.39-2.26-12.58-3.4-6.4-1.75-12.82-3.45-19.21-5.22-4.84-1.35-9.74-2.59-14.45-4.22-7.9-2.74-15.65-5.78-23.51-8.63-5.59-2-11.28-3.9-16.87-5.95-8.58-3.15-17.22-6.2-25.63-9.65a133.15,133.15,0,0,1-13.16-6.83,168.73,168.73,0,0,0-19.72-9.3c-4.15-1.62-7.9-3.92-11.9-5.83q-15.83-7.56-31.72-15c-3.56-1.68-7-3.88-10.79-4.8-5.73-1.38-9.94-4.71-15-6.86-5.79-2.44-11.16-5.65-17.13-7.66-7.07-2.39-13-6.12-19.47-9.31a98.59,98.59,0,0,0-11.3-4.35c-6.92-2.38-13.9-4.66-20.88-7-1.28-.42-2.64-.65-3.95-1-2.8-.79-5.6-1.58-8.37-2.43-3.84-1.18-7.66-2.41-11.48-3.63a7.84,7.84,0,0,1-.93-.43Z"/><path class="cls-2" d="M320.69,79.43c1.51.4,3,.76,4.53,1.2Q336.1,83.87,347,87.15c7.89,2.37,15.77,4.77,23.66,7.13,5.53,1.65,11.09,3.21,16.6,4.89,5.68,1.74,11.31,3.6,17,5.36,4.37,1.35,8.85,2.5,13.16,4,3.65,1.26,7.06,3,10.71,4.29,5.34,1.87,10.79,3.51,16.19,5.27q6.17,2,12.3,4.1,9.13,3.06,18.24,6.16c5.09,1.71,10.14,3.52,15.29,5.11,3.18,1,6.55,1.53,9.79,2.4q6.17,1.67,12.26,3.52c6.45,2,12.82,4.12,19.29,6,6.24,1.82,12.56,3.43,18.85,5.11,6.62,1.77,13.24,3.54,19.89,5.23,5.67,1.45,11.34,2.9,17.08,4.17,15.42,3.41,31.06,5.49,47.1,4.54,7.57-.45,15.11-1.25,22.69-1.62a88.39,88.39,0,0,1,12.71.27c6.37.6,12.64.08,18.94-.39,2.08-.16,4.18-.16,6.26-.34,5.4-.48,10.79-1,16.18-1.54,4.51-.48,9-.95,13.49-1.69,3.07-.51,6-1.52,9.06-2.19,4.45-1,9-1.8,13.4-2.79,2.78-.62,5.52-1.37,8.24-2.17s5.43-1.65,8.06-2.63c3.72-1.39,7.33-3,11-4.39,2.46-.93,5-1.68,7.48-2.59,4-1.47,8-2.84,11.81-4.52,7.66-3.38,15.31-6.79,22.75-10.48,4.75-2.35,9.19-5.15,13.64-7.9,6.18-3.81,12.15-7.84,18.36-11.61,5-3,10.2-5.77,15.32-8.63a3.82,3.82,0,0,1,1,0,59.8,59.8,0,0,1-10.67,9.57c-7,4.68-15,8.21-22.58,12.15a82.32,82.32,0,0,0-7.75,4.54,193.13,193.13,0,0,1-25.43,13.75c-3.74,1.75-7.23,3.89-11,5.55-3.4,1.5-7.11,2.48-10.58,3.87-6.33,2.52-12.49,5.33-18.88,7.73-4.66,1.74-9.59,3-14.36,4.5-3.06,1-6,2.25-9.07,3.19a50.08,50.08,0,0,1-6.42,1.36c-9.62,1.57-19.37,2.7-28.84,4.74-8.45,1.82-17,1-25.44,2-8.9,1-17.84.54-26.7,1.23-12.48,1-24.92-.17-37.38-.06-9.65.08-19.31-1-29-1.6a50.16,50.16,0,0,1-5.94-1c-8-1.51-16-3.07-24-4.54-7.45-1.38-15-2.52-22.22-4.6s-14.73-3.7-22-5.67c-4.91-1.32-9.72-2.92-14.59-4.35-4.58-1.34-9.22-2.54-13.75-4-4.13-1.29-8.16-2.78-12.22-4.21-5.11-1.79-10.13-3.78-15.32-5.39a221.14,221.14,0,0,1-34.29-13.55c-7.39-3.73-15-7.19-22.39-10.89-7.85-3.91-15.57-8-23.4-11.94-5.89-3-11.74-6-17.83-8.64-6.57-2.86-13.42-5.29-20.12-8-4.06-1.62-8.07-3.33-12.1-5Z"/><path class="cls-2" d="M197.61,62.67c3.24.25,6.49.49,9.73.75.5,0,1,.3,1.47.29,5.84-.12,11.38,1.24,17,2.22,2.7.47,5.56.39,8.17,1s5.11,2.07,7.77,2.86c6.28,1.89,12.65,3.57,18.95,5.41,2.73.81,5.37,1.84,8.06,2.75,4.44,1.5,8.83,3.12,13.35,4.44,7.18,2.09,13.48,5.41,19.66,9,2.81,1.64,6.2,2.56,9.26,3.91q6.36,2.79,12.6,5.75c5.2,2.47,10.29,5.11,15.54,7.5,2.07,1,4.58,1.21,6.69,2.11,3.92,1.67,7.7,3.58,11.54,5.4,10.41,5,20.8,9.93,31.24,14.84,6.86,3.23,13.87,6.25,20.67,9.56,4.79,2.33,9.42,4.9,14,7.54,5.44,3.13,11.44,5.31,17.42,7.57,9,3.39,17.88,6.85,26.88,10.17,5.65,2.08,11.42,3.92,17.12,5.92,4.7,1.66,9.29,3.55,14.07,5.05,5.31,1.66,10.78,3,16.16,4.46,8,2.24,16,4.62,24,6.74,4.44,1.16,9,2,13.55,2.85,5.67,1.08,11.35,2.15,17.07,3,7.84,1.15,15.73,2.1,23.6,3.1,4.12.53,8.24,1.11,12.39,1.45,10.45.87,20.88,2,31.41.75,2.48-.29,5,0,7.57-.13,4.61-.19,9.22-.6,13.83-.66,6.27-.1,12.2-1.64,18.25-2.69,3-.53,6.13-.76,9.14-1.32,3.56-.68,7.08-1.51,10.58-2.39,4.58-1.15,9.17-2.32,13.68-3.67,3-.88,5.72-2.15,8.63-3.1s5.71-1.66,8.56-2.49c2.66-.79,5.34-1.52,8-2.41,3.26-1.1,6.38-2.51,9.7-3.48,5-1.44,9.18-3.86,13.56-6.12,4.65-2.4,9.52-4.5,14.17-6.89,3.54-1.81,6.87-3.9,10.31-5.83,4.18-2.34,8.39-4.64,12.57-7a8.68,8.68,0,0,0,1.58-1.13,49.3,49.3,0,0,1,10.85-7c4-2,7.54-4.55,11.29-6.85a1.2,1.2,0,0,1,1-.12c-.51.48-1,1-1.52,1.45a68.86,68.86,0,0,1-11.58,8.11c-6.08,3.6-11.87,7.53-17.8,11.3-7.08,4.51-14.19,9-21.26,13.52-3.8,2.43-7.38,5.13-11.38,7.3-5.77,3.12-11.75,6-17.8,8.71-6.39,2.89-12.83,5.74-19.48,8.14-7.81,2.82-15.57,5.81-23.92,7.51-9,1.83-17.83,4-26.84,5.62a139,139,0,0,1-16,1.78c-6.43.41-12.9.61-19.36.6-4.92,0-9.86-.78-14.76-.64a131.48,131.48,0,0,1-20.74-1.5c-5-.65-10.1-.63-15.1-1.22a90.17,90.17,0,0,1-12.54-2.26,147.42,147.42,0,0,0-17.92-3.82,137.94,137.94,0,0,1-21.44-4.63c-3.91-1.17-7.91-2.13-11.86-3.22-4.12-1.14-8.23-2.32-12.34-3.49-3.57-1-7.22-1.91-10.7-3.11-6.46-2.23-12.89-4.52-19.2-7q-8.46-3.33-16.61-7.18c-9.61-4.53-19.06-9.29-28.64-13.86-8.81-4.2-17.63-8.39-26.57-12.39-6.27-2.8-12.81-5.19-19.13-7.91-5.71-2.46-11.24-5.22-17-7.68-5.92-2.56-12-4.82-17.94-7.42-4.73-2.09-9.18-4.63-13.9-6.75-6.49-2.92-13.16-5.56-19.67-8.46-4.83-2.16-9.47-4.62-14.3-6.79-6.33-2.84-12.75-5.53-19.14-8.29-5.43-2.35-10.79-4.81-16.31-7C262.81,83.3,257.9,81.61,253,80c-6.44-2.15-13-4.15-19.43-6.21-9.07-2.88-18.12-5.82-27.24-8.6a59.11,59.11,0,0,0-7-1.22c-.66-.12-1.28-.37-1.91-.55Z"/><path class="cls-2" d="M142.6,66.35c7.19-2.62,14.61-2.2,22.05-1.72,4.85.31,9.71.62,14.56.83s9.74.31,14.61.41A71.41,71.41,0,0,1,215.52,70c7.71,2.62,15.59,4.9,23.36,7.39q8.4,2.69,16.7,5.57c6,2.1,12.1,4,17.85,6.55,13.76,6,27.31,12.33,41,18.47,7.45,3.34,15,6.48,22.45,9.86,7.09,3.23,14,6.74,21.1,10,3.93,1.78,8.17,3.09,12.13,4.83,6,2.66,11.87,5.59,17.89,8.25,5.74,2.53,11.65,4.8,17.41,7.3,5.08,2.22,10.06,4.61,15.08,6.93,8,3.71,16,7.36,24,11.16,5.92,2.82,11.58,6,17.58,8.71,6.59,3,13.42,5.59,20.19,8.3,4.43,1.77,8.84,3.62,13.42,5.1,5.23,1.69,10.64,3,16,4.49,4.73,1.32,9.42,2.76,14.2,4,7.43,1.86,14.91,3.61,22.4,5.31,8.16,1.84,16.32,3.72,24.55,5.3,5.6,1.06,11.31,1.71,17,2.41s11.39,1.33,17.1,1.79c3.95.33,7.94.32,11.92.47l16.87.64c1,0,1.9,0,2.84,0,6.32-.3,12.66-.48,19-1,4.64-.36,9.26-1,13.84-1.75,6.07-1,12.11-2.1,18.14-3.28,2.93-.58,5.78-1.41,8.66-2.17a90.29,90.29,0,0,0,10-2.79c7.32-2.89,15.3-4.59,22.07-8.5a59.53,59.53,0,0,1,7.53-3.14c.24-.09.58,0,1,.32-1.54.81-3,1.71-4.62,2.42-11.8,5.16-23.51,10.47-35.46,15.36a228,228,0,0,1-33.33,10.4,158.26,158.26,0,0,1-46.57,4.1c-7.75-.47-15.5-1.15-23.2-2-4.8-.54-9.52-1.59-14.27-2.44-5.67-1-11.36-1.91-17-3.07-6.29-1.3-12.52-2.79-18.76-4.26-4.29-1-8.59-2-12.81-3.2-6-1.69-12-3.54-17.93-5.32-4.51-1.35-9-2.66-13.5-4.07-5.12-1.63-10.19-3.35-15.28-5.05s-10.22-3.29-15.19-5.2a118.17,118.17,0,0,1-11.37-5.2c-11.32-5.84-22.54-11.8-33.83-17.67-10.11-5.25-20.23-10.5-30.43-15.64q-16.65-8.4-33.47-16.57c-9-4.39-18.11-8.74-27.29-12.92-9.61-4.38-19.33-8.61-29.07-12.79q-10.92-4.69-22-9.06c-6.26-2.46-12.63-4.74-19-7C258.39,89.09,252.39,87,246.4,85c-3.9-1.34-7.76-2.78-11.76-3.86-6.71-1.8-13.5-3.38-20.29-5-5.16-1.2-10.31-2.43-15.54-3.36q-9.9-1.76-19.91-3c-7.55-1-15.15-1.68-22.75-2.41-3.45-.33-6.94-.44-10.41-.67C144.69,66.62,143.65,66.46,142.6,66.35Z"/><path class="cls-2" d="M683.64,159.93c.44-.12.88-.26,1.33-.35,6.51-1.26,13-2.45,19.53-3.77,5.09-1,10.14-2.15,15.19-3.32s10-2.32,14.88-3.63c4.73-1.27,9.49-2.53,14-4.14,5.39-1.91,10.6-4.18,15.87-6.32,6.06-2.46,12.18-4.81,18.11-7.46,8.16-3.65,16.18-7.5,24.24-11.3q12.9-6.11,25.77-12.27,9.5-4.55,19-9.16,10.7-5.2,21.34-10.46a29.29,29.29,0,0,1,2.91-1.46,13.68,13.68,0,0,1,2.75-.32,42.49,42.49,0,0,1-4.38,4.08c-3.82,2.65-7.69,5.26-11.74,7.66-14.36,8.5-28.73,17-43.26,25.3a148.36,148.36,0,0,1-13.73,6.37c-8,3.53-16,7.25-24.26,10.4q-15.75,6-32,11.11c-5.94,1.88-12.31,2.79-18.4,4.38-6.94,1.81-14.1,2.43-21.26,3.13-7.85.77-15.72,1.38-23.58,2a15.15,15.15,0,0,1-2.32-.15Z"/><path class="cls-2" d="M781.5,165.31l4.39-2.78A4.84,4.84,0,0,1,781.5,165.31Z"/></g></g></g></svg>