<svg xmlns="http://www.w3.org/2000/svg" viewBox="0 0 1281.53 369.48"><defs><style>.cls-1{opacity:0.26;}.cls-2{fill:#c7c2bc;}</style></defs><g id="レイヤー_2" data-name="レイヤー 2"><g id="レイヤー_1-2" data-name="レイヤー 1"><g class="cls-1"><path class="cls-2" d="M3.18,327.15,0,240.43c.81.5,1.6,1,2.43,1.48,7.91,4.27,15.79,8.6,23.77,12.75,4.58,2.38,9.28,4.55,14,6.64,5.77,2.56,11.58,5,17.44,7.37,4.6,1.83,9.25,3.56,14,5,6.46,2,13,3.77,19.54,5.61a148.88,148.88,0,0,0,29.31,5.36c5.73.44,11.46.94,17.18,1.45a295.63,295.63,0,0,0,33.68.64A267.74,267.74,0,0,0,205.88,284c9-1.39,17.94-3.12,26.87-4.93,3.86-.79,7.61-2.15,11.41-3.24a76.2,76.2,0,0,0,8.66-2.51C260.74,270,268.6,266.66,276,262a252.3,252.3,0,0,0,26.33-18.9c7.26-6,13.18-13.22,19.06-20.49,3.59-4.44,7.33-8.77,11.1-13.07,5.67-6.46,11.35-12.93,17.19-19.25,3.27-3.55,7.13-6.56,10.27-10.21,7.53-8.74,14.74-17.74,22.15-26.58,5.38-6.42,10.66-12.94,16.36-19.06,4.91-5.26,10.29-10.08,15.58-15a67.43,67.43,0,0,1,8.42-6.88c4.24-2.82,8.78-5.2,13.17-7.81,2-1.19,3.87-2.64,5.94-3.71,3.54-1.83,7.24-3.36,10.79-5.19,3.87-2,7.5-4.53,11.5-6.18A65.62,65.62,0,0,1,477,85.89c5-.92,10.23-1.09,15.36-1.57,4.74-.45,9.53-.58,14.2-1.44a18.92,18.92,0,0,1,9.54.87c6.29,2,12.45,4.48,18.75,6.51,8.09,2.6,15.6,6.49,23.17,10.22,5.42,2.67,10.69,5.65,16,8.55,1.71.94,3.34,2,5,3.13,4.13,2.73,8.37,5.33,12.34,8.28a123.22,123.22,0,0,1,10.54,8.81c7,6.54,14.77,12.26,20.55,20.07,2.71,3.65,6,6.9,8.82,10.45a58.32,58.32,0,0,1,3.58,5.63l-.56.36a53.4,53.4,0,0,0-5.13-5.18c-8.43-6.52-16.64-13.41-26-18.55-7.24-4-14.77-7.38-22.09-11.2a99.1,99.1,0,0,0-21.35-8.57c-8.63-2.18-17.35-4.11-26.37-4.21-7.44-.07-14.87-.45-22.3-.68-2.7-.09-5.46-.5-8.09-.12-6.79,1-13.56,2.17-20.27,3.6-6,1.29-11.94,3-17.91,4.54a74.06,74.06,0,0,0-17.57,6.93c-6.12,3.38-12.9,5.48-18.31,10.26-3,2.66-6.65,4.59-9.8,7.11-4.32,3.46-8.39,7.23-12.67,10.73-5.2,4.24-10.62,8.2-15.74,12.52-10.69,9-20,19.4-29.36,29.75-6,6.64-12.47,12.85-18.75,19.23-1.33,1.35-2.89,2.5-4.16,3.91-5.14,5.71-9.93,11.75-15.36,17.16-5.81,5.79-12.12,11.08-18.34,16.43-5.75,4.95-11.51,9.91-17.58,14.44-5.55,4.15-11.56,7.69-17.31,11.59-6.33,4.29-12.4,9-18.94,13A187.31,187.31,0,0,1,231,308.66a156.87,156.87,0,0,1-17.3,6.34q-8.67,2.76-17.55,4.79c-5.92,1.36-11.92,2.36-17.92,3.37q-8.53,1.44-17.12,2.56c-5.51.72-11,1.52-16.55,1.75-9.26.39-18.53.38-27.8.49-7.88.09-15.3-2.34-22.67-4.62C88,321.43,82,318.83,76,316.57c-4.3-1.61-8.87-2.72-12.86-4.89A88.53,88.53,0,0,1,50.91,303c-4.1-3.24-7.7-7.19-12-10.09a117.67,117.67,0,0,1-13.76-10.88,42.85,42.85,0,0,0-7.77-5.31,5,5,0,0,0-7.11,2.51,3.14,3.14,0,0,0,.25,2.74c.43.46,1.75.16,2.67.12s2.18-.61,2.8-.2c4.81,3.17,9.64,6.33,14.17,9.88,4.3,3.37,8.15,7.29,12.34,10.79a132.14,132.14,0,0,0,12.91,10c3.74,2.41,8,4,12.15,5.77,3.41,1.46,6.92,2.67,10.41,3.93,4.14,1.49,8.28,2.93,12.44,4.35s8.06,3.17,12.24,4c4.45.84,9.08.81,13.64,1a106.31,106.31,0,0,0,10.71.09c6.72-.37,13.42-.94,20.12-1.54,5.66-.51,11.31-1.07,16.94-1.8,6.75-.87,13.51-1.77,20.2-3,6.13-1.11,12.23-2.49,18.27-4,5.2-1.31,10.3-3,15.47-4.51a84.84,84.84,0,0,0,16.92-6.78c9.58-5.1,19.06-10.3,28-16.53,6.8-4.76,13.8-9.23,20.64-13.94,4.36-3,8.75-6,12.82-9.39,6.51-5.39,12.8-11.06,19.13-16.66,4.84-4.29,9.92-8.23,14-13.44,4.48-5.71,9.84-10.75,14.93-16,3.65-3.74,7.66-7.13,11.2-11,5.91-6.4,11.5-13.08,17.35-19.54,2.51-2.76,5.32-5.23,8-7.84,3.95-3.88,7.68-8,11.9-11.57,7-5.91,14.36-11.44,21.55-17.15,5.4-4.29,10.49-9,16.22-12.78a123.79,123.79,0,0,1,18.74-10.16A190.56,190.56,0,0,1,470.44,127a156.6,156.6,0,0,1,15.46-3.55,131.92,131.92,0,0,1,16.91-2.61c7.8-.46,15.65-.18,23.49-.15,1.5,0,3,.43,4.49.43,8.7,0,17.13,1.78,25.56,3.58a54.1,54.1,0,0,1,8.34,2.71c6.66,2.63,13.32,5.27,19.88,8.15a89.15,89.15,0,0,1,11.15,5.78c7,4.32,13.89,8.71,20.54,13.48,3.9,2.79,7.14,6.49,10.86,9.57a58.13,58.13,0,0,1,10.13,10.88,55.88,55.88,0,0,0,9.12,9.46,27,27,0,0,1,6.82,9.23l-7.7-6.56L645,188c2.77,2.88,5.59,5.72,8.3,8.66a35.24,35.24,0,0,1,3.81,4.82c.54.85.47,2.09.8,3.77-6.86-4.24-13-8.06-19.2-11.86-5-3.11-10-6.35-15.2-9.25s-10.57-5.72-16-8.22a146.6,146.6,0,0,0-15.63-6.17,262,262,0,0,0-25.33-7.3c-8.22-1.76-16.53-3.41-25.1-3.05-9.57.41-19.17.32-28.76.45a4.17,4.17,0,0,0-.71.07c-7.07,1.29-14.2,2.33-21.19,4-6.2,1.45-12.3,3.39-18.33,5.44-5.44,1.85-10.77,4-16,6.29s-10.46,4.24-15.17,7.18c-7.55,4.71-14.71,10.06-22,15.23a262.73,262.73,0,0,0-27.7,22.67c-3.29,3.1-6.7,6.09-9.85,9.33-7.61,7.84-15,15.89-22.66,23.67-5.84,5.93-12.13,11.41-17.94,17.37-7.68,7.88-15,16.14-22.66,24-5.24,5.38-10.85,10.41-16.31,15.58-3.89,3.69-7.72,7.45-11.74,11-3.21,2.82-6.58,5.49-10.05,8-8.44,6.08-16.89,12.15-25.5,18A87.82,87.82,0,0,1,244,353.39a122.49,122.49,0,0,1-12.28,5.51c-3.9,1.39-8,2.14-12.08,3.15-4.9,1.21-9.78,2.58-14.73,3.54s-9.86,1.64-14.83,2.12c-7.47.72-15,1.3-22.47,1.66-4.81.23-9.65.05-14.47-.11Q145,369,137,368.38c-5.51-.4-11-.83-16.51-1.49a155.47,155.47,0,0,1-16-2.46c-10.86-2.48-21.66-5.24-32.44-8.07a147.75,147.75,0,0,1-16.81-5.17q-15.76-6.24-31.23-13.27C16.94,334.67,10.13,330.76,3.18,327.15Zm609-166.5c-.72,1.4-.23,2.31,1,3.19,4.05,2.89,8,5.92,12.05,8.8a49.92,49.92,0,0,0,4.4,2.5l.46-.71c-1.16-.85-2.31-1.72-3.5-2.54a24.29,24.29,0,0,1-2.6-1.63c-2.25-2-4.31-4.2-6.62-6.11a52.74,52.74,0,0,0-5.26-3.43,51.5,51.5,0,0,0-5.23-3.64c-3.87-2.08-7.85-4-11.79-5.9-7.43-3.66-14.87-7.31-23.2-8.49-9-1.27-17.82-3.55-27-3.72-6.16-.12-12.3-1-18.49-.09-4.61.65-9.29.83-13.93,1.34-4.81.53-9.63,1.08-14.41,1.84-7.57,1.21-15.12,2.55-22.66,3.95a84.93,84.93,0,0,0-9.2,2.21,65.45,65.45,0,0,0-6.28,2.6c-4.89,2-9.94,3.79-14.67,6.18-7.39,3.74-14.54,8-21.85,11.87a96.41,96.41,0,0,0-17.82,11.63c-6.59,5.66-13.64,10.79-20.36,16.31-6.22,5.1-12.46,10.2-18.36,15.66s-11.59,11.45-17.3,17.26c-4.87,5-9.62,10.05-14.48,15-5.15,5.25-10.32,10.48-15.58,15.63-3.73,3.66-8.08,6.79-11.35,10.82-7,8.57-16,14.84-24,22.16-5.52,5-11.93,9.12-18.27,13.12-7.92,5-16.07,9.7-24.33,14.14a93.8,93.8,0,0,1-14.36,6c-6.35,2.14-12.88,3.76-19.33,5.63-2.82.81-5.63,1.65-8.43,2.54-3.74,1.19-7.39,2.74-11.2,3.61-11.4,2.62-23.11,2.6-34.68,3.7-6.27.61-12.64.14-19,.13-3.14,0-6.29,0-9.43-.14-5.62-.32-11.26-.56-16.83-1.25-7-.89-14-2.17-21-3.35-1.86-.32-3.68-.92-5.52-1.38-3.73-.93-7.55-1.61-11.18-2.82-6.87-2.29-13.12-5.9-19.42-9.43-7.38-4.13-15-7.87-22.57-11.61-.77-.38-2.26.08-3.1.63-1.16.77-1.12,2.06-.11,3.09a10.38,10.38,0,0,0,2.52,2.13c2.82,1.42,5.72,2.69,8.61,4,4.52,2,9.13,3.81,13.58,6,3.33,1.62,6.28,4.14,9.71,5.38,7,2.51,13.86,5.12,21.35,6.07,10,1.27,19.73,4.49,30,4.57,3.07,0,6.12,1.07,9.19,1.15,8.16.22,16.33.51,24.47.13,11.7-.56,23.37-1.85,35.06-2.53,7.82-.45,15-2.87,22.19-5.71a99.21,99.21,0,0,1,14-4.29c5.85-1.36,11.86-2.17,17.24-5s10.66-5.84,15.91-8.89q9.51-5.54,18.9-11.3c6.81-4.17,13.42-8.53,19.14-14.29,6.72-6.78,14.07-12.95,21.07-19.46q5.81-5.42,11.34-11.1c7.41-7.58,14.71-15.26,22.11-22.85,3.31-3.4,6.75-6.67,10.13-10,6.84-6.76,13.54-13.66,20.56-20.23,3.51-3.29,7.65-5.9,11.41-8.95,8.28-6.71,16.28-13.81,24.84-20.15,6-4.45,12.67-8.08,19.24-11.72,7.12-3.94,14.42-7.58,21.75-11.14,4.54-2.2,9.14-4.5,14-5.84,6.93-1.91,14.09-3,21.16-4.41,4.42-.88,8.83-1.76,13.26-2.52,5.94-1,11.86-2.3,17.85-2.76,8.12-.62,16.29-.62,24.44-.79a57,57,0,0,1,6.65.42c6.82.63,13.71.92,20.44,2.09a75.13,75.13,0,0,1,14.22,4.39,185.11,185.11,0,0,1,23.57,10.52C607.25,160,609.85,160.07,612.18,160.65Zm-6-20.28.65-.73c-2.91-2.46-6-4.72-8.69-7.41-5.46-5.46-12.2-9-18.65-12.94-3.81-2.33-7.82-4.34-11.69-6.57-4.92-2.84-9.67-6-14.68-8.6-10.44-5.51-21.48-8.79-33.45-8.23-5.86.27-11.73.24-17.58.61A39.53,39.53,0,0,0,492,98c-7.63,2.56-15,5.79-22.65,8.42-7.11,2.45-14.26,4.67-20.76,8.68-4.49,2.78-9.68,4.48-14.05,7.4-9,6-17.95,12.14-25.86,19.62-5.4,5.12-11,10-16.38,15.15-6.48,6.28-12.77,12.75-19.12,19.16-2.06,2.08-4,4.27-6.08,6.32-3,2.95-6.17,5.73-9.1,8.73-2.1,2.15-3.79,4.69-5.91,6.81-4.43,4.4-9.07,8.58-13.53,13-5.72,5.58-11.29,11.31-17,16.85-2.62,2.53-5.53,4.75-8.3,7.12-7.26,6.22-14.24,12.81-21.85,18.56-7.42,5.6-15.56,10.24-23.26,15.48a78.06,78.06,0,0,1-17,9.27c-3.8,1.38-7.57,2.82-11.31,4.35-3.48,1.44-6.87,3.07-10.33,4.55-3.12,1.33-6.4,2.32-9.39,3.89-7.49,3.93-15.5,5.84-23.8,6.88a58.73,58.73,0,0,0-9.6,1.52,35,35,0,0,1-15.89,1.48,16.34,16.34,0,0,0-3.56.08c-6.16.32-12.36,1.26-18.46.84-6.74-.47-13.4-2.15-20.09-3.35-3.51-.63-7-1.37-10.52-2-7.15-1.33-14.34-2.52-21.47-4a128.28,128.28,0,0,1-12.8-3.4c-7.37-2.37-15-4.09-21.91-7.71a27.2,27.2,0,0,0-5.11-1.95c-3-.86-6.35-1-9.06-2.43-4.6-2.38-8.82-5.51-13.21-8.31a50.73,50.73,0,0,0-5.45-3.31,2.77,2.77,0,0,0-3.68,2.05c-.37,1.7.57,2.44,2.13,2.8a7,7,0,0,1,2.31,1.07c2.9,2,5.78,4.09,8.64,6.17a31.07,31.07,0,0,0,12.23,5.53,34.49,34.49,0,0,1,7.39,2,126,126,0,0,0,18.61,6.63c4.62,1.28,9.23,2.64,13.91,3.66,9.88,2.14,19.8,4.14,29.72,6.08,6.1,1.19,12.25,2.12,18.36,3.24,1.46.27,2.86,1.13,4.31,1.2,4.74.24,9.48.36,14.22.3,4.58-.06,9.16-.39,13.75-.59,2.83-.12,5.8.27,8.48-.44,6.38-1.69,12.73-3.19,19.39-3a4.56,4.56,0,0,0,1.63-.29q13.18-5,26.34-10.08c6.64-2.56,13.21-5.33,19.9-7.73,5.9-2.11,11.73-4.24,16.82-8a97.64,97.64,0,0,1,11.53-7.95c10.53-5.71,19.41-13.62,28.79-20.86,3.74-2.88,6.91-6.5,10.42-9.7s7.24-6.16,10.63-9.48c8.11-7.9,16.06-16,24.1-23.93,1-1,2.27-1.75,3.23-2.79,3.23-3.48,6.28-7.12,9.56-10.55,2.68-2.8,5.71-5.29,8.39-8.09,2.17-2.28,3.91-5,6.12-7.22,3.72-3.76,7.64-7.33,11.51-10.94s8-7.46,12.05-11.1c5.95-5.32,11.74-10.86,18-15.76,8.48-6.61,17.3-12.8,27.09-17.46,3.47-1.66,6.58-4.19,10.14-5.57,9.23-3.56,18.61-6.7,27.93-10,2.66-1,5.25-2.42,8-2.77q11.18-1.45,22.44-2.09a104.82,104.82,0,0,1,14.17.39c2.57.21,5.07,1.21,7.63,1.72,7.44,1.48,14.16,4.82,20.82,8.19s13.14,7.24,19.65,11c5.39,3.08,10.8,6.14,16.05,9.44C596.72,133.74,601.38,137.13,606.14,140.37Z"/><path class="cls-2" d="M1280.17,46.08l1.36,37.17a15.23,15.23,0,0,0-3.07-.2c-5.16.71-10.4,1.14-15.44,2.38-7.32,1.8-14.55,4.06-21.71,6.44-4.74,1.57-9.3,3.68-13.93,5.59-6.61,2.71-13.3,5.29-19.81,8.24-5.88,2.67-11.57,5.77-17.35,8.68-4.73,2.39-9.61,4.51-14.15,7.22-7.59,4.53-15.06,9.29-22.4,14.21-6.48,4.35-12.85,8.89-19,13.63-10.62,8.13-21.19,16.33-31.53,24.81-9.84,8.08-19.38,16.52-29,24.87-6.62,5.75-13.08,11.69-19.72,17.42-5.81,5-11.72,9.9-17.67,14.74q-9.84,8-19.87,15.83c-7.37,5.71-14.83,11.29-22.28,16.9-5.94,4.46-11.84,9-17.88,13.29-5.53,3.94-11.12,7.81-16.89,11.38-6.7,4.15-13.51,8.15-20.47,11.83-8.26,4.36-16.67,8.43-25.13,12.37a116.74,116.74,0,0,1-14.92,5.94c-10.43,3.22-20.94,6.17-31.48,9-4.89,1.29-9.93,2-14.92,2.89-6.61,1.17-13.21,2.73-19.87,3.18-6.43.44-13-.14-19.41-.59a89.23,89.23,0,0,1-13.11-1.88,118.15,118.15,0,0,1-17.34-4.85A131.38,131.38,0,0,1,766,317.91a128,128,0,0,1-16.11-10.46,130.13,130.13,0,0,1-14.29-13.6q-8.82-9.5-17-19.61c-7.57-9.44-14.73-19.21-22.21-28.73-4.25-5.41-8.81-10.56-13.18-15.87a31.82,31.82,0,0,1-2.51-3.75c-1.74-2.9-3.37-5.86-5.15-8.74-1.46-2.37-3.06-4.65-4.84-7.33,1.09,0,1.58-.22,1.81,0,4.9,3.61,10,7,14.56,11,3.88,3.45,7.06,7.68,10.57,11.55.69.76,1.4,1.51,2.16,2.2,2.46,2.23,5,4.33,7.41,6.66,5.85,5.8,11.37,11.95,17.44,17.5,6.64,6.07,14,11.37,20.59,17.48S759.76,285.7,767,290.4c3.05,2,6.77,2.89,10.18,4.3,5.68,2.36,11.29,4.89,17,7A72,72,0,0,0,807,305.41c5.77,1,11.32,2.86,17.3,3.15,5.39.26,10.68.77,16.07,0,5.63-.84,11.28,0,17-2.28s11.93-2.91,17.7-5.58,12.52-4,18.75-6c3.74-1.24,7.4-2.76,11-4.35,2.6-1.15,5-2.72,7.59-3.91,6-2.77,12.27-4.93,17.83-8.8,4.32-3,9.4-4.91,13.95-7.63,3.17-1.9,5.91-4.53,9-6.51,6.56-4.14,13.25-8.05,19.16-13.16,4.48-3.87,9.37-7.28,13.9-11.09,7-5.85,13.66-12,20.63-17.79,6.2-5.17,12.6-10.09,18.91-15.13l23.57-18.79c5.87-4.68,11.71-9.4,17.64-14,5.24-4.08,10.56-8,15.88-12,7.26-5.42,14.53-10.86,21.86-16.2,4.72-3.44,9.6-6.65,14.33-10.07,5.82-4.19,11.56-8.48,17.31-12.76,2.3-1.72,4.54-3.53,6.81-5.3l-.46-.61c-.89.64-1.75,1.31-2.67,1.91-4.23,2.74-8.63,5.26-12.69,8.23-8.59,6.27-17,12.83-25.5,19.17-6.32,4.7-12.79,9.19-19.13,13.87s-12.9,9.59-19.25,14.51c-6.62,5.12-13.12,10.41-19.68,15.61s-13.4,10.56-20.09,15.86-13.34,10.41-19.85,15.81-12.81,11.28-19.41,16.69c-6.35,5.21-12.84,10.29-19.52,15.06-6.09,4.34-12.45,8.3-18.83,12.21s-12.72,7.63-19.27,11.11c-5.68,3-11.52,5.8-17.44,8.33-7.9,3.38-15.94,6.45-23.93,9.6-4.18,1.65-8.32,3.43-12.62,4.69a151.74,151.74,0,0,1-15.21,3.53c-6.45,1.18-12.94,2.65-19.46,2.86A113.92,113.92,0,0,1,817.36,304c-5.74-.89-11.33-2.82-17-4.4a118,118,0,0,1-12-3.77,168.64,168.64,0,0,1-15.95-7.29c-5.88-3.11-11.65-6.48-17.19-10.15a151.32,151.32,0,0,1-12.76-9.87c-4.87-4.05-9.69-8.18-14.33-12.49-5.75-5.34-11.66-10.58-16.84-16.44C700,226.87,687,216.24,673.43,206.1c-4.64-3.47-9.33-6.84-12.77-11.58-1.95-2.69-3.66-5.56-5.51-8.33-1.67-2.5-3.43-4.94-5.08-7.45-2.24-3.4-4.42-6.84-6.63-10.26L644,168a10.26,10.26,0,0,1,1.61,1.12c2,2.11,4,4.3,6.06,6.39,6.78,6.88,13.49,13.83,20.42,20.56,3.74,3.64,7.86,6.89,11.79,10.33,1.2,1.05,2.29,2.21,3.53,3.21,6.17,5,12.59,9.61,18.5,14.86a220.73,220.73,0,0,0,21.4,16.46c4,2.72,8.24,5,12.34,7.47,2.49,1.53,4.82,3.35,7.37,4.77,6.41,3.57,12.85,7.09,19.37,10.44,4.16,2.15,8.44,4.13,12.78,5.88C785,271.83,791,274,796.91,276a100.49,100.49,0,0,0,11.14,3.22,70.8,70.8,0,0,0,9.85,1.29,54.47,54.47,0,0,0,10.36.24c11.85-1.37,23.87-1,35.54-4.26,5.22-1.45,10.65-1.89,15.84-3.89,6.33-2.44,12.83-4.28,18.94-7.43,5.58-2.89,11.74-4.61,17.5-7.16,6.64-2.94,13.52-5.35,19.46-9.79,4.35-3.27,9.17-5.9,13.68-9,4.12-2.8,8-6,12.17-8.68,6.37-4.12,12.93-7.95,19.39-11.95,5.11-3.16,10.23-6.33,15.28-9.59,4.19-2.71,8.83-5,12.33-8.45,8.86-8.71,18.92-15.86,29.06-22.83,6.53-4.49,13.08-8.89,19.24-13.88,9.23-7.48,18.66-14.71,27.89-22.18,8.41-6.8,16.66-13.8,25-20.66,2.63-2.17,5.5-4,8.06-6.29,3.85-3.39,7.34-7.21,11.31-10.44,5.15-4.19,10.56-8.07,16-11.93,7.21-5.15,14.4-10.33,21.82-15.17,6.68-4.36,13.6-8.35,20.5-12.35,5.81-3.37,11.7-6.59,17.62-9.73,3.77-2,7.62-3.89,11.54-5.58,4.27-1.84,8.63-3.49,13-5,2.84-1,5.9-1.42,8.65-2.59,7.73-3.3,15.7-3.17,23.58-1.47C1267.94,41.83,1274,44.17,1280.17,46.08Z"/><path class="cls-2" d="M1280,40.36c-2.76-.63-5.54-1.2-8.29-1.9-3.45-.87-6.85-2-10.33-2.73-5.45-1.21-11-.6-16.29.54a151.38,151.38,0,0,0-21.37,6.21,171.07,171.07,0,0,0-19,9c-6.42,3.38-12.71,7-18.91,10.8-9.69,5.92-19.43,11.8-28.83,18.18-7,4.74-13.47,10.21-20.14,15.42-4.72,3.69-9.46,7.39-14,11.27-7.24,6.14-14.29,12.49-21.54,18.62-2.16,1.82-4.83,3-7.07,4.79-6.35,5-12.58,10.07-18.89,15.1-8.65,6.9-17.27,13.87-26,20.63-3.47,2.68-7.35,4.83-11,7.34-5.33,3.71-10.71,7.36-15.83,11.33-4.48,3.48-8.53,7.51-13,11-3.59,2.84-7.43,5.38-11.27,7.86-5.88,3.81-11.86,7.47-17.81,11.16-8.38,5.19-17.18,9.81-25,15.7-6.48,4.85-13.55,8.77-19.91,13.64-5.62,4.3-12,6.65-18.25,9.38-7.6,3.29-15,6.95-22.77,9.94s-15,6.8-23.25,8.06c-8.45,1.29-16.83,3.05-25.28,4.26-5.48.79-11,1-16.57,1.41-3.38.22-6.88.79-10.15.2a225.78,225.78,0,0,1-22.42-5.1,161.29,161.29,0,0,1-16.6-6.25c-6.64-2.72-13.28-5.48-19.76-8.55-3.49-1.66-6.6-4.09-10-6.05-6-3.51-12.14-6.82-18.08-10.44-4-2.43-7.79-5.2-11.58-7.93q-9.24-6.67-18.35-13.52a28,28,0,0,1-3.68-3.38c-5.38-5.76-11.59-10.52-17.7-15.46-6.45-5.22-12.25-11.26-18.2-17.08-6.31-6.18-12.48-12.53-18.69-18.83a12.54,12.54,0,0,1-1.3-1.88l.36-.62a8.84,8.84,0,0,1,2.53,1c7.13,5.76,14.19,11.6,21.3,17.39,3.06,2.49,6.22,4.86,9.25,7.39,5.53,4.63,10.86,9.51,16.53,14,4.65,3.65,9.68,6.8,14.5,10.23,8,5.69,15.84,11.56,24,17.05,3.36,2.28,7.26,3.76,10.86,5.68,4.5,2.4,8.86,5.06,13.45,7.26a98,98,0,0,0,9.72,3.57c3.49,1.23,7,2.51,10.5,3.64,2.08.67,4.25,1.06,6.36,1.64,3.2.88,6.35,2,9.57,2.67a80,80,0,0,0,10.29,1.7q11.58,1,23.2,1.64a32.59,32.59,0,0,0,7.3-.56q15.79-2.75,31.56-5.71c9.48-1.77,19-3.47,28.4-5.58,3.63-.82,7-2.68,10.55-4s7.1-2.75,10.66-4.08c7.11-2.65,14.3-5.09,21.31-8,5.9-2.43,11.63-5.32,17.36-8.15,2-1,3.61-2.59,5.58-3.57,4.68-2.31,9.59-4.2,14.18-6.67,4.92-2.66,9.68-5.66,14.35-8.74,6.14-4.06,12.09-8.39,18.19-12.51,2.47-1.66,5.29-2.85,7.65-4.64,3.84-2.91,7.43-6.15,11.16-9.2,1.1-.9,2.41-1.55,3.49-2.47,5.54-4.7,11.12-9.37,16.53-14.21,8.14-7.29,16.57-14.33,24.12-22.2,7.25-7.55,15.31-14.15,22.77-21.43,2.94-2.87,5.38-6.24,8.26-9.19,3.75-3.86,7.67-7.57,11.6-11.25C1117.11,88.72,1124,82.27,1131,76c5.72-5.12,11.67-10,17.47-15,3.77-3.27,7.31-6.82,11.21-9.91,7.63-6,15.35-12,24.07-16.41,5.19-2.66,10.27-5.53,15.44-8.22,1.4-.73,3-1.05,4.42-1.72,6.55-3.06,13.66-4.37,20.42-6.68s13.64-1.67,20.38-3a29.91,29.91,0,0,1,6.89-.1c7.92.35,15.83.8,23.75,1.17,1.34.07,2.69,0,4-.06Z"/><path class="cls-2" d="M1279,13.2c-11.29-.55-22.58-1.36-33.87-1.54a69.19,69.19,0,0,0-16.74,1.71c-7,1.65-13.84,4.22-20.67,6.64a110.78,110.78,0,0,0-14,5.76,232.46,232.46,0,0,0-20.73,11.94,222.9,222.9,0,0,0-18.09,13.78c-7.13,5.88-14.08,12-21,18.14-6.27,5.58-12.38,11.34-18.54,17-4.52,4.19-9.13,8.3-13.48,12.67-4.18,4.19-7.94,8.81-12.13,13-4.54,4.53-9.4,8.74-14,13.17-3.08,2.95-6,6.1-9.06,9-4,3.75-8.1,7.36-12.15,11-7.59,6.89-15.12,13.84-22.81,20.61-2.36,2.08-5.29,3.48-7.74,5.46-3.8,3.08-7.32,6.5-11.13,9.55-2,1.61-4.48,2.64-6.62,4.1-4.16,2.85-8.21,5.87-12.38,8.72-2.66,1.82-5.44,3.46-8.18,5.17-4.21,2.63-8.33,5.44-12.68,7.82-5.06,2.76-10.69,4.62-15.42,7.84a83.48,83.48,0,0,1-13.91,7.44c-7.54,3.26-15.05,6.62-22.67,9.68-6,2.42-12.41,3.94-18.19,6.78-5.53,2.72-11.29,3.95-17.18,5s-11.65,2-17.47,3.11c-4.89.89-10,1.18-14.61,2.92-7.4,2.8-15.22,1.81-22.68,3.57-1.35.32-2.85-.06-4.27,0-5.13.16-10.27.6-15.39.46a56.66,56.66,0,0,1-10.66-1.49c-6.5-1.43-13-3-19.39-4.77-3.72-1-7.32-2.56-10.94-4-5.06-2-10.22-3.76-15.11-6.09-5.13-2.45-9.77-6.08-15.06-8-6.2-2.29-10.68-6.6-15.75-10.38-6.4-4.76-13.32-8.81-20-13.26a95.56,95.56,0,0,1-8.24-6c-5.17-4.32-10.14-8.89-15.32-13.21-6.14-5.13-12.3-10.25-18.66-15.1-5.53-4.21-11.41-8-17-12.08-2.55-1.87-4.85-4.1-7.25-6.17-5.09-4.39-10.2-8.76-15.25-13.2-5.72-5-11.3-10.2-17.1-15.13-4.51-3.85-9.3-7.37-13.89-11.12-5.51-4.5-10.95-9.1-16.42-13.67-.09-.07-.07-.28-.24-1,1.9.61,3.56,1,5.15,1.67a80.18,80.18,0,0,1,20,11.53,142.53,142.53,0,0,0,17.15,11.85c8.23,4.76,15.14,11.1,22.42,17s13.39,13.22,19.93,20c6.19,6.4,13.28,11.93,20,17.75a72.2,72.2,0,0,0,9.17,7.15c7.14,4.35,14.47,8.4,21.78,12.46a73.26,73.26,0,0,0,8.76,4.19c4.39,1.72,8.91,3.09,13.33,4.71,6.29,2.32,12.53,4.79,18.83,7.08,5.87,2.14,11.76,4.24,17.7,6.14,4.94,1.58,10,2.83,15,4.24,5.83,1.64,11.6,3.58,17.51,4.87,5,1.08,10.16,1.5,15.26,2.08,5.8.66,11.59,1.54,17.41,1.68,7.56.18,15.14-.34,22.72-.45,7.81-.11,15.13-2.66,22.55-4.58,7.88-2,15.64-4.51,23.45-6.83,6.13-1.82,12.27-3.62,18.36-5.56,5.72-1.82,11.42-3.69,17.05-5.76,6-2.2,12-4.44,17.84-7.06q10.17-4.58,20-9.87a184.29,184.29,0,0,0,16.67-10c7.56-5.17,14.89-10.7,22.21-16.21,5.94-4.48,12-8.9,17.53-13.84,8.27-7.34,16.16-15.1,24.19-22.71,2.08-2,4.16-3.93,6.11-6q15.13-16.24,30.2-32.57c5.31-5.77,10.49-11.65,15.8-17.41,4.62-5,9.28-10,14-14.79,3.84-3.89,8.11-7.36,11.76-11.39,5.92-6.54,13.19-11.31,20.22-16.42,6.3-4.57,13.1-8.53,19-13.5,7.81-6.54,17.41-9.49,26.08-14.29,1.76-1,3.93-1.19,5.93-1.7,6.38-1.62,12.77-3,19.44-2.55,6.29.4,12.61.85,18.91.74,5.66-.1,10.85,1.56,16.15,3s10.62,2.8,15.94,4.14a9.18,9.18,0,0,0,2.34,0Z"/></g></g></g></svg>