<svg xmlns="http://www.w3.org/2000/svg" viewBox="0 0 1270.9 310.85"><defs><style>.cls-1{opacity:0.26;}.cls-2{fill:#c7c2bc;}</style></defs><g id="レイヤー_2" data-name="レイヤー 2"><g id="レイヤー_1-2" data-name="レイヤー 1"><g class="cls-1"><path class="cls-2" d="M0,157.37c4.18-2.55,8.3-5.2,12.56-7.62,8.32-4.74,16.58-9.6,25.12-13.9,5.84-2.94,12.14-5,18.19-7.48,5.79-2.42,11.5-5,17.3-7.4,5.35-2.18,10.76-4.2,16.16-6.22,4.58-1.72,9.17-3.42,13.81-5q9.35-3.13,18.78-6c3.56-1.09,7.13-2.43,10.79-2.85a160.53,160.53,0,0,1,18-1c6.59,0,13.19.4,19.78.66a3.83,3.83,0,0,1,2.39.88l-25,5.14c0,.24,0,.48,0,.71a20.22,20.22,0,0,0,2.7-.05c8.56-1.26,17.12-2.51,25.66-3.87a96.08,96.08,0,0,1,31.29.54c2.31.39,4.65.62,7,1a14.39,14.39,0,0,1,2.21.75l0,.67-44.09,8.21,0,.77c2.14-.2,4.28-.29,6.4-.61,8.82-1.32,17.63-2.78,26.47-4,5.66-.81,11.34-1.46,17-2a44.69,44.69,0,0,1,6.32.23c.22,0,.5.14.65.05,2.93-1.8,5.72-.14,8.46.47,5.16,1.15,10.25,2.64,15.37,4,0,.2-.09.4-.13.6l-37,2.59,0,1.15c2.06,0,4.13,0,6.2-.09,12.67-.42,25.35-1,38-1.15,3.33,0,6.71,1.33,10,2.22,2.54.68,5,1.62,7.5,2.47a7,7,0,0,1,1.28,1,23.52,23.52,0,0,1-2.49.35c-8.95.11-17.91,0-26.85.37s-18.12,1.34-27.17,2.15c-6.86.61-13.72,1.31-20.56,2.14-4.87.59-9.71,1.42-14.56,2.2-3.9.62-7.83,1.19-11.69,2-7.72,1.66-15.42,3.38-23.09,5.27-5.32,1.31-10.6,2.84-15.84,4.46-4.88,1.52-9.7,3.25-14.52,4.95-2.16.76-4.26,1.69-6.38,2.54.06.21.12.41.19.61,2.26-.58,4.55-1.08,6.78-1.77,9.53-2.92,19-6.23,28.58-8.78,9.33-2.47,18.81-4.56,28.33-6.15,12.14-2,24.34-3.86,36.59-4.92,21-1.8,42-3.73,63.06-1.93a106.23,106.23,0,0,1,15.2,2.2c3.79.9,7.33,2.82,11,4.31,1.55.64,3.1,1.3,4.62,2a3.39,3.39,0,0,1,1.54,1.4c-12.63-1.49-25.19-.8-37.71,0s-25,2.35-37.47,3.58c0,.23,0,.45.05.68,2.13,0,4.27.05,6.4-.11,4.16-.32,8.3-1,12.46-1.12,8.5-.29,17,.05,25.52-.57,9.06-.66,18,.12,27,.7,3.92.25,7.78,1.93,11.67,1.93,6.83,0,12.25,3.53,18.09,6.1,2.2,1,4.35,2.07,6.51,3.15a17.79,17.79,0,0,1,1.7,1.06l-.18.66c-1.67-.15-3.35-.21-5-.45-7.66-1.15-15.3-2.61-23-3.44-8.57-.93-17.2-1.73-25.81-1.8-11.94-.09-23.9.35-35.83.92-8.2.39-16.36,1.41-24.54,2.1-6.21.53-12.45.79-18.64,1.54-7.12.87-14.25,1.88-21.27,3.33q-14,2.88-27.77,6.57c-8.68,2.32-17.27,5-25.86,7.72-4,1.27-8,2.92-11.94,4.42-9.44,3.55-19,6.89-28.29,10.76-8.31,3.44-16.41,7.42-24.54,11.29-6.87,3.27-13.86,6.36-20.43,10.18-11.36,6.6-23.17,12.45-33.88,20.2-4.47,3.24-9.5,5.71-14.23,8.61-1.42.88-2.7,2-4,3L.78,214.12c.87-.53,1.76-1,2.6-1.6,7.44-5.05,14.69-10.39,22.34-15.11,12.57-7.76,25.46-15,38.11-22.67s26.36-13.74,39.8-20.09c1.24-.59,2.46-1.21,3.7-1.82a2.17,2.17,0,0,0-1.85-.2c-8.52,3.66-17.24,7-25.49,11.14-10.49,5.31-20.64,11.29-30.86,17.12-8.63,4.93-17.24,9.9-25.68,15.15-7.7,4.8-15.15,10-22.71,15Zm91.27-8.2c-5.47-.3-42,19.08-47.15,25C59.7,165.63,74.65,155.89,91.27,149.17Zm82.43-26.46.15.91,37.61-5.6C198.71,118.35,186.07,119.52,173.7,122.71ZM14.9,191.63l-.33-.54L3.09,198.36l.51.79Zm123.48-82c-.06-.29-.11-.58-.17-.86l-10.05,2.14c.07.32.13.64.2,1ZM167,123.9c0,.28.07.57.1.85l4.86-.68-.13-.82Z"/><path class="cls-2" d="M1270.9,66c-13.76.9-27.53,1.61-41.26,2.76-8.82.75-17.63,1.91-26.38,3.3s-17.16,3.08-25.67,5-17,4-25.36,6.31c-7.4,2.07-14.74,4.4-22,7-8.94,3.25-17.85,6.63-26.54,10.48q-15.15,6.72-29.87,14.4c-11.49,6-23,12-34,18.8-14.44,8.94-28.5,18.52-42.48,28.19-6.78,4.68-13,10.25-19.48,15.31-4,3.15-8.26,6.09-12.48,9a273.82,273.82,0,0,1,45.89-41.85l-.54-.77-5.2,2.61-.48-.69a27.8,27.8,0,0,1,2.36-2.25c4.88-3.78,9.7-7.64,14.7-11.25,8.27-6,16.65-11.78,25-17.6,4.55-3.17,9-6.43,13.8-9.26,3.63-2.16,7.64-3.66,11.44-5.53,4.31-2.11,8.56-4.36,12.88-6.45,6.17-3,12.41-5.82,18.59-8.79,4-1.93,7.91-4.08,11.94-6,4.76-2.21,9.57-4.33,14.44-6.3,5.86-2.37,11.85-4.47,17.71-6.84,4.93-2,9.74-4.29,14.66-6.29,2.89-1.18,5.91-2,8.85-3.08,4.32-1.56,8.59-3.26,12.93-4.76,6.28-2.16,12.57-4.29,18.91-6.25,7.19-2.22,14.4-4.39,21.68-6.29s14.66-3.48,22-5.1c6.22-1.38,12.46-2.62,18.69-3.92,1.57-.32,3.15-.61,4.73-.92l.2,14.52-15.24,2.81.17,1,15.09-2.54Zm-241.28,66.66-.53-.83a79.11,79.11,0,0,0-13.61,8.76l.45.7ZM1252.79,48l-.14-.79-8.81,2,.11.54Zm-216.73,80.42-.44-.7-4.75,3,.33.53Z"/><path class="cls-2" d="M1270.35,26c-4.47.81-8.95,1.57-13.4,2.45-5.6,1.12-11.21,2.18-16.76,3.53-10.38,2.51-20.78,5-31.06,7.9-7.73,2.19-15.28,5-22.9,7.59-5.48,1.84-11,3.61-16.39,5.65s-10.4,4.33-15.63,6.42c-2.71,1.09-5.55,1.86-8.25,3-6.14,2.56-12.27,5.17-18.33,7.91q-11.3,5.1-22.47,10.44c-4.88,2.33-9.65,4.89-14.5,7.29-5.3,2.62-10.7,5-15.94,7.79-3.42,1.78-6.61,4-10,6-5.23,3-10.67,5.76-15.72,9.06-9.18,6-18.13,12.3-27.19,18.47-1,.71-2.1,1.37-3.16,2.05l-.41-.49a22.5,22.5,0,0,1,2-2.24c4.94-4.3,9.74-8.79,14.92-12.78,5.36-4.13,11.08-7.79,16.67-11.61,6.51-4.45,12.94-9,19.6-13.24,8.27-5.22,16.55-10.41,25.44-14.6,5.47-2.58,10.48-6.15,16-8.67,9.23-4.24,18.67-8,28-12,7-2.91,13.82-6.06,20.93-8.53,10.79-3.75,21.78-6.92,32.62-10.52,5.49-1.82,10.84-4,16.26-6.07l2.44-.91c-1.77-.83-19.75,4.6-32.23,9.11-10.69,3.86-21.53,7.32-32.12,11.44s-20.82,8.75-31.21,13.19-20.19,10.16-29.85,16.05-19.6,11.56-29.15,17.72-18.57,12.7-28.1,18.9a20.39,20.39,0,0,1,1.57-1.78c5.74-5.1,11.37-10.34,17.3-15.22,4.31-3.55,9-6.62,13.57-9.87,3.24-2.32,6.44-4.71,9.79-6.87,10.48-6.75,20.94-13.54,31.56-20,7.53-4.62,15.23-9,23-13.16,5.83-3.15,11.85-6,17.85-8.77s12-5.53,18.11-8.05q11.19-4.62,22.57-8.82c8.64-3.18,17.3-6.31,26.07-9.11,4-1.29,7.86-3.34,12.37-3.35,2.39,0,4.78-1.42,7.17-2.18,1.77-.57,3.52-1.18,5.31-1.64,2.36-.6,4.75-1.07,7.12-1.61,2-.47,4.06-1,6.08-1.45,2.25-.54,4.49-1.14,6.75-1.61,4.42-.94,8.85-1.81,13.27-2.7Z"/><path class="cls-2" d="M1.12,238.76c3-2,6.06-4,9.06-6a240,240,0,0,1,27-15.82c6-3,11.68-6.6,17.63-9.69,5.36-2.79,10.87-5.29,16.33-7.88,9.34-4.42,18.65-8.87,28.05-13.16,3.72-1.7,7.62-3,11.44-4.45,4.22-1.62,8.42-3.26,12.67-4.8,3.29-1.19,6.65-2.19,9.94-3.37,4.75-1.68,9.39-3.69,14.2-5.13,7.7-2.3,15.51-4.22,23.25-6.36,3.88-1.07,7.65-2.58,11.58-3.36,7.74-1.55,15.53-2.84,23.34-4,8.83-1.34,17.68-2.68,26.57-3.59s17.73-.83,26.5-2c10.11-1.31,20.21-.94,30.31-.86a184.86,184.86,0,0,1,32.6,2.78c6.25,1.17,12.62,1.76,18.85,3,5.29,1.09,10.44,2.84,15.68,4.19,2.65.68,5.44.89,8,1.71a41.62,41.62,0,0,1,6.09,3,64.26,64.26,0,0,1,8.61,5.07c-1.51-.4-3-.79-4.53-1.2-7.11-2-14.15-4.2-21.33-5.79-6.41-1.41-13-2.13-19.49-3.1-5-.75-10-1.54-15-2.1a158.26,158.26,0,0,0-17.07-1.45q-28.17,0-56.34.53A80.55,80.55,0,0,0,232,156.58c-11.73,2.2-23.48,4.37-35.14,6.94s-23,5.23-34.34,8.48a221.66,221.66,0,0,0-24,8.65c-14.6,6.06-29,12.52-43.56,18.78-8.34,3.6-15.71,8.82-23.23,13.77-9.55,6.28-19.34,12.26-28.42,19.16C35.06,238.68,27.45,246,19.66,253c-6.15,5.54-12.08,11.33-18.11,17Z"/><path class="cls-2" d="M273.63,90.38a10.21,10.21,0,0,1,2.18-.22c7.22.73,14.45,1.37,21.64,2.31,5.79.75,11.58,1.67,17.29,2.89s11.59,3,17.39,4.44c2.11.54,4.34.72,6.37,1.44,5,1.78,10,3.65,14.87,5.73,5.77,2.46,11.47,5.12,17.15,7.82,10.16,4.82,20.36,9.58,30.41,14.64a485,485,0,0,1,46.69,27c6.23,4.07,12.92,7.46,19.4,11.16,10.43,5.94,20.85,11.9,31.3,17.79A127.05,127.05,0,0,0,518,194.1c5.84,2.1,11.52,4.65,17.22,7.14,10.45,4.58,20.83,9.3,31.76,12.69,7.2,2.23,14.26,4.87,21.44,7.15,12.7,4,25.4,8.06,38.18,11.79,4.76,1.39,9.77,1.89,14.65,2.91s9.55,2.22,14.34,3.24c8.93,1.91,17.7,4.48,27,4.66,10.54.2,21.07,1.27,31.62,1.84,4.61.25,9.24.16,13.86.29,2.71.08,5.41.45,8.12.39,4.75-.09,9.5-.51,14.26-.63,5.28-.14,10.57.1,15.83-.2,5.69-.32,11.36-1.13,17-1.63a87.3,87.3,0,0,1,9-.41,73.37,73.37,0,0,0,16.76-2c5.79-1.24,11.66-2.12,17.49-3.23,2-.38,4-1,6-1.43,5.1-1,10.29-1.6,15.3-2.92,4.13-1.09,8.05-3,12.06-4.52,4.48-1.71,9-3.41,13.44-5.17,3.59-1.42,7.25-2.72,10.71-4.43,6.52-3.23,12.86-6.81,19.37-10,3.26-1.61,6.84-2.55,10.09-4.18,3.77-1.88,7.33-4.17,11-6.29,3.49-2,7-4.1,10.49-6.11.3-.18.79,0,1.4.41a52.16,52.16,0,0,0-4.45,2.81c-4.27,3.3-8.43,6.75-12.71,10.05-2.6,2-5.3,3.9-8,5.77-5.19,3.57-10.32,7.25-15.66,10.58-6.9,4.3-14.22,8-20.93,12.53-6.89,4.7-14.62,7.37-22.07,10.76a89.08,89.08,0,0,1-16.22,6,36.38,36.38,0,0,0-8.69,3.61,73.88,73.88,0,0,1-17.07,6.24c-7.3,1.87-14.51,4.11-21.84,5.85a167.6,167.6,0,0,1-20.48,4c-10.42,1.13-20.91,1.63-31.38,2.14a166.16,166.16,0,0,1-20.45.17c-9.76-.72-19.48-2.12-29.21-3.36-6.6-.84-13.2-1.72-19.75-2.9-7.63-1.38-15.19-3.11-22.79-4.65-4.72-1-9.53-1.62-14.18-2.86-4.93-1.31-9.72-3.15-14.58-4.74-7.41-2.43-14.85-4.81-22.25-7.28-5.6-1.88-11.28-3.61-16.73-5.88-9.16-3.81-18.14-8.06-27.23-12-6.49-2.83-13.07-5.44-19.55-8.29-9.94-4.39-19.95-8.65-29.68-13.46-5.35-2.64-10.24-6.22-15.25-9.51a182.9,182.9,0,0,0-22.84-13c-4.81-2.26-9.16-5.47-13.78-8.13Q430.23,167.39,411.82,157c-4.12-2.34-8.06-5.4-12.5-6.69-6.64-1.92-11.52-6.56-17.41-9.55-6.7-3.41-12.92-7.88-19.84-10.69-8.19-3.33-15.11-8.53-22.55-13A100.33,100.33,0,0,0,326.43,111c-8-3.33-16.11-6.5-24.18-9.69-1.49-.59-3.07-.91-4.58-1.43-3.25-1.1-6.49-2.2-9.7-3.38-4.45-1.64-8.87-3.36-13.29-5.06a7.26,7.26,0,0,1-1.08-.61Z"/><path class="cls-2" d="M371.47,110.72c1.75.56,3.52,1.06,5.24,1.67q12.6,4.52,25.17,9.09c9.14,3.31,18.26,6.65,27.41,9.94,6.4,2.31,12.85,4.48,19.23,6.82,6.58,2.42,13.09,5,19.66,7.46,5.07,1.89,10.25,3.5,15.24,5.57,4.24,1.75,8.19,4.19,12.41,6,6.18,2.61,12.5,4.89,18.75,7.35q7.14,2.82,14.26,5.71L550,178.89c5.89,2.4,11.73,4.92,17.7,7.13,3.69,1.36,7.59,2.14,11.34,3.35q7.15,2.31,14.21,4.91c7.46,2.75,14.84,5.74,22.34,8.38,7.22,2.54,14.54,4.79,21.83,7.13,7.67,2.46,15.34,4.93,23,7.29,6.57,2,13.14,4,19.78,5.81,17.87,4.76,36,7.66,54.56,6.33,8.77-.62,17.51-1.73,26.28-2.26a86.15,86.15,0,0,1,14.72.37c7.38.85,14.65.12,22-.54,2.41-.21,4.84-.22,7.24-.47,6.26-.66,12.51-1.34,18.75-2.14,5.22-.67,10.46-1.34,15.62-2.36,3.56-.71,7-2.12,10.5-3,5.15-1.37,10.37-2.51,15.52-3.89,3.22-.87,6.4-1.91,9.55-3s6.28-2.29,9.33-3.66c4.31-1.95,8.5-4.15,12.79-6.12,2.85-1.31,5.81-2.35,8.67-3.62,4.59-2,9.25-3.95,13.68-6.3,8.87-4.7,17.73-9.46,26.35-14.6,5.5-3.29,10.64-7.19,15.8-11,7.15-5.31,14.07-10.94,21.27-16.18,5.77-4.21,11.8-8.05,17.73-12,.19-.12.52,0,1.15,0-3.84,5-7.65,9.56-12.36,13.33-8.14,6.53-17.33,11.45-26.15,16.94a90.56,90.56,0,0,0-9,6.33c-9.19,7.37-19.22,13.4-29.46,19.16-4.33,2.44-8.37,5.42-12.77,7.75-3.93,2.08-8.24,3.45-12.26,5.38-7.32,3.52-14.46,7.44-21.86,10.78-5.39,2.43-11.11,4.13-16.63,6.28-3.55,1.38-7,3.12-10.51,4.44a48.44,48.44,0,0,1-7.43,1.89c-11.15,2.19-22.44,3.78-33.41,6.61-9.79,2.54-19.73,1.46-29.47,2.83-10.31,1.46-20.66.76-30.93,1.71-14.46,1.34-28.86-.23-43.3-.08-11.17.11-22.37-1.34-33.55-2.23a49.85,49.85,0,0,1-6.87-1.41c-9.26-2.11-18.51-4.28-27.78-6.34-8.63-1.92-17.33-3.51-25.74-6.41s-17.06-5.15-25.54-7.9c-5.69-1.84-11.26-4.07-16.9-6.07-5.3-1.87-10.67-3.54-15.93-5.52-4.78-1.8-9.45-3.88-14.15-5.86-5.92-2.51-11.73-5.28-17.74-7.52a232.35,232.35,0,0,1-39.73-18.88c-8.56-5.2-17.34-10-25.93-15.18-9.09-5.46-18-11.16-27.11-16.65-6.81-4.13-13.59-8.35-20.64-12-7.62-4-15.55-7.38-23.31-11.1-4.71-2.25-9.35-4.64-14-7Z"/><path class="cls-2" d="M228.89,87.36q5.64.51,11.28,1a16.1,16.1,0,0,0,1.7.41c6.76-.17,13.18,1.73,19.7,3.1,3.12.65,6.43.54,9.46,1.43s5.92,2.88,9,4c7.28,2.63,14.66,5,22,7.54,3.16,1.12,6.22,2.56,9.33,3.82,5.15,2.09,10.23,4.36,15.47,6.2,8.32,2.92,15.61,7.54,22.77,12.55,3.25,2.27,7.18,3.56,10.73,5.44,4.9,2.6,9.78,5.26,14.59,8,6,3.45,11.91,7.14,18,10.47,2.4,1.31,5.31,1.68,7.75,2.94,4.54,2.33,8.92,5,13.36,7.53,12.06,6.89,24.1,13.84,36.19,20.68,7.95,4.5,16.06,8.71,23.94,13.33,5.55,3.25,10.92,6.83,16.2,10.5,6.3,4.38,13.26,7.41,20.17,10.56,10.38,4.72,20.71,9.55,31.14,14.18,6.54,2.9,13.24,5.46,19.83,8.25,5.45,2.31,10.77,4.95,16.3,7,6.15,2.32,12.49,4.13,18.72,6.22C605.76,255.7,615,259,624.33,262c5.14,1.63,10.43,2.79,15.7,4,6.56,1.49,13.14,3,19.77,4.16,9.08,1.6,18.21,2.92,27.33,4.32,4.78.74,9.55,1.55,14.36,2,12.09,1.21,24.18,2.74,36.38,1,2.87-.41,5.84,0,8.76-.18,5.35-.27,10.68-.84,16-.93,7.27-.13,14.13-2.29,21.14-3.75,3.51-.73,7.1-1,10.59-1.84,4.12-.94,8.2-2.1,12.25-3.32,5.31-1.61,10.63-3.24,15.85-5.12,3.41-1.22,6.63-3,10-4.33s6.61-2.3,9.91-3.47c3.08-1.09,6.19-2.12,9.21-3.35,3.78-1.54,7.4-3.51,11.23-4.85,5.74-2,10.64-5.38,15.72-8.54,5.38-3.35,11-6.27,16.41-9.6,4.09-2.52,7.95-5.43,11.94-8.12,4.84-3.26,9.72-6.47,14.57-9.72a11.41,11.41,0,0,0,1.83-1.57A56.92,56.92,0,0,1,935.85,199c4.62-2.77,8.75-6.34,13.09-9.56a1.19,1.19,0,0,1,1.17-.16c-.58.68-1.15,1.36-1.75,2A82.06,82.06,0,0,1,935,202.64c-7,5-13.76,10.49-20.62,15.75-8.21,6.29-16.44,12.54-24.63,18.84-4.41,3.39-8.55,7.16-13.19,10.18-6.68,4.35-13.6,8.34-20.61,12.15-7.4,4-14.86,8-22.57,11.34-9.05,3.93-18,8.1-27.7,10.47-10.38,2.55-20.66,5.52-31.09,7.83a135,135,0,0,1-18.5,2.48c-7.45.57-14.95.85-22.42.85-5.7,0-11.42-1.1-17.1-.9-8.14.28-16-.85-24-2.09-5.77-.91-11.69-.88-17.49-1.7a88.64,88.64,0,0,1-14.52-3.16,144.28,144.28,0,0,0-20.76-5.31,137.59,137.59,0,0,1-24.83-6.46c-4.53-1.64-9.17-3-13.74-4.49-4.77-1.59-9.53-3.24-14.29-4.87-4.14-1.42-8.36-2.65-12.4-4.33-7.48-3.1-14.93-6.3-22.24-9.78q-9.79-4.65-19.24-10c-11.13-6.31-22.08-12.94-33.17-19.31-10.2-5.86-20.42-11.71-30.78-17.28-7.27-3.91-14.84-7.23-22.16-11-6.62-3.43-13-7.26-19.63-10.7-6.86-3.57-13.95-6.71-20.78-10.35-5.49-2.91-10.64-6.44-16.1-9.4-7.52-4.07-15.25-7.75-22.78-11.8-5.61-3-11-6.43-16.58-9.45-7.32-4-14.76-7.72-22.16-11.57-6.29-3.27-12.5-6.7-18.9-9.76-5.52-2.66-11.2-5-16.9-7.29-7.46-3-15-5.78-22.5-8.65-10.51-4-21-8.12-31.55-12-2.58-.94-5.43-1.12-8.14-1.7a18.09,18.09,0,0,1-2.21-.77Z"/><path class="cls-2" d="M165.18,92.49c8.33-3.65,16.93-3.07,25.54-2.4,5.62.44,11.24.87,16.87,1.16s11.28.43,16.92.57c8.77.21,17,2.43,25.13,5.75,8.93,3.65,18.06,6.82,27.06,10.29q9.72,3.75,19.35,7.77c6.94,2.93,14,5.64,20.67,9.13,15.94,8.37,31.64,17.19,47.48,25.74,8.63,4.66,17.41,9,26,13.75,8.21,4.5,16.21,9.39,24.44,13.87,4.55,2.48,9.46,4.3,14.05,6.74,7,3.7,13.75,7.79,20.72,11.49,6.65,3.53,13.5,6.69,20.16,10.18,5.89,3.09,11.66,6.42,17.47,9.66,9.27,5.17,18.58,10.26,27.77,15.55,6.85,3.94,13.42,8.38,20.36,12.14,7.64,4.14,15.55,7.79,23.38,11.57,5.14,2.48,10.25,5.05,15.56,7.12,6,2.35,12.32,4.18,18.48,6.25,5.48,1.84,10.91,3.85,16.45,5.52q12.91,3.89,25.94,7.4c9.46,2.57,18.9,5.19,28.45,7.39,6.48,1.49,13.1,2.38,19.68,3.36s13.19,1.85,19.81,2.5c4.58.46,9.2.45,13.81.66,6.51.29,13,.6,19.54.88a32.8,32.8,0,0,0,3.29,0c7.32-.42,14.66-.67,22-1.35,5.37-.5,10.72-1.41,16-2.44,7-1.36,14-2.93,21-4.58,3.39-.8,6.71-2,10-3,3.9-1.24,8-2.15,11.62-3.89,8.48-4,17.72-6.39,25.57-11.85,2.64-1.84,5.79-3,8.72-4.37.27-.13.68,0,1.2.44-1.78,1.13-3.49,2.39-5.35,3.37-13.66,7.19-27.23,14.6-41.08,21.41a230.6,230.6,0,0,1-38.59,14.5,153.4,153.4,0,0,1-54,5.71c-9-.65-17.94-1.59-26.86-2.79-5.56-.75-11-2.23-16.53-3.4-6.57-1.4-13.17-2.67-19.68-4.29-7.29-1.8-14.51-3.89-21.74-5.93-5-1.41-9.94-2.81-14.83-4.46-7-2.36-13.86-4.94-20.77-7.43-5.22-1.87-10.46-3.69-15.64-5.67-5.93-2.27-11.81-4.66-17.7-7s-11.84-4.59-17.59-7.25a125.82,125.82,0,0,1-13.17-7.25c-13.11-8.13-26.11-16.45-39.19-24.63-11.71-7.32-23.43-14.64-35.24-21.81Q438.5,196.8,419,185.41c-10.47-6.13-21-12.18-31.61-18-11.14-6.11-22.4-12-33.68-17.84Q341.07,143,328.2,136.94c-7.25-3.43-14.63-6.6-22-9.78-6.9-3-13.84-5.84-20.79-8.7-4.51-1.86-9-3.88-13.62-5.38-7.77-2.51-15.64-4.72-23.51-6.93-6-1.68-11.94-3.39-18-4.68-7.63-1.63-15.33-3-23.05-4.21-8.75-1.32-17.56-2.34-26.35-3.36-4-.47-8-.62-12.06-.94C167.6,92.86,166.39,92.65,165.18,92.49Z"/><path class="cls-2" d="M791.88,222.93c.51-.16,1-.36,1.54-.49,7.54-1.75,15.1-3.41,22.62-5.25,5.89-1.43,11.75-3,17.59-4.62s11.55-3.24,17.25-5.07c5.48-1.76,11-3.53,16.27-5.77,6.24-2.66,12.28-5.82,18.38-8.8,7-3.43,14.11-6.72,21-10.41,9.45-5.08,18.74-10.45,28.07-15.75q15-8.51,29.85-17.1,11-6.34,22-12.77,12.38-7.25,24.72-14.58a30.83,30.83,0,0,1,3.37-2,13.44,13.44,0,0,1,3.18-.45c-2,2.26-3.31,4.23-5.07,5.69-4.42,3.69-8.91,7.34-13.6,10.68-16.63,11.85-33.28,23.69-50.11,35.27-5,3.42-10.53,6-15.9,8.88-9.32,4.92-18.53,10.11-28.1,14.49q-18.25,8.35-37,15.49c-6.88,2.62-14.26,3.89-21.32,6.1-8,2.53-16.34,3.4-24.62,4.37-9.09,1.07-18.21,1.92-27.32,2.83a15.37,15.37,0,0,1-2.69-.2Z"/><path class="cls-2" d="M905.23,230.44l5.09-3.89A5.66,5.66,0,0,1,905.23,230.44Z"/></g></g></g></svg>