<svg xmlns="http://www.w3.org/2000/svg" viewBox="0 0 1298.69 309.74"><defs><style>.cls-1{opacity:0.26;}.cls-2{fill:#c7c2bc;}</style></defs><g id="レイヤー_2" data-name="レイヤー 2"><g id="レイヤー_1-2" data-name="レイヤー 1"><g class="cls-1"><path class="cls-2" d="M1298.69,166.9c-4.31,2.55-8.55,5.2-12.93,7.61-8.56,4.72-17.06,9.57-25.84,13.84-6,2.91-12.46,4.89-18.67,7.38-6,2.38-11.81,5-17.77,7.31-5.49,2.15-11,4.14-16.59,6.13-4.7,1.68-9.41,3.35-14.16,4.88q-9.59,3.07-19.26,5.91c-3.64,1.08-7.31,2.39-11,2.77a165.2,165.2,0,0,1-18.35.74c-6.73-.07-13.46-.6-20.19-1a3.9,3.9,0,0,1-2.42-.93l25.55-4.9V216a21.18,21.18,0,0,0-2.76,0c-8.75,1.17-17.51,2.32-26.24,3.59a98.12,98.12,0,0,1-31.94-1c-2.36-.43-4.74-.7-7.09-1.12a14.69,14.69,0,0,1-2.25-.79c0-.23,0-.46,0-.68l45.12-7.77,0-.78c-2.18.17-4.37.23-6.53.52-9,1.23-18,2.6-27.09,3.77-5.78.75-11.6,1.33-17.41,1.8a46.75,46.75,0,0,1-6.46-.32c-.22,0-.5-.15-.66-.06-3,1.8-5.84.06-8.63-.6-5.26-1.25-10.43-2.84-15.63-4.28,0-.21.09-.41.13-.61l37.77-2.13c0-.39,0-.78,0-1.17-2.11,0-4.22,0-6.33,0-13,.24-25.9.69-38.84.64-3.41,0-6.83-1.45-10.2-2.41-2.58-.73-5.09-1.72-7.62-2.63a7.73,7.73,0,0,1-1.3-1,25.56,25.56,0,0,1,2.55-.32c9.14,0,18.29.3,27.42,0s18.52-1.11,27.77-1.81c7-.53,14-1.15,21-1.9,5-.53,9.93-1.31,14.89-2,4-.58,8-1.1,12-1.9,7.9-1.58,15.79-3.23,23.64-5.05,5.46-1.27,10.86-2.76,16.23-4.34,5-1.48,10-3.17,14.9-4.84,2.21-.75,4.37-1.67,6.55-2.51l-.18-.63c-2.32.57-4.67,1-7,1.72-9.77,2.85-19.44,6.09-29.3,8.56-9.56,2.39-19.26,4.39-29,5.88-12.42,1.9-24.9,3.6-37.42,4.51-21.43,1.55-42.9,3.22-64.4,1.08a106.07,106.07,0,0,1-15.49-2.46c-3.85-1-7.45-3-11.15-4.55-1.57-.67-3.14-1.36-4.69-2.1a3.46,3.46,0,0,1-1.55-1.46c12.88,1.7,25.71,1.17,38.5.56s25.54-2.06,38.3-3.13c0-.23,0-.47,0-.7-2.18,0-4.36-.11-6.53,0-4.25.26-8.49.88-12.74,1-8.69.18-17.4-.29-26.06.22-9.26.55-18.41-.37-27.58-1.09-4-.31-7.91-2.07-11.88-2.13-7-.1-12.46-3.78-18.38-6.48-2.24-1-4.41-2.18-6.6-3.31a19.45,19.45,0,0,1-1.73-1.1l.2-.68c1.7.18,3.41.26,5.09.54,7.81,1.27,15.58,2.87,23.43,3.83,8.74,1.06,17.54,2,26.33,2.19,12.19.27,24.4,0,36.59-.43,8.37-.29,16.72-1.21,25.08-1.8,6.35-.46,12.72-.63,19-1.31,7.28-.79,14.57-1.72,21.76-3.1q14.3-2.75,28.44-6.32c8.9-2.24,17.71-4.89,26.51-7.52,4.14-1.24,8.17-2.87,12.25-4.34,9.69-3.5,19.47-6.77,29-10.59,8.53-3.4,16.85-7.34,25.2-11.18,7.06-3.24,14.24-6.3,21-10.1,11.7-6.58,23.83-12.39,34.87-20.15,4.62-3.24,9.78-5.7,14.64-8.59,1.48-.88,2.79-2,4.18-3V109c-.9.53-1.81,1-2.68,1.6-7.66,5-15.14,10.41-23,15.11-13,7.75-26.21,15-39.23,22.61s-27.1,13.66-40.91,20c-1.28.58-2.53,1.2-3.8,1.8a2.22,2.22,0,0,0,1.88.23c8.75-3.62,17.69-6.86,26.18-11,10.78-5.28,21.23-11.24,31.74-17,8.88-4.91,17.74-9.87,26.43-15.11,7.93-4.79,15.61-10,23.4-15ZM1205.4,174c5.58.39,43.13-18.89,48.48-24.88C1237.86,157.64,1222.46,167.37,1205.4,174Zm-84.52,25.86-.14-.94-38.47,5.2C1095.28,204,1108.2,202.94,1120.88,199.86ZM1284,131.72l.33.56,11.82-7.26-.51-.82Zm-127.21,82c0,.29.11.59.17.88l10.28-2.05c-.06-.33-.13-.66-.19-1Zm-29-15-.09-.88-5,.63.12.84Z"/><path class="cls-2" d="M0,242.37c14.05-.73,28.12-1.26,42.15-2.25,9-.63,18-1.69,27-3,8.8-1.27,17.56-2.9,26.27-4.7s17.38-3.81,26-6.09c7.58-2,15.1-4.28,22.51-6.86,9.17-3.19,18.32-6.52,27.24-10.33q15.57-6.65,30.7-14.28c11.81-5.94,23.67-11.9,35-18.71,14.87-8.93,29.36-18.51,43.76-28.18,7-4.69,13.36-10.29,20.1-15.36,4.18-3.16,8.52-6.1,12.86-9.06a279,279,0,0,1-47.42,42.09l.54.79,5.34-2.59.48.71a30.51,30.51,0,0,1-2.44,2.26c-5,3.8-10,7.67-15.17,11.28-8.52,6-17.15,11.79-25.78,17.62-4.68,3.17-9.32,6.44-14.21,9.26-3.73,2.15-7.85,3.63-11.76,5.48-4.43,2.1-8.79,4.33-13.24,6.4-6.34,3-12.75,5.77-19.1,8.72-4.11,1.91-8.13,4-12.27,5.91-4.89,2.18-9.83,4.28-14.83,6.22-6,2.34-12.15,4.4-18.18,6.74-5.06,2-10,4.24-15,6.22-3,1.16-6.07,2-9.09,3-4.43,1.53-8.81,3.2-13.26,4.67-6.44,2.12-12.89,4.2-19.39,6.11-7.37,2.17-14.77,4.28-22.23,6.12s-15,3.35-22.54,4.91c-6.36,1.31-12.75,2.49-19.14,3.73-1.6.31-3.22.58-4.83.87V265.28l15.6-2.66-.17-1.07L0,263.93ZM247.25,177.7l.53.85a80.32,80.32,0,0,0,14-8.75l-.45-.72ZM18.24,261l.12.81,9-2-.11-.55Zm222.37-79.07.44.73,4.89-3-.33-.54Z"/><path class="cls-2" d="M0,283.24c4.57-.77,9.15-1.48,13.71-2.32,5.73-1.06,11.48-2.07,17.16-3.36,10.63-2.42,21.29-4.81,31.82-7.64,7.92-2.12,15.67-4.9,23.48-7.42C91.79,260.69,97.44,259,103,257s10.67-4.27,16-6.34c2.79-1.07,5.7-1.81,8.47-2.92,6.31-2.53,12.6-5.11,18.83-7.82q11.6-5,23.08-10.34c5-2.31,9.92-4.86,14.9-7.24,5.45-2.6,11-5,16.39-7.73,3.52-1.77,6.8-4,10.24-5.93,5.38-3,11-5.73,16.18-9,9.44-6,18.68-12.31,28-18.48,1.06-.71,2.16-1.37,3.25-2l.41.52a22.08,22.08,0,0,1-2.07,2.25c-5.1,4.32-10.07,8.83-15.41,12.84-5.53,4.14-11.42,7.79-17.18,11.62-6.71,4.45-13.33,9-20.2,13.24-8.51,5.21-17,10.4-26.17,14.55-5.62,2.55-10.78,6.13-16.42,8.63-9.49,4.19-19.18,7.92-28.8,11.8-7.14,2.87-14.2,6-21.49,8.41-11.07,3.68-22.33,6.76-33.45,10.28-5.63,1.78-11.13,4-16.68,6l-2.51.9c1.79.87,20.23-4.42,33-8.85,11-3.79,22.08-7.17,32.94-11.22s21.38-8.65,32-13,20.76-10.1,30.71-16,20.17-11.53,30-17.68,19.14-12.71,29-18.9a18.52,18.52,0,0,1-1.63,1.79c-5.93,5.13-11.75,10.4-17.88,15.3-4.45,3.56-9.3,6.63-14,9.89-3.34,2.32-6.64,4.72-10.09,6.87-10.79,6.75-21.56,13.53-32.5,20-7.75,4.61-15.67,8.93-23.66,13.11-6,3.14-12.18,5.92-18.35,8.7s-12.33,5.48-18.6,8q-11.49,4.56-23.16,8.68c-8.87,3.13-17.76,6.2-26.75,8.94C55.34,297,51.41,299,46.81,299c-2.44,0-4.9,1.39-7.35,2.13-1.81.55-3.61,1.15-5.45,1.59-2.41.59-4.86,1-7.28,1.55-2.09.45-4.16.92-6.24,1.39-2.3.52-4.59,1.1-6.91,1.56-4.52.89-9,1.71-13.58,2.56Z"/><path class="cls-2" d="M1298.69,83.81c-3.11,2-6.25,4-9.34,6a246.18,246.18,0,0,1-27.8,15.76c-6.15,3-12,6.58-18.13,9.65-5.51,2.78-11.17,5.25-16.79,7.81-9.59,4.38-19.17,8.8-28.82,13-3.82,1.68-7.81,2.94-11.74,4.38-4.33,1.59-8.64,3.21-13,4.72-3.37,1.17-6.81,2.15-10.2,3.3-4.86,1.65-9.63,3.63-14.57,5-7.89,2.24-15.88,4.09-23.82,6.16-4,1-7.85,2.53-11.86,3.28-7.93,1.47-15.9,2.68-23.89,3.78-9,1.24-18.09,2.49-27.17,3.29s-18.11.61-27.08,1.64c-10.34,1.18-20.65.66-31,.44a188.57,188.57,0,0,1-33.24-3.29c-6.37-1.28-12.86-2-19.2-3.37-5.38-1.18-10.61-3.05-15.94-4.49-2.7-.74-5.55-1-8.19-1.87a41.51,41.51,0,0,1-6.18-3.1,64.34,64.34,0,0,1-8.72-5.29c1.54.43,3.08.84,4.62,1.29,7.22,2.09,14.38,4.49,21.69,6.21,6.52,1.53,13.22,2.35,19.85,3.44,5.08.83,10.17,1.71,15.28,2.35a159.81,159.81,0,0,0,17.41,1.72c19.17.29,38.35.34,57.52.26a82.83,82.83,0,0,0,13.37-1.52c12-2.08,24-4.13,36-6.59,11.79-2.43,23.56-5,35.17-8.18a224.41,224.41,0,0,0,24.58-8.49c15-6,29.83-12.37,44.74-18.56,8.56-3.56,16.16-8.78,23.91-13.73,9.83-6.28,19.91-12.25,29.28-19.16C1264,83.41,1271.91,76.08,1280,69c6.35-5.57,12.49-11.39,18.73-17.11Z"/><path class="cls-2" d="M1018.41,231.45a10.59,10.59,0,0,1-2.23.21c-7.36-.85-14.73-1.61-22-2.67-5.91-.85-11.81-1.87-17.62-3.19s-11.79-3.2-17.69-4.79c-2.15-.57-4.42-.79-6.48-1.55-5.08-1.89-10.14-3.87-15.1-6.06-5.86-2.59-11.64-5.39-17.4-8.22-10.31-5.06-20.65-10.07-30.84-15.38a494.08,494.08,0,0,1-47.28-28.24c-6.31-4.25-13.09-7.8-19.65-11.66-10.57-6.21-21.11-12.45-31.7-18.61a129.14,129.14,0,0,0-19.93-9.14c-5.93-2.23-11.7-4.92-17.48-7.54-10.6-4.81-21.13-9.78-32.25-13.39-7.31-2.38-14.48-5.18-21.78-7.6C686,89.33,673.11,85,660.11,81c-4.83-1.48-9.94-2.06-14.9-3.17s-9.72-2.4-14.6-3.52c-9.09-2.06-18-4.81-27.49-5.13-10.77-.35-21.5-1.59-32.26-2.32-4.71-.32-9.43-.29-14.15-.49-2.76-.12-5.52-.54-8.28-.52-4.85,0-9.71.39-14.57.45-5.39.07-10.79-.25-16.16,0-5.82.25-11.61,1-17.42,1.43a91.11,91.11,0,0,1-9.2.29A74.82,74.82,0,0,0,474,69.85C468,71,462,71.85,456.05,72.9c-2.06.36-4.07,1-6.12,1.37-5.22.94-10.53,1.49-15.66,2.77C430,78.1,426,80,421.89,81.48c-4.6,1.69-9.21,3.36-13.79,5.1-3.69,1.39-7.45,2.68-11,4.37-6.7,3.2-13.22,6.77-19.92,10-3.34,1.6-7,2.52-10.35,4.13-3.87,1.87-7.55,4.15-11.3,6.27-3.6,2-7.18,4.09-10.79,6.09-.32.17-.81,0-1.42-.44,1.53-.93,3.15-1.73,4.57-2.8,4.41-3.32,8.71-6.78,13.12-10.09,2.68-2,5.46-3.91,8.26-5.77,5.35-3.58,10.63-7.26,16.14-10.58,7.1-4.3,14.63-7.94,21.54-12.51,7.1-4.69,15-7.31,22.67-10.67a90.93,90.93,0,0,1,16.65-5.94,37.27,37.27,0,0,0,8.93-3.56,75,75,0,0,1,17.5-6.13c7.49-1.81,14.88-4,22.39-5.67a172.54,172.54,0,0,1,21-3.8c10.65-1,21.36-1.38,32.06-1.75a169.12,169.12,0,0,1,20.88.12c10,.87,19.86,2.43,29.77,3.83,6.73,1,13.46,2,20.12,3.25,7.77,1.51,15.47,3.38,23.2,5.06,4.81,1,9.71,1.79,14.44,3.11,5,1.41,9.88,3.36,14.82,5.06,7.53,2.58,15.09,5.11,22.61,7.74,5.69,2,11.47,3.83,17,6.23,9.29,4,18.4,8.48,27.63,12.67,6.58,3,13.26,5.73,19.83,8.74,10.09,4.61,20.25,9.1,30.12,14.15,5.42,2.77,10.37,6.49,15.43,9.92a188.5,188.5,0,0,0,23.14,13.57c4.87,2.37,9.27,5.71,13.95,8.48q18.59,11,37.22,21.9c4.18,2.44,8.15,5.62,12.67,7,6.75,2.06,11.66,6.86,17.64,10,6.79,3.57,13.08,8.22,20.1,11.19,8.32,3.51,15.3,8.91,22.85,13.55a102.53,102.53,0,0,0,13.27,6.38c8.14,3.51,16.35,6.86,24.55,10.23,1.51.62,3.12,1,4.66,1.52,3.29,1.17,6.59,2.33,9.85,3.59,4.52,1.74,9,3.55,13.5,5.35a9.29,9.29,0,0,1,1.09.63Z"/><path class="cls-2" d="M918.82,209.32c-1.78-.59-3.58-1.13-5.33-1.78q-12.79-4.78-25.57-9.63c-9.28-3.51-18.55-7-27.84-10.54-6.5-2.44-13.05-4.74-19.53-7.23-6.69-2.56-13.3-5.3-20-7.89-5.14-2-10.41-3.71-15.47-5.89-4.3-1.86-8.3-4.4-12.59-6.28-6.27-2.76-12.69-5.18-19-7.77q-7.25-3-14.47-6l-21.45-9.06c-6-2.53-11.91-5.18-18-7.52-3.75-1.44-7.72-2.3-11.53-3.59q-7.26-2.46-14.43-5.21c-7.59-2.9-15.08-6.06-22.7-8.86-7.33-2.7-14.78-5.1-22.19-7.59-7.79-2.62-15.58-5.24-23.41-7.77-6.68-2.15-13.36-4.3-20.11-6.2-18.18-5.11-36.63-8.32-55.61-7.23-9,.51-17.9,1.53-26.86,1.94a86.76,86.76,0,0,1-15-.59c-7.52-1-14.94-.33-22.41.25-2.46.18-4.94.15-7.4.38-6.39.59-12.79,1.19-19.16,1.92-5.35.61-10.71,1.22-16,2.19-3.64.67-7.15,2.07-10.75,3-5.29,1.32-10.63,2.41-15.91,3.75-3.3.84-6.56,1.86-9.78,3s-6.46,2.26-9.58,3.62c-4.43,1.92-8.74,4.11-13.15,6.06-2.92,1.3-6,2.32-8.9,3.57-4.71,2-9.5,3.91-14.05,6.24-9.12,4.68-18.23,9.41-27.1,14.54-5.66,3.28-11,7.19-16.29,11-7.38,5.32-14.52,11-21.94,16.22-5.95,4.21-12.16,8.05-18.27,12-.19.12-.53,0-1.18,0,4-5.05,7.95-9.65,12.81-13.44,8.41-6.56,17.85-11.45,26.94-16.93a95.49,95.49,0,0,0,9.24-6.33c9.48-7.4,19.81-13.41,30.34-19.15,4.46-2.43,8.63-5.42,13.15-7.73,4-2.07,8.45-3.41,12.59-5.33,7.52-3.49,14.87-7.39,22.47-10.69,5.54-2.41,11.4-4.06,17.07-6.17,3.63-1.36,7.13-3.1,10.79-4.39a48.78,48.78,0,0,1,7.61-1.83c11.4-2.08,23-3.54,34.2-6.28,10-2.45,20.15-1.21,30.12-2.48,10.55-1.34,21.1-.48,31.6-1.31,14.78-1.16,29.46.64,44.2.7,11.41,0,22.82,1.68,34.22,2.74a50.51,50.51,0,0,1,7,1.54c9.42,2.28,18.83,4.63,28.27,6.86,8.79,2.08,17.64,3.82,26.19,6.9s17.34,5.5,26,8.42c5.79,2,11.44,4.32,17.17,6.44,5.38,2,10.85,3.77,16.19,5.86,4.84,1.9,9.59,4.09,14.36,6.18,6,2.64,11.9,5.55,18,7.93a237,237,0,0,1,40.3,19.83c8.66,5.43,17.56,10.48,26.25,15.86,9.21,5.7,18.26,11.65,27.44,17.38,6.9,4.3,13.76,8.71,20.91,12.57,7.72,4.18,15.77,7.75,23.64,11.66,4.77,2.37,9.48,4.87,14.21,7.31Z"/><path class="cls-2" d="M1064,235.17c-3.83-.41-7.67-.8-11.5-1.23a16.79,16.79,0,0,0-1.73-.43c-6.91.08-13.43-2-20.06-3.44-3.18-.72-6.56-.64-9.64-1.6s-6-3-9.13-4.2c-7.39-2.78-14.89-5.27-22.3-8-3.22-1.18-6.32-2.69-9.48-4-5.22-2.2-10.38-4.58-15.7-6.53-8.45-3.1-15.83-7.92-23.08-13.14-3.28-2.37-7.27-3.74-10.87-5.7q-7.45-4.08-14.79-8.39c-6.1-3.6-12-7.45-18.22-10.94-2.43-1.37-5.39-1.79-7.87-3.1-4.61-2.45-9-5.23-13.54-7.88-12.21-7.21-24.4-14.47-36.65-21.63-8.05-4.7-16.28-9.11-24.26-13.93-5.61-3.4-11-7.13-16.38-10.95-6.37-4.56-13.43-7.75-20.45-11.06-10.53-5-21-10-31.58-14.91-6.64-3.06-13.44-5.77-20.13-8.71-5.54-2.43-10.93-5.2-16.54-7.41-6.25-2.45-12.69-4.38-19-6.61-9.44-3.31-18.81-6.83-28.3-10-5.23-1.73-10.62-3-16-4.28-6.68-1.62-13.37-3.24-20.12-4.53-9.25-1.77-18.55-3.24-27.84-4.8-4.87-.81-9.73-1.71-14.63-2.27-12.33-1.4-24.65-3.13-37.13-1.56-2.94.36-6-.05-9,0-5.45.2-10.91.7-16.36.73-7.43,0-14.46,2.13-21.63,3.53-3.59.69-7.27,1-10.84,1.73-4.22.9-8.4,2-12.55,3.22-5.45,1.56-10.9,3.16-16.26,5-3.5,1.2-6.8,3-10.27,4.28s-6.78,2.26-10.16,3.4c-3.16,1.07-6.35,2.08-9.45,3.29-3.88,1.52-7.6,3.48-11.54,4.8-5.88,2-10.93,5.34-16.15,8.49-5.54,3.35-11.35,6.25-16.9,9.57-4.21,2.52-8.19,5.43-12.3,8.13-5,3.26-10,6.46-15,9.72a11.34,11.34,0,0,0-1.89,1.57,58.47,58.47,0,0,1-13,9.83c-4.75,2.76-9,6.34-13.5,9.56a1.19,1.19,0,0,1-1.2.15c.61-.68,1.2-1.37,1.82-2a83.53,83.53,0,0,1,13.85-11.36c7.26-5,14.19-10.52,21.28-15.8q12.69-9.45,25.4-18.88c4.55-3.39,8.83-7.19,13.6-10.21,6.89-4.34,14-8.32,21.22-12.11,7.61-4,15.28-7.95,23.2-11.26,9.29-3.89,18.52-8,28.42-10.3,10.63-2.46,21.17-5.35,31.85-7.55a137.84,137.84,0,0,1,18.92-2.28c7.62-.48,15.27-.66,22.9-.55,5.82.08,11.64,1.28,17.45,1.16,8.31-.17,16.37,1.09,24.5,2.47,5.88,1,11.92,1.06,17.82,2a89.69,89.69,0,0,1,14.79,3.43,148.34,148.34,0,0,0,21.12,5.71,141.28,141.28,0,0,1,25.26,6.94c4.59,1.74,9.31,3.16,13.95,4.78,4.86,1.69,9.69,3.44,14.52,5.17,4.21,1.51,8.51,2.83,12.6,4.59,7.6,3.28,15.16,6.65,22.57,10.3q9.93,4.89,19.5,10.5c11.27,6.6,22.36,13.52,33.59,20.18,10.34,6.13,20.69,12.24,31.19,18.07,7.35,4.09,15,7.59,22.46,11.57,6.71,3.59,13.19,7.6,19.89,11.2,7,3.74,14.15,7.05,21.07,10.85,5.56,3.06,10.77,6.74,16.3,9.83,7.62,4.26,15.46,8.13,23.09,12.36,5.68,3.15,11.12,6.72,16.79,9.89,7.42,4.15,15,8.09,22.46,12.11,6.38,3.43,12.68,7,19.16,10.24,5.6,2.78,11.37,5.26,17.15,7.67,7.57,3.16,15.23,6.11,22.85,9.15,10.67,4.25,21.31,8.58,32,12.68,2.61,1,5.52,1.22,8.29,1.85a18.84,18.84,0,0,1,2.24.82Z"/><path class="cls-2" d="M1129.15,230.83c-8.55,3.61-17.32,2.89-26.11,2.09-5.73-.53-11.46-1-17.2-1.42s-11.51-.6-17.27-.82c-9-.35-17.35-2.73-25.57-6.22-9.06-3.86-18.34-7.22-27.48-10.89-6.58-2.65-13.14-5.37-19.64-8.21-7-3.08-14.23-6-21-9.61-16.16-8.76-32.06-18-48.11-26.94-8.75-4.87-17.65-9.47-26.37-14.4-8.32-4.71-16.41-9.81-24.75-14.5-4.61-2.6-9.6-4.53-14.25-7.07-7.07-3.88-13.92-8.15-21-12-6.74-3.7-13.69-7-20.44-10.68-6-3.24-11.81-6.71-17.7-10.1-9.39-5.41-18.82-10.74-28.13-16.27-6.94-4.11-13.58-8.74-20.61-12.67-7.74-4.34-15.77-8.18-23.71-12.15-5.21-2.6-10.39-5.3-15.78-7.48C707.92,49,701.55,47,695.29,44.82c-5.57-2-11.09-4.09-16.71-5.87Q665.44,34.81,652.19,31c-9.61-2.76-19.22-5.57-28.93-7.94-6.59-1.62-13.34-2.63-20-3.71S589.77,17.31,583,16.55c-4.66-.52-9.38-.58-14.08-.86-6.65-.39-13.29-.8-19.94-1.17a31.39,31.39,0,0,0-3.36,0c-7.48.33-15,.48-22.43,1.07-5.5.44-11,1.29-16.4,2.26-7.2,1.3-14.37,2.8-21.52,4.38-3.47.78-6.87,1.92-10.28,2.95-4,1.21-8.15,2.09-11.91,3.81-8.72,4-18.18,6.28-26.27,11.74-2.73,1.84-5.95,2.94-9,4.34-.28.12-.69,0-1.22-.47,1.83-1.13,3.6-2.39,5.51-3.37,14.05-7.15,28-14.51,42.24-21.28A236.62,236.62,0,0,1,514,5.66,156.65,156.65,0,0,1,569.15.59c9.15.79,18.3,1.88,27.38,3.23,5.67.84,11.23,2.42,16.83,3.7,6.69,1.52,13.41,2.91,20,4.65,7.42,1.95,14.76,4.18,22.11,6.37,5,1.5,10.12,3,15.08,4.76,7.08,2.5,14.08,5.23,21.1,7.87,5.3,2,10.62,3.92,15.88,6,6,2.39,12,4.92,18,7.43s12,4.84,17.86,7.64a129,129,0,0,1,13.34,7.59C770,68.32,783.16,77,796.39,85.53c11.86,7.64,23.72,15.28,35.68,22.76q19.53,12.21,39.25,24.12c10.6,6.4,21.25,12.72,32,18.83,11.28,6.39,22.69,12.57,34.13,18.68q12.82,6.84,25.88,13.24c7.36,3.61,14.85,7,22.33,10.3,7,3.13,14.05,6.15,21.1,9.17,4.58,2,9.11,4.09,13.83,5.68,7.9,2.67,15.9,5,23.9,7.4,6.07,1.8,12.14,3.63,18.31,5,7.77,1.78,15.61,3.32,23.47,4.62,8.92,1.48,17.89,2.64,26.86,3.81,4.08.53,8.2.74,12.29,1.12C1126.69,230.41,1127.92,230.65,1129.15,230.83Z"/><path class="cls-2" d="M491.21,88.87c-.52.16-1,.36-1.58.48-7.72,1.68-15.47,3.27-23.17,5-6,1.38-12,2.9-18,4.47s-11.83,3.15-17.68,4.94c-5.61,1.72-11.26,3.44-16.68,5.66-6.42,2.63-12.62,5.77-18.9,8.73-7.2,3.4-14.49,6.65-21.56,10.33-9.72,5-19.28,10.4-28.88,15.68q-15.37,8.46-30.71,17-11.32,6.31-22.61,12.72-12.75,7.24-25.45,14.55a32.72,32.72,0,0,1-3.47,2,13.74,13.74,0,0,1-3.25.41c2.05-2.27,3.44-4.26,5.26-5.74,4.57-3.7,9.19-7.36,14-10.71,17.15-11.86,34.31-23.71,51.65-35.29,5.14-3.43,10.84-6,16.36-8.85,9.58-4.89,19.05-10.06,28.89-14.4q18.75-8.26,38-15.29c7.06-2.58,14.61-3.77,21.84-5.93,8.25-2.47,16.73-3.24,25.21-4.12,9.29-1,18.61-1.7,27.92-2.5a15,15,0,0,1,2.74.24Z"/><path class="cls-2" d="M375.6,79.62l-5.25,3.89A5.78,5.78,0,0,1,375.6,79.62Z"/></g></g></g></svg>