<svg xmlns="http://www.w3.org/2000/svg" viewBox="0 0 73.37 73.86"><defs><style>.cls-1,.cls-3{fill:none;stroke-linecap:round;stroke-width:1.44px;}.cls-1{stroke:#3d3a39;stroke-linejoin:round;}.cls-2{fill:#f4c944;}.cls-3{stroke:#f4c944;stroke-miterlimit:10;}.cls-4{fill:#3d3a39;}</style></defs><g id="レイヤー_2" data-name="レイヤー 2"><g id="レイヤー_1-2" data-name="レイヤー 1"><path class="cls-1" d="M70.29,14.19H3.08A2.36,2.36,0,0,0,.72,16.54v46a2.36,2.36,0,0,0,2.36,2.36H27c-.29,2.75-.59,5.5-.88,8.25H47.23q-.45-4.12-.88-8.25H70.29a2.36,2.36,0,0,0,2.36-2.36v-46A2.36,2.36,0,0,0,70.29,14.19Z"/><line class="cls-1" x1="0.83" y1="58.29" x2="72.54" y2="58.29"/><line class="cls-1" x1="22.55" y1="73.14" x2="50.82" y2="73.14"/><rect class="cls-1" x="4.94" y="17.91" width="63.48" height="36.51"/><path class="cls-2" d="M34.55,44.15h6.89v-.91c0-3.7,4.53-5.74,4.53-10.7,0-4.76-3.19-7.91-8-7.91s-8,3.15-8,7.91c0,5,4.53,7,4.53,10.7ZM33.1,47.66a1,1,0,0,1,1-1h7.75a1,1,0,0,1,0,2.09H34.12A1,1,0,0,1,33.1,47.66ZM35,49.72h6c-.12,1.18-1.32,2-3,2S35.1,50.9,35,49.72Z"/><line class="cls-3" x1="36.08" y1="0.72" x2="36.08" y2="7.91"/><line class="cls-3" x1="27.09" y1="2.49" x2="30.68" y2="8.72"/><line class="cls-3" x1="45.07" y1="2.49" x2="41.47" y2="8.72"/><path class="cls-4" d="M31.88,43.87V42c0-3.21-4.54-5.08-4.54-10.67S31.12,22,36.79,22s9.43,3.74,9.43,9.36S41.68,38.8,41.68,42v1.86a.51.51,0,0,1-.54.56H32.42A.51.51,0,0,1,31.88,43.87ZM33.34,43h6.89v-.9c0-3.7,4.53-5.75,4.53-10.7,0-4.76-3.19-7.91-8-7.91s-8,3.15-8,7.91c0,5,4.53,7,4.53,10.7Zm-1.46,3.52a1,1,0,0,1,1-1h7.74a1.05,1.05,0,0,1,0,2.1H32.91A1,1,0,0,1,31.88,46.48Zm1.9,2.05h6c-.13,1.18-1.32,2-3,2S33.89,49.71,33.78,48.53Z"/></g></g></svg>