<svg xmlns="http://www.w3.org/2000/svg" viewBox="0 0 104.27 104.98"><defs><style>.cls-1,.cls-5{fill:none;stroke-linecap:round;stroke-width:2.04px;}.cls-1{stroke:#3d3a39;stroke-linejoin:round;}.cls-2{fill:#3d3a39;}.cls-3{opacity:0.31;}.cls-4{fill:#3e3a39;}.cls-5{stroke:#3e3a39;stroke-miterlimit:10;}</style></defs><g id="レイヤー_2" data-name="レイヤー 2"><g id="レイヤー_1-2" data-name="レイヤー 1"><path class="cls-1" d="M99.9,20.16H4.37A3.35,3.35,0,0,0,1,23.51V88.87a3.35,3.35,0,0,0,3.35,3.35h34C38,96.14,37.57,100,37.15,104h30c-.42-3.92-.83-7.82-1.25-11.74h34a3.35,3.35,0,0,0,3.35-3.35V23.51A3.35,3.35,0,0,0,99.9,20.16Z"/><line class="cls-1" x1="1.18" y1="82.85" x2="103.09" y2="82.85"/><line class="cls-1" x1="32.05" y1="103.96" x2="72.22" y2="103.96"/><rect class="cls-1" x="7.03" y="25.46" width="90.22" height="51.89"/><path class="cls-2" d="M45.31,62.34V59.7c0-4.56-6.46-7.22-6.46-15.15s5.37-13.31,13.43-13.31S65.7,36.56,65.7,44.55,59.24,55.14,59.24,59.7v2.64a.74.74,0,0,1-.77.81H46.08A.74.74,0,0,1,45.31,62.34Zm2.07-1.28h9.79V59.78c0-5.27,6.44-8.17,6.44-15.22,0-6.76-4.53-11.23-11.33-11.23S40.94,37.8,40.94,44.56c0,7,6.44,9.95,6.44,15.22Zm-2.07,5a1.45,1.45,0,0,1,1.46-1.48h11a1.45,1.45,0,0,1,1.46,1.48,1.46,1.46,0,0,1-1.46,1.5h-11A1.46,1.46,0,0,1,45.31,66.05ZM48,69h8.55c-.18,1.67-1.88,2.78-4.27,2.78S48.16,70.65,48,69Z"/><g class="cls-3"><path class="cls-4" d="M49.11,62.74H58.9V61.46c0-5.26,6.44-8.17,6.44-15.21C65.34,39.49,60.81,35,54,35S42.67,39.49,42.67,46.25c0,7,6.44,10,6.44,15.21Zm-2.07,5a1.45,1.45,0,0,1,1.46-1.48h11A1.46,1.46,0,0,1,61,67.74a1.47,1.47,0,0,1-1.47,1.49h-11A1.46,1.46,0,0,1,47,67.74Zm2.69,2.92h8.54c-.18,1.68-1.87,2.78-4.26,2.78S49.89,72.34,49.73,70.66Z"/></g><g class="cls-3"><line class="cls-5" x1="51.28" y1="1.02" x2="51.28" y2="11.25"/><line class="cls-5" x1="38.5" y1="3.54" x2="43.61" y2="12.39"/><line class="cls-5" x1="64.05" y1="3.54" x2="58.94" y2="12.39"/></g></g></g></svg>